<svg width="3508" height="2256" xmlns="http://www.w3.org/2000/svg" xmlns:xlink="http://www.w3.org/1999/xlink" xml:space="preserve" overflow="hidden"><defs><clipPath id="clip0"><rect x="667" y="172" width="3508" height="2256"/></clipPath></defs><g clip-path="url(#clip0)" transform="translate(-667 -172)"><rect x="667" y="2173" width="1039" height="234" fill="#F6C6AD"/><rect x="1706" y="1835" width="2469" height="572" fill="#F6C6AD"/><rect x="1706" y="172" width="2469" height="1637" fill="#8ED973"/><rect x="667" y="172" width="987" height="1949" fill="#83CBEB"/><path d="M0 3.4375-82.4877 3.4375-79.0502 0-79.0502 220.892-82.4877 217.454 2550.18 217.454 2550.18 314.916 2543.3 314.916 2543.3 220.892 2546.74 224.329-85.9252 224.329-85.9252-3.4375 0-3.4375ZM2560.49 310.333 2546.74 337.833 2532.99 310.333Z" transform="matrix(-1 0 0 1 3967.24 1653.5)"/><rect x="719.5" y="198.5" width="364" height="104" stroke="#024059" stroke-width="6.875" stroke-miterlimit="8" fill="#0F9ED5"/><text fill="#FFFFFF" font-family="Source Han Sans CN,Source Han Sans CN_MSFontService,sans-serif" font-weight="400" font-size="83" transform="matrix(1 0 0 1 824.537 279)">GVA</text><path d="M1264.5 805.167C1264.5 786.021 1280.02 770.5 1299.17 770.5L1541.83 770.5C1560.98 770.5 1576.5 786.021 1576.5 805.167L1576.5 943.832C1576.5 962.979 1560.98 978.5 1541.83 978.5L1299.17 978.5C1280.02 978.5 1264.5 962.979 1264.5 943.832Z" stroke="#000000" stroke-width="6.875" stroke-miterlimit="8" fill="#FFFFFF" fill-rule="evenodd"/><text font-family="Source Han Sans CN,Source Han Sans CN_MSFontService,sans-serif" font-weight="400" font-size="83" transform="matrix(1 0 0 1 1312.23 903)">VS</text><text font-family="Source Han Sans CN,Source Han Sans CN_MSFontService,sans-serif" font-weight="400" font-size="83" transform="matrix(1 0 0 1 1409.37 903)">-</text><text font-family="Source Han Sans CN,Source Han Sans CN_MSFontService,sans-serif" font-weight="400" font-size="83" transform="matrix(1 0 0 1 1438.02 903)">L2</text><path d="M1264.5 1195C1264.5 1175.95 1279.95 1160.5 1299 1160.5L1542 1160.5C1561.05 1160.5 1576.5 1175.95 1576.5 1195L1576.5 1333C1576.5 1352.05 1561.05 1367.5 1542 1367.5L1299 1367.5C1279.95 1367.5 1264.5 1352.05 1264.5 1333Z" stroke="#000000" stroke-width="6.875" stroke-miterlimit="8" fill="#FFFFFF" fill-rule="evenodd"/><text font-family="Source Han Sans CN,Source Han Sans CN_MSFontService,sans-serif" font-weight="400" font-size="83" transform="matrix(1 0 0 1 1312.23 1293)">VS</text><text font-family="Source Han Sans CN,Source Han Sans CN_MSFontService,sans-serif" font-weight="400" font-size="83" transform="matrix(1 0 0 1 1409.37 1293)">-</text><text font-family="Source Han Sans CN,Source Han Sans CN_MSFontService,sans-serif" font-weight="400" font-size="83" transform="matrix(1 0 0 1 1438.02 1293)">L1</text><path d="M1264.5 1584.17C1264.5 1565.02 1280.02 1549.5 1299.17 1549.5L1541.83 1549.5C1560.98 1549.5 1576.5 1565.02 1576.5 1584.17L1576.5 1722.83C1576.5 1741.98 1560.98 1757.5 1541.83 1757.5L1299.17 1757.5C1280.02 1757.5 1264.5 1741.98 1264.5 1722.83Z" stroke="#000000" stroke-width="6.875" stroke-miterlimit="8" fill="#FFFFFF" fill-rule="evenodd"/><text font-family="Source Han Sans CN,Source Han Sans CN_MSFontService,sans-serif" font-weight="400" font-size="83" transform="matrix(1 0 0 1 1312.23 1683)">VS</text><text font-family="Source Han Sans CN,Source Han Sans CN_MSFontService,sans-serif" font-weight="400" font-size="83" transform="matrix(1 0 0 1 1409.37 1683)">-</text><text font-family="Source Han Sans CN,Source Han Sans CN_MSFontService,sans-serif" font-weight="400" font-size="83" transform="matrix(1 0 0 1 1438.02 1683)">L0</text><path d="M2096.5 805.167C2096.5 786.021 2112.02 770.5 2131.17 770.5L2373.83 770.5C2392.98 770.5 2408.5 786.021 2408.5 805.167L2408.5 943.833C2408.5 962.979 2392.98 978.5 2373.83 978.5L2131.17 978.5C2112.02 978.5 2096.5 962.979 2096.5 943.833Z" stroke="#000000" stroke-width="6.875" stroke-miterlimit="8" fill="#FFFFFF" fill-rule="evenodd"/><text font-family="Source Han Sans CN,Source Han Sans CN_MSFontService,sans-serif" font-weight="400" font-size="83" transform="matrix(1 0 0 1 2164.03 903)">G</text><text font-family="Source Han Sans CN,Source Han Sans CN_MSFontService,sans-serif" font-weight="400" font-size="83" transform="matrix(1 0 0 1 2220.75 903)">-</text><text font-family="Source Han Sans CN,Source Han Sans CN_MSFontService,sans-serif" font-weight="400" font-size="83" transform="matrix(1 0 0 1 2249.4 903)">L3</text><path d="M2616.5 805.167C2616.5 786.021 2632.02 770.5 2651.17 770.5L2893.83 770.5C2912.98 770.5 2928.5 786.021 2928.5 805.167L2928.5 943.832C2928.5 962.979 2912.98 978.5 2893.83 978.5L2651.17 978.5C2632.02 978.5 2616.5 962.979 2616.5 943.832Z" stroke="#000000" stroke-width="6.875" stroke-miterlimit="8" fill="#FFFFFF" fill-rule="evenodd"/><text font-family="Source Han Sans CN,Source Han Sans CN_MSFontService,sans-serif" font-weight="400" font-size="83" transform="matrix(1 0 0 1 2683.77 903)">G</text><text font-family="Source Han Sans CN,Source Han Sans CN_MSFontService,sans-serif" font-weight="400" font-size="83" transform="matrix(1 0 0 1 2740.49 903)">-</text><text font-family="Source Han Sans CN,Source Han Sans CN_MSFontService,sans-serif" font-weight="400" font-size="83" transform="matrix(1 0 0 1 2769.14 903)">L2</text><path d="M3136.5 805.167C3136.5 786.021 3152.02 770.5 3171.17 770.5L3412.83 770.5C3431.98 770.5 3447.5 786.021 3447.5 805.167L3447.5 943.832C3447.5 962.979 3431.98 978.5 3412.83 978.5L3171.17 978.5C3152.02 978.5 3136.5 962.979 3136.5 943.832Z" stroke="#000000" stroke-width="6.875" stroke-miterlimit="8" fill="#FFFFFF" fill-rule="evenodd"/><text font-family="Source Han Sans CN,Source Han Sans CN_MSFontService,sans-serif" font-weight="400" font-size="83" transform="matrix(1 0 0 1 3203.52 903)">G</text><text font-family="Source Han Sans CN,Source Han Sans CN_MSFontService,sans-serif" font-weight="400" font-size="83" transform="matrix(1 0 0 1 3260.24 903)">-</text><text font-family="Source Han Sans CN,Source Han Sans CN_MSFontService,sans-serif" font-weight="400" font-size="83" transform="matrix(1 0 0 1 3288.88 903)">L1</text><path d="M2096.5 1195C2096.5 1175.95 2111.95 1160.5 2131 1160.5L2374 1160.5C2393.05 1160.5 2408.5 1175.95 2408.5 1195L2408.5 1333C2408.5 1352.05 2393.05 1367.5 2374 1367.5L2131 1367.5C2111.95 1367.5 2096.5 1352.05 2096.5 1333Z" stroke="#000000" stroke-width="6.875" stroke-miterlimit="8" fill="#FFFFFF" fill-rule="evenodd"/><text font-family="Source Han Sans CN,Source Han Sans CN_MSFontService,sans-serif" font-weight="400" font-size="83" transform="matrix(1 0 0 1 2164.03 1293)">G</text><text font-family="Source Han Sans CN,Source Han Sans CN_MSFontService,sans-serif" font-weight="400" font-size="83" transform="matrix(1 0 0 1 2220.75 1293)">-</text><text font-family="Source Han Sans CN,Source Han Sans CN_MSFontService,sans-serif" font-weight="400" font-size="83" transform="matrix(1 0 0 1 2249.4 1293)">L3</text><path d="M2616.5 1195C2616.5 1175.95 2631.95 1160.5 2651 1160.5L2894 1160.5C2913.05 1160.5 2928.5 1175.95 2928.5 1195L2928.5 1333C2928.5 1352.05 2913.05 1367.5 2894 1367.5L2651 1367.5C2631.95 1367.5 2616.5 1352.05 2616.5 1333Z" stroke="#000000" stroke-width="6.875" stroke-miterlimit="8" fill="#FFFFFF" fill-rule="evenodd"/><text font-family="Source Han Sans CN,Source Han Sans CN_MSFontService,sans-serif" font-weight="400" font-size="83" transform="matrix(1 0 0 1 2683.77 1293)">G</text><text font-family="Source Han Sans CN,Source Han Sans CN_MSFontService,sans-serif" font-weight="400" font-size="83" transform="matrix(1 0 0 1 2740.49 1293)">-</text><text font-family="Source Han Sans CN,Source Han Sans CN_MSFontService,sans-serif" font-weight="400" font-size="83" transform="matrix(1 0 0 1 2769.14 1293)">L2</text><path d="M3136.5 1195C3136.5 1175.95 3151.95 1160.5 3171 1160.5L3413 1160.5C3432.05 1160.5 3447.5 1175.95 3447.5 1195L3447.5 1333C3447.5 1352.05 3432.05 1367.5 3413 1367.5L3171 1367.5C3151.95 1367.5 3136.5 1352.05 3136.5 1333Z" stroke="#000000" stroke-width="6.875" stroke-miterlimit="8" fill="#FFFFFF" fill-rule="evenodd"/><text font-family="Source Han Sans CN,Source Han Sans CN_MSFontService,sans-serif" font-weight="400" font-size="83" transform="matrix(1 0 0 1 3203.52 1293)">G</text><text font-family="Source Han Sans CN,Source Han Sans CN_MSFontService,sans-serif" font-weight="400" font-size="83" transform="matrix(1 0 0 1 3260.24 1293)">-</text><text font-family="Source Han Sans CN,Source Han Sans CN_MSFontService,sans-serif" font-weight="400" font-size="83" transform="matrix(1 0 0 1 3288.88 1293)">L1</text><path d="M2096.5 1584.17C2096.5 1565.02 2112.02 1549.5 2131.17 1549.5L2373.83 1549.5C2392.98 1549.5 2408.5 1565.02 2408.5 1584.17L2408.5 1722.83C2408.5 1741.98 2392.98 1757.5 2373.83 1757.5L2131.17 1757.5C2112.02 1757.5 2096.5 1741.98 2096.5 1722.83Z" stroke="#000000" stroke-width="6.875" stroke-miterlimit="8" fill="#FFFFFF" fill-rule="evenodd"/><text font-family="Source Han Sans CN,Source Han Sans CN_MSFontService,sans-serif" font-weight="400" font-size="83" transform="matrix(1 0 0 1 2164.03 1683)">G</text><text font-family="Source Han Sans CN,Source Han Sans CN_MSFontService,sans-serif" font-weight="400" font-size="83" transform="matrix(1 0 0 1 2220.75 1683)">-</text><text font-family="Source Han Sans CN,Source Han Sans CN_MSFontService,sans-serif" font-weight="400" font-size="83" transform="matrix(1 0 0 1 2249.4 1683)">L3</text><path d="M2616.5 1584.17C2616.5 1565.02 2632.02 1549.5 2651.17 1549.5L2893.83 1549.5C2912.98 1549.5 2928.5 1565.02 2928.5 1584.17L2928.5 1722.83C2928.5 1741.98 2912.98 1757.5 2893.83 1757.5L2651.17 1757.5C2632.02 1757.5 2616.5 1741.98 2616.5 1722.83Z" stroke="#000000" stroke-width="6.875" stroke-miterlimit="8" fill="#FFFFFF" fill-rule="evenodd"/><text font-family="Source Han Sans CN,Source Han Sans CN_MSFontService,sans-serif" font-weight="400" font-size="83" transform="matrix(1 0 0 1 2683.77 1683)">G</text><text font-family="Source Han Sans CN,Source Han Sans CN_MSFontService,sans-serif" font-weight="400" font-size="83" transform="matrix(1 0 0 1 2740.49 1683)">-</text><text font-family="Source Han Sans CN,Source Han Sans CN_MSFontService,sans-serif" font-weight="400" font-size="83" transform="matrix(1 0 0 1 2769.14 1683)">L2</text><path d="M3136.5 1584.17C3136.5 1565.02 3152.02 1549.5 3171.17 1549.5L3412.83 1549.5C3431.98 1549.5 3447.5 1565.02 3447.5 1584.17L3447.5 1722.83C3447.5 1741.98 3431.98 1757.5 3412.83 1757.5L3171.17 1757.5C3152.02 1757.5 3136.5 1741.98 3136.5 1722.83Z" stroke="#000000" stroke-width="6.875" stroke-miterlimit="8" fill="#FFFFFF" fill-rule="evenodd"/><text font-family="Source Han Sans CN,Source Han Sans CN_MSFontService,sans-serif" font-weight="400" font-size="83" transform="matrix(1 0 0 1 3203.52 1683)">G</text><text font-family="Source Han Sans CN,Source Han Sans CN_MSFontService,sans-serif" font-weight="400" font-size="83" transform="matrix(1 0 0 1 3260.24 1683)">-</text><text font-family="Source Han Sans CN,Source Han Sans CN_MSFontService,sans-serif" font-weight="400" font-size="83" transform="matrix(1 0 0 1 3288.88 1683)">L1</text><path d="M1423.94 302.5 1423.94 357.545 1417.06 357.545 1417.06 302.5ZM1434.25 352.961 1420.5 380.461 1406.75 352.961Z"/><text font-family="Source Han Sans CN,Source Han Sans CN_MSFontService,sans-serif" font-weight="400" font-size="83" transform="matrix(1 0 0 1 1316.16 279)">vsatp</text><path d="M1576.5 871.062 2073.33 871.063 2073.33 877.938 1576.5 877.938ZM2068.74 860.75 2096.24 874.5 2068.74 888.25Z"/><path d="M1576.5 1260.06 2073.33 1260.06 2073.33 1266.94 1576.5 1266.94ZM2068.74 1249.75 2096.24 1263.5 2068.74 1277.25Z"/><path d="M1576.5 1650.06 2073.33 1650.06 2073.33 1656.94 1576.5 1656.94ZM2068.74 1639.75 2096.24 1653.5 2068.74 1667.25Z"/><path d="M2408.5 1650.06 2593.48 1650.06 2593.48 1656.94 2408.5 1656.94ZM2588.9 1639.75 2616.4 1653.5 2588.9 1667.25Z"/><path d="M2408.5 1260.06 2593.48 1260.06 2593.48 1266.94 2408.5 1266.94ZM2588.9 1249.75 2616.4 1263.5 2588.9 1277.25Z"/><path d="M2408.5 871.062 2593.48 871.063 2593.48 877.938 2408.5 877.938ZM2588.9 860.75 2616.4 874.5 2588.9 888.25Z"/><path d="M2928.5 1650.06 3113.48 1650.06 3113.48 1656.94 2928.5 1656.94ZM3108.9 1639.75 3136.4 1653.5 3108.9 1667.25Z"/><path d="M2928.5 1260.06 3113.48 1260.06 3113.48 1266.94 2928.5 1266.94ZM3108.9 1249.75 3136.4 1263.5 3108.9 1277.25Z"/><path d="M2928.5 871.062 3113.48 871.063 3113.48 877.938 2928.5 877.938ZM3108.9 860.75 3136.4 874.5 3108.9 888.25Z"/><path d="M0 3.4375-82.4877 3.4375-79.0502 0-79.0502 194.903-82.4877 191.466 2550.18 191.466 2550.18 262.942 2543.3 262.942 2543.3 194.903 2546.74 198.341-85.9252 198.341-85.9252-3.4375 0-3.4375ZM2560.49 258.359 2546.74 285.859 2532.99 258.359Z" transform="matrix(-1 0 0 1 3967.24 1263.5)"/><path d="M0 3.4375-82.4877 3.4375-79.0502 0-79.0502 194.903-82.4877 191.466 2550.18 191.466 2550.18 262.942 2543.3 262.942 2543.3 194.903 2546.74 198.341-85.9252 198.341-85.9252-3.4375 0-3.4375ZM2560.49 258.359 2546.74 285.859 2532.99 258.359Z" transform="matrix(-1 0 0 1 3967.24 874.5)"/><rect x="1238.5" y="1991.5" width="364" height="104" stroke="#024059" stroke-width="6.875" stroke-miterlimit="8" fill="#0F9ED5"/><text fill="#FFFFFF" font-family="Source Han Sans CN,Source Han Sans CN_MSFontService,sans-serif" font-weight="400" font-size="83" transform="matrix(1 0 0 1 1343.06 2073)">GPA</text><path d="M2096.5 1974.17C2096.5 1955.02 2112.02 1939.5 2131.17 1939.5L2373.83 1939.5C2392.98 1939.5 2408.5 1955.02 2408.5 1974.17L2408.5 2112.83C2408.5 2131.98 2392.98 2147.5 2373.83 2147.5L2131.17 2147.5C2112.02 2147.5 2096.5 2131.98 2096.5 2112.83Z" stroke="#000000" stroke-width="6.875" stroke-miterlimit="8" fill="#FFFFFF" fill-rule="evenodd"/><text font-family="Source Han Sans CN,Source Han Sans CN_MSFontService,sans-serif" font-weight="400" font-size="83" transform="matrix(1 0 0 1 2164.03 2073)">G</text><text font-family="Source Han Sans CN,Source Han Sans CN_MSFontService,sans-serif" font-weight="400" font-size="83" transform="matrix(1 0 0 1 2220.75 2073)">-</text><text font-family="Source Han Sans CN,Source Han Sans CN_MSFontService,sans-serif" font-weight="400" font-size="83" transform="matrix(1 0 0 1 2249.4 2073)">L3</text><path d="M2616.5 1974.17C2616.5 1955.02 2632.02 1939.5 2651.17 1939.5L2893.83 1939.5C2912.98 1939.5 2928.5 1955.02 2928.5 1974.17L2928.5 2112.83C2928.5 2131.98 2912.98 2147.5 2893.83 2147.5L2651.17 2147.5C2632.02 2147.5 2616.5 2131.98 2616.5 2112.83Z" stroke="#000000" stroke-width="6.875" stroke-miterlimit="8" fill="#FFFFFF" fill-rule="evenodd"/><text font-family="Source Han Sans CN,Source Han Sans CN_MSFontService,sans-serif" font-weight="400" font-size="83" transform="matrix(1 0 0 1 2683.77 2073)">G</text><text font-family="Source Han Sans CN,Source Han Sans CN_MSFontService,sans-serif" font-weight="400" font-size="83" transform="matrix(1 0 0 1 2740.49 2073)">-</text><text font-family="Source Han Sans CN,Source Han Sans CN_MSFontService,sans-serif" font-weight="400" font-size="83" transform="matrix(1 0 0 1 2769.14 2073)">L2</text><path d="M3136.5 1974.17C3136.5 1955.02 3152.02 1939.5 3171.17 1939.5L3412.83 1939.5C3431.98 1939.5 3447.5 1955.02 3447.5 1974.17L3447.5 2112.83C3447.5 2131.98 3431.98 2147.5 3412.83 2147.5L3171.17 2147.5C3152.02 2147.5 3136.5 2131.98 3136.5 2112.83Z" stroke="#000000" stroke-width="6.875" stroke-miterlimit="8" fill="#FFFFFF" fill-rule="evenodd"/><text font-family="Source Han Sans CN,Source Han Sans CN_MSFontService,sans-serif" font-weight="400" font-size="83" transform="matrix(1 0 0 1 3203.52 2073)">G</text><text font-family="Source Han Sans CN,Source Han Sans CN_MSFontService,sans-serif" font-weight="400" font-size="83" transform="matrix(1 0 0 1 3260.24 2073)">-</text><text font-family="Source Han Sans CN,Source Han Sans CN_MSFontService,sans-serif" font-weight="400" font-size="83" transform="matrix(1 0 0 1 3288.88 2073)">L1</text><path d="M1602.5 2040.06 2073.34 2040.06 2073.34 2046.94 1602.5 2046.94ZM2068.76 2029.75 2096.26 2043.5 2068.76 2057.25Z"/><path d="M2408.5 2040.06 2593.48 2040.06 2593.48 2046.94 2408.5 2046.94ZM2588.9 2029.75 2616.4 2043.5 2588.9 2057.25Z"/><path d="M2928.5 2040.06 3113.48 2040.06 3113.48 2046.94 2928.5 2046.94ZM3108.9 2029.75 3136.4 2043.5 3108.9 2057.25Z"/><path d="M1992.5 1546.06 2073.53 1546.06 2073.53 1552.94 1992.5 1552.94ZM2068.95 1535.75 2096.45 1549.5 2068.95 1563.25Z"/><text font-family="Source Han Sans CN,Source Han Sans CN_MSFontService,sans-serif" font-weight="400" font-size="83" transform="matrix(1 0 0 1 1738.25 1579)">hgatp</text><path d="M1992.5 1157.06 2073.53 1157.06 2073.53 1163.94 1992.5 1163.94ZM2068.95 1146.75 2096.45 1160.5 2068.95 1174.25Z"/><text font-family="Source Han Sans CN,Source Han Sans CN_MSFontService,sans-serif" font-weight="400" font-size="83" transform="matrix(1 0 0 1 1738.25 1189)">hgatp</text><path d="M1992.5 767.062 2073.53 767.063 2073.53 773.938 1992.5 773.937ZM2068.95 756.75 2096.45 770.5 2068.95 784.25Z"/><text font-family="Source Han Sans CN,Source Han Sans CN_MSFontService,sans-serif" font-weight="400" font-size="83" transform="matrix(1 0 0 1 1738.25 799)">hgatp</text><path d="M0-3.4375 575.155-3.4375 575.155 340.904 568.28 340.904 568.28 0 571.717 3.4375 0 3.4375ZM585.467 336.32 571.717 363.82 557.967 336.32Z" transform="matrix(1.83697e-16 1 1 -1.83697e-16 901.5 302.5)"/><path d="M0-3.4375 964.962-3.4375 964.962 340.904 958.087 340.904 958.087 0 961.524 3.4375 0 3.4375ZM975.274 336.32 961.524 363.82 947.774 336.32Z" transform="matrix(1.83697e-16 1 1 -1.83697e-16 901.5 302.5)"/><path d="M0-3.4375 1354.77-3.4375 1354.77 340.904 1347.89 340.904 1347.89 0 1351.33 3.4375 0 3.4375ZM1365.08 336.32 1351.33 363.82 1337.58 336.32Z" transform="matrix(1.83697e-16 1 1 -1.83697e-16 901.5 302.5)"/><path d="M0-3.4375 1744.58-3.4375 1744.58 314.916 1737.7 314.916 1737.7 0 1741.14 3.4375 0 3.4375ZM1754.89 310.333 1741.14 337.833 1727.39 310.333Z" transform="matrix(1.83697e-16 1 1 -1.83697e-16 901.5 302.5)"/><text font-family="Source Han Sans CN,Source Han Sans CN_MSFontService,sans-serif" font-weight="400" font-size="83" transform="matrix(1 0 0 1 951.928 851)">VPN[2]</text><text font-family="Source Han Sans CN,Source Han Sans CN_MSFontService,sans-serif" font-weight="400" font-size="83" transform="matrix(1 0 0 1 951.928 1241)">VPN[1]</text><text font-family="Source Han Sans CN,Source Han Sans CN_MSFontService,sans-serif" font-weight="400" font-size="83" transform="matrix(1 0 0 1 951.928 1631)">VPN[0]</text><text font-family="Source Han Sans CN,Source Han Sans CN_MSFontService,sans-serif" font-weight="400" font-size="83" transform="matrix(1 0 0 1 960.751 2021)">offset</text><rect x="719.5" y="2277.5" width="364" height="104" stroke="#024059" stroke-width="6.875" stroke-miterlimit="8" fill="#0F9ED5"/><text fill="#FFFFFF" font-family="Source Han Sans CN,Source Han Sans CN_MSFontService,sans-serif" font-weight="400" font-size="83" transform="matrix(1 0 0 1 821.603 2358)">HPA</text><path d="M0 3.4375-82.4872 3.4375-79.0497 0-79.0497 168.916-82.4872 165.478 3069.92 165.478 3069.92 210.968 3063.04 210.968 3063.04 168.916 3066.48 172.353-85.9247 172.353-85.9247-3.4375 0-3.4375ZM3080.23 206.384 3066.48 233.884 3052.73 206.384Z" transform="matrix(-1 0 0 1 3967.98 2043.5)"/><text font-family="Source Han Sans CN,Source Han Sans CN_MSFontService,sans-serif" font-weight="400" font-size="83" transform="matrix(1 0 0 1 2395.11 2358)">第二阶段（</text><text font-family="Source Han Sans CN,Source Han Sans CN_MSFontService,sans-serif" font-weight="400" font-size="83" transform="matrix(1 0 0 1 2807.61 2358)">G </text><text font-family="Source Han Sans CN,Source Han Sans CN_MSFontService,sans-serif" font-weight="400" font-size="83" transform="matrix(1 0 0 1 2882.67 2358)">阶段）地址翻译</text><text font-family="Source Han Sans CN,Source Han Sans CN_MSFontService,sans-serif" font-weight="400" font-size="83" writing-mode="tb-rl" transform="matrix(1 2.95822e-25 -2.95822e-25 1 734.203 585)" x="36.188" y="9.96">第一阶段</text><text font-family="Source Han Sans CN,Source Han Sans CN_MSFontService,sans-serif" font-weight="400" font-size="83" writing-mode="tb-rl" transform="matrix(1 2.95822e-25 -2.95822e-25 1 734.203 934)" x="36.188" y="9.96">（</text><text font-family="Source Han Sans CN,Source Han Sans CN_MSFontService,sans-serif" font-weight="400" font-size="83" transform="matrix(6.12323e-17 1 -1 6.12323e-17 734.203 1016)">VS </text><text font-family="Source Han Sans CN,Source Han Sans CN_MSFontService,sans-serif" font-weight="400" font-size="83" writing-mode="tb-rl" transform="matrix(1 2.95822e-25 -2.95822e-25 1 734.203 1130)" x="36.188" y="9.96">阶段）地址翻译</text><path d="M1680.5 172.5 1680.5 2147.52" stroke="#000000" stroke-width="6.875" stroke-miterlimit="8" stroke-dasharray="27.5 20.625" fill="none" fill-rule="evenodd"/><path d="M667.5 2147.5 1681 2147.5" stroke="#000000" stroke-width="6.875" stroke-miterlimit="8" stroke-dasharray="27.5 20.625" fill="none" fill-rule="evenodd"/><path d="M1992.5 1936.06 2073.53 1936.06 2073.53 1942.94 1992.5 1942.94ZM2068.95 1925.75 2096.45 1939.5 2068.95 1953.25Z"/><text font-family="Source Han Sans CN,Source Han Sans CN_MSFontService,sans-serif" font-weight="400" font-size="83" transform="matrix(1 0 0 1 1738.25 1969)">hgatp</text><path d="M3655.5 805.167C3655.5 786.021 3671.02 770.5 3690.17 770.5L3932.83 770.5C3951.98 770.5 3967.5 786.021 3967.5 805.167L3967.5 943.833C3967.5 962.979 3951.98 978.5 3932.83 978.5L3690.17 978.5C3671.02 978.5 3655.5 962.979 3655.5 943.833Z" stroke="#000000" stroke-width="6.875" stroke-miterlimit="8" fill="#FFFFFF" fill-rule="evenodd"/><text font-family="Source Han Sans CN,Source Han Sans CN_MSFontService,sans-serif" font-weight="400" font-size="83" transform="matrix(1 0 0 1 3723.26 903)">G</text><text font-family="Source Han Sans CN,Source Han Sans CN_MSFontService,sans-serif" font-weight="400" font-size="83" transform="matrix(1 0 0 1 3779.98 903)">-</text><text font-family="Source Han Sans CN,Source Han Sans CN_MSFontService,sans-serif" font-weight="400" font-size="83" transform="matrix(1 0 0 1 3808.62 903)">L0</text><path d="M3655.5 1195C3655.5 1175.95 3670.95 1160.5 3690 1160.5L3933 1160.5C3952.05 1160.5 3967.5 1175.95 3967.5 1195L3967.5 1333C3967.5 1352.05 3952.05 1367.5 3933 1367.5L3690 1367.5C3670.95 1367.5 3655.5 1352.05 3655.5 1333Z" stroke="#000000" stroke-width="6.875" stroke-miterlimit="8" fill="#FFFFFF" fill-rule="evenodd"/><text font-family="Source Han Sans CN,Source Han Sans CN_MSFontService,sans-serif" font-weight="400" font-size="83" transform="matrix(1 0 0 1 3723.26 1293)">G</text><text font-family="Source Han Sans CN,Source Han Sans CN_MSFontService,sans-serif" font-weight="400" font-size="83" transform="matrix(1 0 0 1 3779.98 1293)">-</text><text font-family="Source Han Sans CN,Source Han Sans CN_MSFontService,sans-serif" font-weight="400" font-size="83" transform="matrix(1 0 0 1 3808.62 1293)">L0</text><path d="M3655.5 1584.17C3655.5 1565.02 3671.02 1549.5 3690.17 1549.5L3932.83 1549.5C3951.98 1549.5 3967.5 1565.02 3967.5 1584.17L3967.5 1722.83C3967.5 1741.98 3951.98 1757.5 3932.83 1757.5L3690.17 1757.5C3671.02 1757.5 3655.5 1741.98 3655.5 1722.83Z" stroke="#000000" stroke-width="6.875" stroke-miterlimit="8" fill="#FFFFFF" fill-rule="evenodd"/><text font-family="Source Han Sans CN,Source Han Sans CN_MSFontService,sans-serif" font-weight="400" font-size="83" transform="matrix(1 0 0 1 3723.26 1683)">G</text><text font-family="Source Han Sans CN,Source Han Sans CN_MSFontService,sans-serif" font-weight="400" font-size="83" transform="matrix(1 0 0 1 3779.98 1683)">-</text><text font-family="Source Han Sans CN,Source Han Sans CN_MSFontService,sans-serif" font-weight="400" font-size="83" transform="matrix(1 0 0 1 3808.62 1683)">L0</text><path d="M3655.5 1974.17C3655.5 1955.02 3671.02 1939.5 3690.17 1939.5L3932.83 1939.5C3951.98 1939.5 3967.5 1955.02 3967.5 1974.17L3967.5 2112.83C3967.5 2131.98 3951.98 2147.5 3932.83 2147.5L3690.17 2147.5C3671.02 2147.5 3655.5 2131.98 3655.5 2112.83Z" stroke="#000000" stroke-width="6.875" stroke-miterlimit="8" fill="#FFFFFF" fill-rule="evenodd"/><text font-family="Source Han Sans CN,Source Han Sans CN_MSFontService,sans-serif" font-weight="400" font-size="83" transform="matrix(1 0 0 1 3723.26 2073)">G</text><text font-family="Source Han Sans CN,Source Han Sans CN_MSFontService,sans-serif" font-weight="400" font-size="83" transform="matrix(1 0 0 1 3779.98 2073)">-</text><text font-family="Source Han Sans CN,Source Han Sans CN_MSFontService,sans-serif" font-weight="400" font-size="83" transform="matrix(1 0 0 1 3808.62 2073)">L0</text><path d="M1264.5 415.167C1264.5 396.021 1280.02 380.5 1299.17 380.5L1541.83 380.5C1560.98 380.5 1576.5 396.021 1576.5 415.167L1576.5 553.833C1576.5 572.979 1560.98 588.5 1541.83 588.5L1299.17 588.5C1280.02 588.5 1264.5 572.979 1264.5 553.833Z" stroke="#000000" stroke-width="6.875" stroke-miterlimit="8" fill="#FFFFFF" fill-rule="evenodd"/><text font-family="Source Han Sans CN,Source Han Sans CN_MSFontService,sans-serif" font-weight="400" font-size="83" transform="matrix(1 0 0 1 1312.23 513)">VS</text><text font-family="Source Han Sans CN,Source Han Sans CN_MSFontService,sans-serif" font-weight="400" font-size="83" transform="matrix(1 0 0 1 1409.37 513)">-</text><text font-family="Source Han Sans CN,Source Han Sans CN_MSFontService,sans-serif" font-weight="400" font-size="83" transform="matrix(1 0 0 1 1438.02 513)">L3</text><path d="M2096.5 415.167C2096.5 396.021 2112.02 380.5 2131.17 380.5L2373.83 380.5C2392.98 380.5 2408.5 396.021 2408.5 415.167L2408.5 553.833C2408.5 572.979 2392.98 588.5 2373.83 588.5L2131.17 588.5C2112.02 588.5 2096.5 572.979 2096.5 553.833Z" stroke="#000000" stroke-width="6.875" stroke-miterlimit="8" fill="#FFFFFF" fill-rule="evenodd"/><text font-family="Source Han Sans CN,Source Han Sans CN_MSFontService,sans-serif" font-weight="400" font-size="83" transform="matrix(1 0 0 1 2164.03 513)">G</text><text font-family="Source Han Sans CN,Source Han Sans CN_MSFontService,sans-serif" font-weight="400" font-size="83" transform="matrix(1 0 0 1 2220.75 513)">-</text><text font-family="Source Han Sans CN,Source Han Sans CN_MSFontService,sans-serif" font-weight="400" font-size="83" transform="matrix(1 0 0 1 2249.4 513)">L3</text><path d="M2616.5 415.167C2616.5 396.021 2632.02 380.5 2651.17 380.5L2893.83 380.5C2912.98 380.5 2928.5 396.021 2928.5 415.167L2928.5 553.833C2928.5 572.979 2912.98 588.5 2893.83 588.5L2651.17 588.5C2632.02 588.5 2616.5 572.979 2616.5 553.833Z" stroke="#000000" stroke-width="6.875" stroke-miterlimit="8" fill="#FFFFFF" fill-rule="evenodd"/><text font-family="Source Han Sans CN,Source Han Sans CN_MSFontService,sans-serif" font-weight="400" font-size="83" transform="matrix(1 0 0 1 2683.77 513)">G</text><text font-family="Source Han Sans CN,Source Han Sans CN_MSFontService,sans-serif" font-weight="400" font-size="83" transform="matrix(1 0 0 1 2740.49 513)">-</text><text font-family="Source Han Sans CN,Source Han Sans CN_MSFontService,sans-serif" font-weight="400" font-size="83" transform="matrix(1 0 0 1 2769.14 513)">L2</text><path d="M3136.5 415.168C3136.5 396.021 3152.02 380.5 3171.17 380.5L3412.83 380.5C3431.98 380.5 3447.5 396.021 3447.5 415.168L3447.5 553.833C3447.5 572.979 3431.98 588.5 3412.83 588.5L3171.17 588.5C3152.02 588.5 3136.5 572.979 3136.5 553.833Z" stroke="#000000" stroke-width="6.875" stroke-miterlimit="8" fill="#FFFFFF" fill-rule="evenodd"/><text font-family="Source Han Sans CN,Source Han Sans CN_MSFontService,sans-serif" font-weight="400" font-size="83" transform="matrix(1 0 0 1 3203.52 513)">G</text><text font-family="Source Han Sans CN,Source Han Sans CN_MSFontService,sans-serif" font-weight="400" font-size="83" transform="matrix(1 0 0 1 3260.24 513)">-</text><text font-family="Source Han Sans CN,Source Han Sans CN_MSFontService,sans-serif" font-weight="400" font-size="83" transform="matrix(1 0 0 1 3288.88 513)">L1</text><path d="M1576.5 481.062 2073.33 481.063 2073.33 487.938 1576.5 487.937ZM2068.74 470.75 2096.24 484.5 2068.74 498.25Z"/><path d="M2408.5 481.062 2593.48 481.063 2593.48 487.938 2408.5 487.937ZM2588.9 470.75 2616.4 484.5 2588.9 498.25Z"/><path d="M2928.5 481.062 3113.48 481.063 3113.48 487.938 2928.5 487.937ZM3108.9 470.75 3136.4 484.5 3108.9 498.25Z"/><path d="M0 3.4375-82.4877 3.4375-79.0502 0-79.0502 194.903-82.4877 191.466 2550.18 191.466 2550.18 262.942 2543.3 262.942 2543.3 194.903 2546.74 198.341-85.9252 198.341-85.9252-3.4375 0-3.4375ZM2560.49 258.359 2546.74 285.859 2532.99 258.359Z" transform="matrix(-1 0 0 1 3967.24 484.5)"/><path d="M1992.5 377.063 2073.53 377.063 2073.53 383.938 1992.5 383.938ZM2068.95 366.75 2096.45 380.5 2068.95 394.25Z"/><text font-family="Source Han Sans CN,Source Han Sans CN_MSFontService,sans-serif" font-weight="400" font-size="83" transform="matrix(1 0 0 1 1738.25 409)">hgatp</text><path d="M0-3.4375 185.347-3.4375 185.347 340.904 178.472 340.904 178.472 0 181.91 3.4375 0 3.4375ZM195.66 336.32 181.91 363.82 168.16 336.32Z" transform="matrix(1.83697e-16 1 1 -1.83697e-16 901.5 302.5)"/><text font-family="Source Han Sans CN,Source Han Sans CN_MSFontService,sans-serif" font-weight="400" font-size="83" transform="matrix(1 0 0 1 951.928 461)">VPN[3]</text><path d="M3655.5 415.167C3655.5 396.021 3671.02 380.5 3690.17 380.5L3932.83 380.5C3951.98 380.5 3967.5 396.021 3967.5 415.167L3967.5 553.833C3967.5 572.979 3951.98 588.5 3932.83 588.5L3690.17 588.5C3671.02 588.5 3655.5 572.979 3655.5 553.833Z" stroke="#000000" stroke-width="6.875" stroke-miterlimit="8" fill="#FFFFFF" fill-rule="evenodd"/><text font-family="Source Han Sans CN,Source Han Sans CN_MSFontService,sans-serif" font-weight="400" font-size="83" transform="matrix(1 0 0 1 3723.26 513)">G</text><text font-family="Source Han Sans CN,Source Han Sans CN_MSFontService,sans-serif" font-weight="400" font-size="83" transform="matrix(1 0 0 1 3779.98 513)">-</text><text font-family="Source Han Sans CN,Source Han Sans CN_MSFontService,sans-serif" font-weight="400" font-size="83" transform="matrix(1 0 0 1 3808.62 513)">L0</text><text font-family="Source Han Sans CN,Source Han Sans CN_MSFontService,sans-serif" font-weight="400" font-size="83" transform="matrix(1 0 0 1 2208.9 279)">用于支持</text><text font-family="Source Han Sans CN,Source Han Sans CN_MSFontService,sans-serif" font-weight="400" font-size="83" transform="matrix(1 0 0 1 2557.24 279)">VS </text><text font-family="Source Han Sans CN,Source Han Sans CN_MSFontService,sans-serif" font-weight="400" font-size="83" transform="matrix(1 0 0 1 2671.48 279)">阶段翻译的</text><text font-family="Source Han Sans CN,Source Han Sans CN_MSFontService,sans-serif" font-weight="400" font-size="83" transform="matrix(1 0 0 1 3102.31 279)">G </text><text font-family="Source Han Sans CN,Source Han Sans CN_MSFontService,sans-serif" font-weight="400" font-size="83" transform="matrix(1 0 0 1 3177.36 279)">阶段地址翻译</text><path d="M3447.5 481.062 3632.48 481.063 3632.48 487.938 3447.5 487.937ZM3627.9 470.75 3655.4 484.5 3627.9 498.25Z"/><path d="M3447.5 871.062 3632.48 871.063 3632.48 877.938 3447.5 877.938ZM3627.9 860.75 3655.4 874.5 3627.9 888.25Z"/><path d="M3447.5 1260.06 3632.48 1260.06 3632.48 1266.94 3447.5 1266.94ZM3627.9 1249.75 3655.4 1263.5 3627.9 1277.25Z"/><path d="M3447.5 1650.06 3632.48 1650.06 3632.48 1656.94 3447.5 1656.94ZM3627.9 1639.75 3655.4 1653.5 3627.9 1667.25Z"/><path d="M3447.5 2040.06 3632.48 2040.06 3632.48 2046.94 3447.5 2046.94ZM3627.9 2029.75 3655.4 2043.5 3627.9 2057.25Z"/></g></svg>