<svg width="406" height="106" xmlns="http://www.w3.org/2000/svg" xmlns:xlink="http://www.w3.org/1999/xlink" xml:space="preserve" overflow="hidden"><defs><clipPath id="clip0"><rect x="0" y="0" width="406" height="106"/></clipPath><clipPath id="clip1"><rect x="0" y="0" width="406" height="106"/></clipPath></defs><g clip-path="url(#clip0)"><g clip-path="url(#clip1)"><path d="M0 0 0 105.913" stroke="#888888" stroke-width="0.441304" stroke-linecap="butt" stroke-linejoin="miter" stroke-miterlimit="4" stroke-dasharray="0.882609 2.64783" stroke-opacity="1" fill="none" fill-rule="nonzero" transform="matrix(1 0 0 1.00082 106.354 0.441667)"/><path d="M35.3043 0 35.3043 105.913" stroke="#888888" stroke-width="0.441304" stroke-linecap="butt" stroke-linejoin="miter" stroke-miterlimit="4" stroke-dasharray="0.882609 2.64783" stroke-opacity="1" fill="none" fill-rule="nonzero" transform="matrix(1 0 0 1.00082 106.354 0.441667)"/><path d="M70.6087 0 70.6087 105.913" stroke="#888888" stroke-width="0.441304" stroke-linecap="butt" stroke-linejoin="miter" stroke-miterlimit="4" stroke-dasharray="0.882609 2.64783" stroke-opacity="1" fill="none" fill-rule="nonzero" transform="matrix(1 0 0 1.00082 106.354 0.441667)"/><path d="M105.913 0 105.913 105.913" stroke="#888888" stroke-width="0.441304" stroke-linecap="butt" stroke-linejoin="miter" stroke-miterlimit="4" stroke-dasharray="0.882609 2.64783" stroke-opacity="1" fill="none" fill-rule="nonzero" transform="matrix(1 0 0 1.00082 106.354 0.441667)"/><path d="M141.217 0 141.217 105.913" stroke="#888888" stroke-width="0.441304" stroke-linecap="butt" stroke-linejoin="miter" stroke-miterlimit="4" stroke-dasharray="0.882609 2.64783" stroke-opacity="1" fill="none" fill-rule="nonzero" transform="matrix(1 0 0 1.00082 106.354 0.441667)"/><path d="M176.522 0 176.522 105.913" stroke="#888888" stroke-width="0.441304" stroke-linecap="butt" stroke-linejoin="miter" stroke-miterlimit="4" stroke-dasharray="0.882609 2.64783" stroke-opacity="1" fill="none" fill-rule="nonzero" transform="matrix(1 0 0 1.00082 106.354 0.441667)"/><path d="M211.826 0 211.826 105.913" stroke="#888888" stroke-width="0.441304" stroke-linecap="butt" stroke-linejoin="miter" stroke-miterlimit="4" stroke-dasharray="0.882609 2.64783" stroke-opacity="1" fill="none" fill-rule="nonzero" transform="matrix(1 0 0 1.00082 106.354 0.441667)"/><path d="M247.13 0 247.13 105.913" stroke="#888888" stroke-width="0.441304" stroke-linecap="butt" stroke-linejoin="miter" stroke-miterlimit="4" stroke-dasharray="0.882609 2.64783" stroke-opacity="1" fill="none" fill-rule="nonzero" transform="matrix(1 0 0 1.00082 106.354 0.441667)"/><path d="M282.435 0 282.435 105.913" stroke="#888888" stroke-width="0.441304" stroke-linecap="butt" stroke-linejoin="miter" stroke-miterlimit="4" stroke-dasharray="0.882609 2.64783" stroke-opacity="1" fill="none" fill-rule="nonzero" transform="matrix(1 0 0 1.00082 106.354 0.441667)"/><text fill="#0041C4" fill-opacity="1" font-family="Helvetica,Helvetica_MSFontService,sans-serif" font-style="normal" font-variant="normal" font-weight="400" font-stretch="normal" font-size="15" text-anchor="start" direction="ltr" writing-mode="lr-tb" unicode-bidi="normal" text-decoration="none" transform="matrix(0.882609 0 0 0.883333 67.5196 18)">clock</text><path d="M0 17.6522 0 0 17.6522 0" stroke="#000000" stroke-width="0.882609" stroke-linecap="round" stroke-linejoin="miter" stroke-miterlimit="4" stroke-opacity="1" fill="none" fill-rule="nonzero" transform="matrix(1 0 0 1.00082 106.354 4.85833)"/><path d="M0 0 0 17.6522 17.6522 17.6522" stroke="#000000" stroke-width="0.882609" stroke-linecap="round" stroke-linejoin="miter" stroke-miterlimit="4" stroke-opacity="1" fill="none" fill-rule="nonzero" transform="matrix(1 0 0 1.00082 124.007 4.85833)"/><path d="M0 17.6522 0 0 17.6522 0" stroke="#000000" stroke-width="0.882609" stroke-linecap="round" stroke-linejoin="miter" stroke-miterlimit="4" stroke-opacity="1" fill="none" fill-rule="nonzero" transform="matrix(1 0 0 1.00082 141.659 4.85833)"/><path d="M0 0 0 17.6522 17.6522 17.6522" stroke="#000000" stroke-width="0.882609" stroke-linecap="round" stroke-linejoin="miter" stroke-miterlimit="4" stroke-opacity="1" fill="none" fill-rule="nonzero" transform="matrix(1 0 0 1.00082 159.311 4.85833)"/><path d="M0 17.6522 0 0 17.6522 0" stroke="#000000" stroke-width="0.882609" stroke-linecap="round" stroke-linejoin="miter" stroke-miterlimit="4" stroke-opacity="1" fill="none" fill-rule="nonzero" transform="matrix(1 0 0 1.00082 176.963 4.85833)"/><path d="M0 0 0 17.6522 17.6522 17.6522" stroke="#000000" stroke-width="0.882609" stroke-linecap="round" stroke-linejoin="miter" stroke-miterlimit="4" stroke-opacity="1" fill="none" fill-rule="nonzero" transform="matrix(1 0 0 1.00082 194.615 4.85833)"/><path d="M0 17.6522 0 0 17.6522 0" stroke="#000000" stroke-width="0.882609" stroke-linecap="round" stroke-linejoin="miter" stroke-miterlimit="4" stroke-opacity="1" fill="none" fill-rule="nonzero" transform="matrix(1 0 0 1.00082 212.267 4.85833)"/><path d="M0 0 0 17.6522 17.6522 17.6522" stroke="#000000" stroke-width="0.882609" stroke-linecap="round" stroke-linejoin="miter" stroke-miterlimit="4" stroke-opacity="1" fill="none" fill-rule="nonzero" transform="matrix(1 0 0 1.00082 229.92 4.85833)"/><path d="M0 17.6522 0 0 17.6522 0" stroke="#000000" stroke-width="0.882609" stroke-linecap="round" stroke-linejoin="miter" stroke-miterlimit="4" stroke-opacity="1" fill="none" fill-rule="nonzero" transform="matrix(1 0 0 1.00082 247.572 4.85833)"/><path d="M0 0 0 17.6522 17.6522 17.6522" stroke="#000000" stroke-width="0.882609" stroke-linecap="round" stroke-linejoin="miter" stroke-miterlimit="4" stroke-opacity="1" fill="none" fill-rule="nonzero" transform="matrix(1 0 0 1.00082 265.224 4.85833)"/><path d="M0 17.6522 0 0 17.6522 0" stroke="#000000" stroke-width="0.882609" stroke-linecap="round" stroke-linejoin="miter" stroke-miterlimit="4" stroke-opacity="1" fill="none" fill-rule="nonzero" transform="matrix(1 0 0 1.00082 282.876 4.85833)"/><path d="M0 0 0 17.6522 17.6522 17.6522" stroke="#000000" stroke-width="0.882609" stroke-linecap="round" stroke-linejoin="miter" stroke-miterlimit="4" stroke-opacity="1" fill="none" fill-rule="nonzero" transform="matrix(1 0 0 1.00082 300.528 4.85833)"/><path d="M0 17.6522 0 0 17.6522 0" stroke="#000000" stroke-width="0.882609" stroke-linecap="round" stroke-linejoin="miter" stroke-miterlimit="4" stroke-opacity="1" fill="none" fill-rule="nonzero" transform="matrix(1 0 0 1.00082 318.18 4.85833)"/><path d="M0 0 0 17.6522 17.6522 17.6522" stroke="#000000" stroke-width="0.882609" stroke-linecap="round" stroke-linejoin="miter" stroke-miterlimit="4" stroke-opacity="1" fill="none" fill-rule="nonzero" transform="matrix(1 0 0 1.00082 335.833 4.85833)"/><path d="M0 17.6522 0 0 17.6522 0" stroke="#000000" stroke-width="0.882609" stroke-linecap="round" stroke-linejoin="miter" stroke-miterlimit="4" stroke-opacity="1" fill="none" fill-rule="nonzero" transform="matrix(1 0 0 1.00082 353.485 4.85833)"/><path d="M0 0 0 17.6522 17.6522 17.6522" stroke="#000000" stroke-width="0.882609" stroke-linecap="round" stroke-linejoin="miter" stroke-miterlimit="4" stroke-opacity="1" fill="none" fill-rule="nonzero" transform="matrix(1 0 0 1.00082 371.137 4.85833)"/><text fill="#0041C4" fill-opacity="1" font-family="Helvetica,Helvetica_MSFontService,sans-serif" font-style="normal" font-variant="normal" font-weight="400" font-stretch="normal" font-size="15" text-anchor="start" direction="ltr" writing-mode="lr-tb" unicode-bidi="normal" text-decoration="none" transform="matrix(0.882609 0 0 0.883333 16.3283 45)">io_in_*_ready</text><path d="M0 17.6522 17.6522 17.6522" stroke="#000000" stroke-width="0.882609" stroke-linecap="round" stroke-linejoin="miter" stroke-miterlimit="4" stroke-opacity="1" fill="none" fill-rule="nonzero" transform="matrix(1 0 0 1.00082 106.354 31.3583)"/><path d="M0 17.6522 17.6522 17.6522" stroke="#000000" stroke-width="0.882609" stroke-linecap="round" stroke-linejoin="miter" stroke-miterlimit="4" stroke-opacity="1" fill="none" fill-rule="nonzero" transform="matrix(1 0 0 1.00082 124.007 31.3583)"/><path d="M0 17.6522 2.64783 17.6522 7.94348 0 17.6522 0" stroke="#000000" stroke-width="0.882609" stroke-linecap="round" stroke-linejoin="miter" stroke-miterlimit="4" stroke-opacity="1" fill="none" fill-rule="nonzero" transform="matrix(1 0 0 1.00082 141.659 31.3583)"/><path d="M0 0 17.6522 0" stroke="#000000" stroke-width="0.882609" stroke-linecap="round" stroke-linejoin="miter" stroke-miterlimit="4" stroke-opacity="1" fill="none" fill-rule="nonzero" transform="matrix(1 0 0 1.00082 159.311 31.3583)"/><path d="M0 0 17.6522 0" stroke="#000000" stroke-width="0.882609" stroke-linecap="round" stroke-linejoin="miter" stroke-miterlimit="4" stroke-opacity="1" fill="none" fill-rule="nonzero" transform="matrix(1 0 0 1.00082 176.963 31.3583)"/><path d="M0 0 17.6522 0" stroke="#000000" stroke-width="0.882609" stroke-linecap="round" stroke-linejoin="miter" stroke-miterlimit="4" stroke-opacity="1" fill="none" fill-rule="nonzero" transform="matrix(1 0 0 1.00082 194.615 31.3583)"/><path d="M0 0 17.6522 0" stroke="#000000" stroke-width="0.882609" stroke-linecap="round" stroke-linejoin="miter" stroke-miterlimit="4" stroke-opacity="1" fill="none" fill-rule="nonzero" transform="matrix(1 0 0 1.00082 212.267 31.3583)"/><path d="M0 0 17.6522 0" stroke="#000000" stroke-width="0.882609" stroke-linecap="round" stroke-linejoin="miter" stroke-miterlimit="4" stroke-opacity="1" fill="none" fill-rule="nonzero" transform="matrix(1 0 0 1.00082 229.92 31.3583)"/><path d="M0 0 2.64783 0 7.94348 17.6522 17.6522 17.6522" stroke="#000000" stroke-width="0.882609" stroke-linecap="round" stroke-linejoin="miter" stroke-miterlimit="4" stroke-opacity="1" fill="none" fill-rule="nonzero" transform="matrix(1 0 0 1.00082 247.572 31.3583)"/><path d="M0 17.6522 17.6522 17.6522" stroke="#000000" stroke-width="0.882609" stroke-linecap="round" stroke-linejoin="miter" stroke-miterlimit="4" stroke-opacity="1" fill="none" fill-rule="nonzero" transform="matrix(1 0 0 1.00082 265.224 31.3583)"/><path d="M0 17.6522 17.6522 17.6522" stroke="#000000" stroke-width="0.882609" stroke-linecap="round" stroke-linejoin="miter" stroke-miterlimit="4" stroke-opacity="1" fill="none" fill-rule="nonzero" transform="matrix(1 0 0 1.00082 282.876 31.3583)"/><path d="M0 17.6522 17.6522 17.6522" stroke="#000000" stroke-width="0.882609" stroke-linecap="round" stroke-linejoin="miter" stroke-miterlimit="4" stroke-opacity="1" fill="none" fill-rule="nonzero" transform="matrix(1 0 0 1.00082 300.528 31.3583)"/><path d="M0 17.6522 2.64783 17.6522 7.94348 0 17.6522 0" stroke="#000000" stroke-width="0.882609" stroke-linecap="round" stroke-linejoin="miter" stroke-miterlimit="4" stroke-opacity="1" fill="none" fill-rule="nonzero" transform="matrix(1 0 0 1.00082 318.18 31.3583)"/><path d="M0 0 17.6522 0" stroke="#000000" stroke-width="0.882609" stroke-linecap="round" stroke-linejoin="miter" stroke-miterlimit="4" stroke-opacity="1" fill="none" fill-rule="nonzero" transform="matrix(1 0 0 1.00082 335.833 31.3583)"/><path d="M0 0 2.64783 0 7.94348 17.6522 17.6522 17.6522" stroke="#000000" stroke-width="0.882609" stroke-linecap="round" stroke-linejoin="miter" stroke-miterlimit="4" stroke-opacity="1" fill="none" fill-rule="nonzero" transform="matrix(1 0 0 1.00082 353.485 31.3583)"/><path d="M0 17.6522 17.6522 17.6522" stroke="#000000" stroke-width="0.882609" stroke-linecap="round" stroke-linejoin="miter" stroke-miterlimit="4" stroke-opacity="1" fill="none" fill-rule="nonzero" transform="matrix(1 0 0 1.00082 371.137 31.3583)"/><text fill="#0041C4" fill-opacity="1" font-family="Helvetica,Helvetica_MSFontService,sans-serif" font-style="normal" font-variant="normal" font-weight="400" font-stretch="normal" font-size="15" text-anchor="start" direction="ltr" writing-mode="lr-tb" unicode-bidi="normal" text-decoration="none" transform="matrix(0.882609 0 0 0.883333 22.5065 71)">io_in_*_valid</text><path d="M0 17.6522 17.6522 17.6522" stroke="#000000" stroke-width="0.882609" stroke-linecap="round" stroke-linejoin="miter" stroke-miterlimit="4" stroke-opacity="1" fill="none" fill-rule="nonzero" transform="matrix(1 0 0 1.00082 106.354 57.8583)"/><path d="M0 17.6522 17.6522 17.6522" stroke="#000000" stroke-width="0.882609" stroke-linecap="round" stroke-linejoin="miter" stroke-miterlimit="4" stroke-opacity="1" fill="none" fill-rule="nonzero" transform="matrix(1 0 0 1.00082 124.007 57.8583)"/><path d="M0 17.6522 17.6522 17.6522" stroke="#000000" stroke-width="0.882609" stroke-linecap="round" stroke-linejoin="miter" stroke-miterlimit="4" stroke-opacity="1" fill="none" fill-rule="nonzero" transform="matrix(1 0 0 1.00082 141.659 57.8583)"/><path d="M0 17.6522 17.6522 17.6522" stroke="#000000" stroke-width="0.882609" stroke-linecap="round" stroke-linejoin="miter" stroke-miterlimit="4" stroke-opacity="1" fill="none" fill-rule="nonzero" transform="matrix(1 0 0 1.00082 159.311 57.8583)"/><path d="M0 17.6522 2.64783 17.6522 7.94348 0 17.6522 0" stroke="#000000" stroke-width="0.882609" stroke-linecap="round" stroke-linejoin="miter" stroke-miterlimit="4" stroke-opacity="1" fill="none" fill-rule="nonzero" transform="matrix(1 0 0 1.00082 176.963 57.8583)"/><path d="M0 0 17.6522 0" stroke="#000000" stroke-width="0.882609" stroke-linecap="round" stroke-linejoin="miter" stroke-miterlimit="4" stroke-opacity="1" fill="none" fill-rule="nonzero" transform="matrix(1 0 0 1.00082 194.615 57.8583)"/><path d="M0 0 17.6522 0" stroke="#000000" stroke-width="0.882609" stroke-linecap="round" stroke-linejoin="miter" stroke-miterlimit="4" stroke-opacity="1" fill="none" fill-rule="nonzero" transform="matrix(1 0 0 1.00082 212.267 57.8583)"/><path d="M0 0 17.6522 0" stroke="#000000" stroke-width="0.882609" stroke-linecap="round" stroke-linejoin="miter" stroke-miterlimit="4" stroke-opacity="1" fill="none" fill-rule="nonzero" transform="matrix(1 0 0 1.00082 229.92 57.8583)"/><path d="M0 0 17.6522 0" stroke="#000000" stroke-width="0.882609" stroke-linecap="round" stroke-linejoin="miter" stroke-miterlimit="4" stroke-opacity="1" fill="none" fill-rule="nonzero" transform="matrix(1 0 0 1.00082 247.572 57.8583)"/><path d="M0 0 17.6522 0" stroke="#000000" stroke-width="0.882609" stroke-linecap="round" stroke-linejoin="miter" stroke-miterlimit="4" stroke-opacity="1" fill="none" fill-rule="nonzero" transform="matrix(1 0 0 1.00082 265.224 57.8583)"/><path d="M0 0 17.6522 0" stroke="#000000" stroke-width="0.882609" stroke-linecap="round" stroke-linejoin="miter" stroke-miterlimit="4" stroke-opacity="1" fill="none" fill-rule="nonzero" transform="matrix(1 0 0 1.00082 282.876 57.8583)"/><path d="M0 0 17.6522 0" stroke="#000000" stroke-width="0.882609" stroke-linecap="round" stroke-linejoin="miter" stroke-miterlimit="4" stroke-opacity="1" fill="none" fill-rule="nonzero" transform="matrix(1 0 0 1.00082 300.528 57.8583)"/><path d="M0 0 17.6522 0" stroke="#000000" stroke-width="0.882609" stroke-linecap="round" stroke-linejoin="miter" stroke-miterlimit="4" stroke-opacity="1" fill="none" fill-rule="nonzero" transform="matrix(1 0 0 1.00082 318.18 57.8583)"/><path d="M0 0 17.6522 0" stroke="#000000" stroke-width="0.882609" stroke-linecap="round" stroke-linejoin="miter" stroke-miterlimit="4" stroke-opacity="1" fill="none" fill-rule="nonzero" transform="matrix(1 0 0 1.00082 335.833 57.8583)"/><path d="M0 0 2.64783 0 7.94348 17.6522 17.6522 17.6522" stroke="#000000" stroke-width="0.882609" stroke-linecap="round" stroke-linejoin="miter" stroke-miterlimit="4" stroke-opacity="1" fill="none" fill-rule="nonzero" transform="matrix(1 0 0 1.00082 353.485 57.8583)"/><path d="M0 17.6522 17.6522 17.6522" stroke="#000000" stroke-width="0.882609" stroke-linecap="round" stroke-linejoin="miter" stroke-miterlimit="4" stroke-opacity="1" fill="none" fill-rule="nonzero" transform="matrix(1 0 0 1.00082 371.137 57.8583)"/><text fill="#0041C4" fill-opacity="1" font-family="Helvetica,Helvetica_MSFontService,sans-serif" font-style="normal" font-variant="normal" font-weight="400" font-stretch="normal" font-size="15" text-anchor="start" direction="ltr" writing-mode="lr-tb" unicode-bidi="normal" text-decoration="none" transform="matrix(0.882609 0 0 0.883333 16.3283 98)">io_in_*_bits_*</text><path d="M0 17.6522 17.6522 17.6522" stroke="#000000" stroke-width="0.882609" stroke-linecap="round" stroke-linejoin="miter" stroke-miterlimit="4" stroke-opacity="1" fill="none" fill-rule="nonzero" transform="matrix(1 0 0 1.00082 106.354 84.3583)"/><path d="M0 0 17.6522 0" stroke="#000000" stroke-width="0.882609" stroke-linecap="round" stroke-linejoin="miter" stroke-miterlimit="4" stroke-opacity="1" fill="none" fill-rule="nonzero" transform="matrix(1 0 0 1.00082 106.354 84.3583)"/><path d="M0 4.41304 4.41304 0" stroke="#000000" stroke-width="0.441304" stroke-linecap="round" stroke-linejoin="miter" stroke-miterlimit="4" stroke-opacity="1" fill="none" fill-rule="nonzero" transform="matrix(1 0 0 1.00082 106.354 84.3583)"/><path d="M0 8.82609 8.82609 0" stroke="#000000" stroke-width="0.441304" stroke-linecap="round" stroke-linejoin="miter" stroke-miterlimit="4" stroke-opacity="1" fill="none" fill-rule="nonzero" transform="matrix(1 0 0 1.00082 106.354 84.3583)"/><path d="M0 13.2391 13.2391 0" stroke="#000000" stroke-width="0.441304" stroke-linecap="round" stroke-linejoin="miter" stroke-miterlimit="4" stroke-opacity="1" fill="none" fill-rule="nonzero" transform="matrix(1 0 0 1.00082 106.354 84.3583)"/><path d="M0 17.6522 17.6522 0" stroke="#000000" stroke-width="0.441304" stroke-linecap="round" stroke-linejoin="miter" stroke-miterlimit="4" stroke-opacity="1" fill="none" fill-rule="nonzero" transform="matrix(1 0 0 1.00082 106.354 84.3583)"/><path d="M4.41304 17.6522 17.6522 4.41304" stroke="#000000" stroke-width="0.441304" stroke-linecap="round" stroke-linejoin="miter" stroke-miterlimit="4" stroke-opacity="1" fill="none" fill-rule="nonzero" transform="matrix(1 0 0 1.00082 106.354 84.3583)"/><path d="M8.82609 17.6522 17.6522 8.82609" stroke="#000000" stroke-width="0.441304" stroke-linecap="round" stroke-linejoin="miter" stroke-miterlimit="4" stroke-opacity="1" fill="none" fill-rule="nonzero" transform="matrix(1 0 0 1.00082 106.354 84.3583)"/><path d="M13.2391 17.6522 17.6522 13.2391" stroke="#000000" stroke-width="0.441304" stroke-linecap="round" stroke-linejoin="miter" stroke-miterlimit="4" stroke-opacity="1" fill="none" fill-rule="nonzero" transform="matrix(1 0 0 1.00082 106.354 84.3583)"/><path d="M0 17.6522 17.6522 17.6522" stroke="#000000" stroke-width="0.882609" stroke-linecap="round" stroke-linejoin="miter" stroke-miterlimit="4" stroke-opacity="1" fill="none" fill-rule="nonzero" transform="matrix(1 0 0 1.00082 124.007 84.3583)"/><path d="M0 0 17.6522 0" stroke="#000000" stroke-width="0.882609" stroke-linecap="round" stroke-linejoin="miter" stroke-miterlimit="4" stroke-opacity="1" fill="none" fill-rule="nonzero" transform="matrix(1 0 0 1.00082 124.007 84.3583)"/><path d="M0 4.41304 4.41304 0" stroke="#000000" stroke-width="0.441304" stroke-linecap="round" stroke-linejoin="miter" stroke-miterlimit="4" stroke-opacity="1" fill="none" fill-rule="nonzero" transform="matrix(1 0 0 1.00082 124.007 84.3583)"/><path d="M0 8.82609 8.82609 0" stroke="#000000" stroke-width="0.441304" stroke-linecap="round" stroke-linejoin="miter" stroke-miterlimit="4" stroke-opacity="1" fill="none" fill-rule="nonzero" transform="matrix(1 0 0 1.00082 124.007 84.3583)"/><path d="M0 13.2391 13.2391 0" stroke="#000000" stroke-width="0.441304" stroke-linecap="round" stroke-linejoin="miter" stroke-miterlimit="4" stroke-opacity="1" fill="none" fill-rule="nonzero" transform="matrix(1 0 0 1.00082 124.007 84.3583)"/><path d="M0 17.6522 17.6522 0" stroke="#000000" stroke-width="0.441304" stroke-linecap="round" stroke-linejoin="miter" stroke-miterlimit="4" stroke-opacity="1" fill="none" fill-rule="nonzero" transform="matrix(1 0 0 1.00082 124.007 84.3583)"/><path d="M4.41304 17.6522 17.6522 4.41304" stroke="#000000" stroke-width="0.441304" stroke-linecap="round" stroke-linejoin="miter" stroke-miterlimit="4" stroke-opacity="1" fill="none" fill-rule="nonzero" transform="matrix(1 0 0 1.00082 124.007 84.3583)"/><path d="M8.82609 17.6522 17.6522 8.82609" stroke="#000000" stroke-width="0.441304" stroke-linecap="round" stroke-linejoin="miter" stroke-miterlimit="4" stroke-opacity="1" fill="none" fill-rule="nonzero" transform="matrix(1 0 0 1.00082 124.007 84.3583)"/><path d="M13.2391 17.6522 17.6522 13.2391" stroke="#000000" stroke-width="0.441304" stroke-linecap="round" stroke-linejoin="miter" stroke-miterlimit="4" stroke-opacity="1" fill="none" fill-rule="nonzero" transform="matrix(1 0 0 1.00082 124.007 84.3583)"/><path d="M0 17.6522 17.6522 17.6522" stroke="#000000" stroke-width="0.882609" stroke-linecap="round" stroke-linejoin="miter" stroke-miterlimit="4" stroke-opacity="1" fill="none" fill-rule="nonzero" transform="matrix(1 0 0 1.00082 141.659 84.3583)"/><path d="M0 0 17.6522 0" stroke="#000000" stroke-width="0.882609" stroke-linecap="round" stroke-linejoin="miter" stroke-miterlimit="4" stroke-opacity="1" fill="none" fill-rule="nonzero" transform="matrix(1 0 0 1.00082 141.659 84.3583)"/><path d="M0 4.41304 4.41304 0" stroke="#000000" stroke-width="0.441304" stroke-linecap="round" stroke-linejoin="miter" stroke-miterlimit="4" stroke-opacity="1" fill="none" fill-rule="nonzero" transform="matrix(1 0 0 1.00082 141.659 84.3583)"/><path d="M0 8.82609 8.82609 0" stroke="#000000" stroke-width="0.441304" stroke-linecap="round" stroke-linejoin="miter" stroke-miterlimit="4" stroke-opacity="1" fill="none" fill-rule="nonzero" transform="matrix(1 0 0 1.00082 141.659 84.3583)"/><path d="M0 13.2391 13.2391 0" stroke="#000000" stroke-width="0.441304" stroke-linecap="round" stroke-linejoin="miter" stroke-miterlimit="4" stroke-opacity="1" fill="none" fill-rule="nonzero" transform="matrix(1 0 0 1.00082 141.659 84.3583)"/><path d="M0 17.6522 17.6522 0" stroke="#000000" stroke-width="0.441304" stroke-linecap="round" stroke-linejoin="miter" stroke-miterlimit="4" stroke-opacity="1" fill="none" fill-rule="nonzero" transform="matrix(1 0 0 1.00082 141.659 84.3583)"/><path d="M4.41304 17.6522 17.6522 4.41304" stroke="#000000" stroke-width="0.441304" stroke-linecap="round" stroke-linejoin="miter" stroke-miterlimit="4" stroke-opacity="1" fill="none" fill-rule="nonzero" transform="matrix(1 0 0 1.00082 141.659 84.3583)"/><path d="M8.82609 17.6522 17.6522 8.82609" stroke="#000000" stroke-width="0.441304" stroke-linecap="round" stroke-linejoin="miter" stroke-miterlimit="4" stroke-opacity="1" fill="none" fill-rule="nonzero" transform="matrix(1 0 0 1.00082 141.659 84.3583)"/><path d="M13.2391 17.6522 17.6522 13.2391" stroke="#000000" stroke-width="0.441304" stroke-linecap="round" stroke-linejoin="miter" stroke-miterlimit="4" stroke-opacity="1" fill="none" fill-rule="nonzero" transform="matrix(1 0 0 1.00082 141.659 84.3583)"/><path d="M0 17.6522 17.6522 17.6522" stroke="#000000" stroke-width="0.882609" stroke-linecap="round" stroke-linejoin="miter" stroke-miterlimit="4" stroke-opacity="1" fill="none" fill-rule="nonzero" transform="matrix(1 0 0 1.00082 159.311 84.3583)"/><path d="M0 0 17.6522 0" stroke="#000000" stroke-width="0.882609" stroke-linecap="round" stroke-linejoin="miter" stroke-miterlimit="4" stroke-opacity="1" fill="none" fill-rule="nonzero" transform="matrix(1 0 0 1.00082 159.311 84.3583)"/><path d="M0 4.41304 4.41304 0" stroke="#000000" stroke-width="0.441304" stroke-linecap="round" stroke-linejoin="miter" stroke-miterlimit="4" stroke-opacity="1" fill="none" fill-rule="nonzero" transform="matrix(1 0 0 1.00082 159.311 84.3583)"/><path d="M0 8.82609 8.82609 0" stroke="#000000" stroke-width="0.441304" stroke-linecap="round" stroke-linejoin="miter" stroke-miterlimit="4" stroke-opacity="1" fill="none" fill-rule="nonzero" transform="matrix(1 0 0 1.00082 159.311 84.3583)"/><path d="M0 13.2391 13.2391 0" stroke="#000000" stroke-width="0.441304" stroke-linecap="round" stroke-linejoin="miter" stroke-miterlimit="4" stroke-opacity="1" fill="none" fill-rule="nonzero" transform="matrix(1 0 0 1.00082 159.311 84.3583)"/><path d="M0 17.6522 17.6522 0" stroke="#000000" stroke-width="0.441304" stroke-linecap="round" stroke-linejoin="miter" stroke-miterlimit="4" stroke-opacity="1" fill="none" fill-rule="nonzero" transform="matrix(1 0 0 1.00082 159.311 84.3583)"/><path d="M4.41304 17.6522 17.6522 4.41304" stroke="#000000" stroke-width="0.441304" stroke-linecap="round" stroke-linejoin="miter" stroke-miterlimit="4" stroke-opacity="1" fill="none" fill-rule="nonzero" transform="matrix(1 0 0 1.00082 159.311 84.3583)"/><path d="M8.82609 17.6522 17.6522 8.82609" stroke="#000000" stroke-width="0.441304" stroke-linecap="round" stroke-linejoin="miter" stroke-miterlimit="4" stroke-opacity="1" fill="none" fill-rule="nonzero" transform="matrix(1 0 0 1.00082 159.311 84.3583)"/><path d="M13.2391 17.6522 17.6522 13.2391" stroke="#000000" stroke-width="0.441304" stroke-linecap="round" stroke-linejoin="miter" stroke-miterlimit="4" stroke-opacity="1" fill="none" fill-rule="nonzero" transform="matrix(1 0 0 1.00082 159.311 84.3583)"/><path d="M7.94348 0 17.6522 0 17.6522 17.6522 7.94348 17.6522 5.29565 8.82609Z" fill="#FFFFFF" fill-rule="nonzero" fill-opacity="1" transform="matrix(1 0 0 1.00082 176.963 84.3583)"/><path d="M0 17.6522 2.64783 17.6522 7.94348 0 17.6522 0" stroke="#000000" stroke-width="0.882609" stroke-linecap="round" stroke-linejoin="miter" stroke-miterlimit="4" stroke-opacity="1" fill="none" fill-rule="nonzero" transform="matrix(1 0 0 1.00082 176.963 84.3583)"/><path d="M0 0 2.64783 0 7.94348 17.6522 17.6522 17.6522" stroke="#000000" stroke-width="0.882609" stroke-linecap="round" stroke-linejoin="miter" stroke-miterlimit="4" stroke-opacity="1" fill="none" fill-rule="nonzero" transform="matrix(1 0 0 1.00082 176.963 84.3583)"/><path d="M0 4.41304 3.08913 1.32391" stroke="#000000" stroke-width="0.441304" stroke-linecap="round" stroke-linejoin="miter" stroke-miterlimit="4" stroke-opacity="1" fill="none" fill-rule="nonzero" transform="matrix(1 0 0 1.00082 176.963 84.3583)"/><path d="M0 8.82609 3.97174 4.85435" stroke="#000000" stroke-width="0.441304" stroke-linecap="round" stroke-linejoin="miter" stroke-miterlimit="4" stroke-opacity="1" fill="none" fill-rule="nonzero" transform="matrix(1 0 0 1.00082 176.963 84.3583)"/><path d="M0 13.2391 5.29565 7.94348" stroke="#000000" stroke-width="0.441304" stroke-linecap="round" stroke-linejoin="miter" stroke-miterlimit="4" stroke-opacity="1" fill="none" fill-rule="nonzero" transform="matrix(1 0 0 1.00082 176.963 84.3583)"/><path d="M0 17.6522 3.53043 14.1217" stroke="#000000" stroke-width="0.441304" stroke-linecap="round" stroke-linejoin="miter" stroke-miterlimit="4" stroke-opacity="1" fill="none" fill-rule="nonzero" transform="matrix(1 0 0 1.00082 176.963 84.3583)"/><path d="M17.6522 17.6522 0 17.6522 0 0 17.6522 0" fill="#FFFFFF" fill-rule="nonzero" fill-opacity="1" transform="matrix(1 0 0 1.00082 194.615 84.3583)"/><path d="M0 17.6522 17.6522 17.6522" stroke="#000000" stroke-width="0.882609" stroke-linecap="round" stroke-linejoin="miter" stroke-miterlimit="4" stroke-opacity="1" fill="none" fill-rule="nonzero" transform="matrix(1 0 0 1.00082 194.615 84.3583)"/><path d="M0 0 17.6522 0" stroke="#000000" stroke-width="0.882609" stroke-linecap="round" stroke-linejoin="miter" stroke-miterlimit="4" stroke-opacity="1" fill="none" fill-rule="nonzero" transform="matrix(1 0 0 1.00082 194.615 84.3583)"/><path d="M7.94348 0 17.6522 0 17.6522 17.6522 7.94348 17.6522 5.29565 8.82609Z" fill="#FFFFFF" fill-rule="nonzero" fill-opacity="1" transform="matrix(1 0 0 1.00082 212.267 84.3583)"/><path d="M2.64783 0 0 0 0 17.6522 2.64783 17.6522 5.29565 8.82609Z" fill="#FFFFFF" fill-rule="nonzero" fill-opacity="1" transform="matrix(1 0 0 1.00082 212.267 84.3583)"/><path d="M0 0 2.64783 0 7.94348 17.6522 17.6522 17.6522" stroke="#000000" stroke-width="0.882609" stroke-linecap="round" stroke-linejoin="miter" stroke-miterlimit="4" stroke-opacity="1" fill="none" fill-rule="nonzero" transform="matrix(1 0 0 1.00082 212.267 84.3583)"/><path d="M0 17.6522 2.64783 17.6522 7.94348 0 17.6522 0" stroke="#000000" stroke-width="0.882609" stroke-linecap="round" stroke-linejoin="miter" stroke-miterlimit="4" stroke-opacity="1" fill="none" fill-rule="nonzero" transform="matrix(1 0 0 1.00082 212.267 84.3583)"/><path d="M17.6522 17.6522 0 17.6522 0 0 17.6522 0" fill="#FFFFFF" fill-rule="nonzero" fill-opacity="1" transform="matrix(1 0 0 1.00082 229.92 84.3583)"/><path d="M0 17.6522 17.6522 17.6522" stroke="#000000" stroke-width="0.882609" stroke-linecap="round" stroke-linejoin="miter" stroke-miterlimit="4" stroke-opacity="1" fill="none" fill-rule="nonzero" transform="matrix(1 0 0 1.00082 229.92 84.3583)"/><path d="M0 0 17.6522 0" stroke="#000000" stroke-width="0.882609" stroke-linecap="round" stroke-linejoin="miter" stroke-miterlimit="4" stroke-opacity="1" fill="none" fill-rule="nonzero" transform="matrix(1 0 0 1.00082 229.92 84.3583)"/><path d="M7.94348 0 17.6522 0 17.6522 17.6522 7.94348 17.6522 5.29565 8.82609Z" fill="#FFFFFF" fill-rule="nonzero" fill-opacity="1" transform="matrix(1 0 0 1.00082 247.572 84.3583)"/><path d="M2.64783 0 0 0 0 17.6522 2.64783 17.6522 5.29565 8.82609Z" fill="#FFFFFF" fill-rule="nonzero" fill-opacity="1" transform="matrix(1 0 0 1.00082 247.572 84.3583)"/><path d="M0 0 2.64783 0 7.94348 17.6522 17.6522 17.6522" stroke="#000000" stroke-width="0.882609" stroke-linecap="round" stroke-linejoin="miter" stroke-miterlimit="4" stroke-opacity="1" fill="none" fill-rule="nonzero" transform="matrix(1 0 0 1.00082 247.572 84.3583)"/><path d="M0 17.6522 2.64783 17.6522 7.94348 0 17.6522 0" stroke="#000000" stroke-width="0.882609" stroke-linecap="round" stroke-linejoin="miter" stroke-miterlimit="4" stroke-opacity="1" fill="none" fill-rule="nonzero" transform="matrix(1 0 0 1.00082 247.572 84.3583)"/><path d="M17.6522 17.6522 0 17.6522 0 0 17.6522 0" fill="#FFFFFF" fill-rule="nonzero" fill-opacity="1" transform="matrix(1 0 0 1.00082 265.224 84.3583)"/><path d="M0 17.6522 17.6522 17.6522" stroke="#000000" stroke-width="0.882609" stroke-linecap="round" stroke-linejoin="miter" stroke-miterlimit="4" stroke-opacity="1" fill="none" fill-rule="nonzero" transform="matrix(1 0 0 1.00082 265.224 84.3583)"/><path d="M0 0 17.6522 0" stroke="#000000" stroke-width="0.882609" stroke-linecap="round" stroke-linejoin="miter" stroke-miterlimit="4" stroke-opacity="1" fill="none" fill-rule="nonzero" transform="matrix(1 0 0 1.00082 265.224 84.3583)"/><path d="M17.6522 17.6522 0 17.6522 0 0 17.6522 0" fill="#FFFFFF" fill-rule="nonzero" fill-opacity="1" transform="matrix(1 0 0 1.00082 282.876 84.3583)"/><path d="M0 17.6522 17.6522 17.6522" stroke="#000000" stroke-width="0.882609" stroke-linecap="round" stroke-linejoin="miter" stroke-miterlimit="4" stroke-opacity="1" fill="none" fill-rule="nonzero" transform="matrix(1 0 0 1.00082 282.876 84.3583)"/><path d="M0 0 17.6522 0" stroke="#000000" stroke-width="0.882609" stroke-linecap="round" stroke-linejoin="miter" stroke-miterlimit="4" stroke-opacity="1" fill="none" fill-rule="nonzero" transform="matrix(1 0 0 1.00082 282.876 84.3583)"/><path d="M17.6522 17.6522 0 17.6522 0 0 17.6522 0" fill="#FFFFFF" fill-rule="nonzero" fill-opacity="1" transform="matrix(1 0 0 1.00082 300.528 84.3583)"/><path d="M0 17.6522 17.6522 17.6522" stroke="#000000" stroke-width="0.882609" stroke-linecap="round" stroke-linejoin="miter" stroke-miterlimit="4" stroke-opacity="1" fill="none" fill-rule="nonzero" transform="matrix(1 0 0 1.00082 300.528 84.3583)"/><path d="M0 0 17.6522 0" stroke="#000000" stroke-width="0.882609" stroke-linecap="round" stroke-linejoin="miter" stroke-miterlimit="4" stroke-opacity="1" fill="none" fill-rule="nonzero" transform="matrix(1 0 0 1.00082 300.528 84.3583)"/><path d="M17.6522 17.6522 0 17.6522 0 0 17.6522 0" fill="#FFFFFF" fill-rule="nonzero" fill-opacity="1" transform="matrix(1 0 0 1.00082 318.18 84.3583)"/><path d="M0 17.6522 17.6522 17.6522" stroke="#000000" stroke-width="0.882609" stroke-linecap="round" stroke-linejoin="miter" stroke-miterlimit="4" stroke-opacity="1" fill="none" fill-rule="nonzero" transform="matrix(1 0 0 1.00082 318.18 84.3583)"/><path d="M0 0 17.6522 0" stroke="#000000" stroke-width="0.882609" stroke-linecap="round" stroke-linejoin="miter" stroke-miterlimit="4" stroke-opacity="1" fill="none" fill-rule="nonzero" transform="matrix(1 0 0 1.00082 318.18 84.3583)"/><path d="M17.6522 17.6522 0 17.6522 0 0 17.6522 0" fill="#FFFFFF" fill-rule="nonzero" fill-opacity="1" transform="matrix(1 0 0 1.00082 335.833 84.3583)"/><path d="M0 17.6522 17.6522 17.6522" stroke="#000000" stroke-width="0.882609" stroke-linecap="round" stroke-linejoin="miter" stroke-miterlimit="4" stroke-opacity="1" fill="none" fill-rule="nonzero" transform="matrix(1 0 0 1.00082 335.833 84.3583)"/><path d="M0 0 17.6522 0" stroke="#000000" stroke-width="0.882609" stroke-linecap="round" stroke-linejoin="miter" stroke-miterlimit="4" stroke-opacity="1" fill="none" fill-rule="nonzero" transform="matrix(1 0 0 1.00082 335.833 84.3583)"/><path d="M0 0 0 17.6522 2.64783 17.6522 5.29565 8.82609 2.64783 0" fill="#FFFFFF" fill-rule="nonzero" fill-opacity="1" transform="matrix(1 0 0 1.00082 353.485 84.3583)"/><path d="M0 0 2.64783 0 7.94348 17.6522 17.6522 17.6522" stroke="#000000" stroke-width="0.882609" stroke-linecap="round" stroke-linejoin="miter" stroke-miterlimit="4" stroke-opacity="1" fill="none" fill-rule="nonzero" transform="matrix(1 0 0 1.00082 353.485 84.3583)"/><path d="M0 17.6522 2.64783 17.6522 7.94348 0 17.6522 0" stroke="#000000" stroke-width="0.882609" stroke-linecap="round" stroke-linejoin="miter" stroke-miterlimit="4" stroke-opacity="1" fill="none" fill-rule="nonzero" transform="matrix(1 0 0 1.00082 353.485 84.3583)"/><path d="M17.6522 13.2391 13.2391 17.6522" stroke="#000000" stroke-width="0.441304" stroke-linecap="round" stroke-linejoin="miter" stroke-miterlimit="4" stroke-opacity="1" fill="none" fill-rule="nonzero" transform="matrix(1 0 0 1.00082 353.485 84.3583)"/><path d="M17.6522 8.82609 8.82609 17.6522" stroke="#000000" stroke-width="0.441304" stroke-linecap="round" stroke-linejoin="miter" stroke-miterlimit="4" stroke-opacity="1" fill="none" fill-rule="nonzero" transform="matrix(1 0 0 1.00082 353.485 84.3583)"/><path d="M17.6522 4.41304 7.06087 15.0043" stroke="#000000" stroke-width="0.441304" stroke-linecap="round" stroke-linejoin="miter" stroke-miterlimit="4" stroke-opacity="1" fill="none" fill-rule="nonzero" transform="matrix(1 0 0 1.00082 353.485 84.3583)"/><path d="M17.6522 0 6.17826 11.4739" stroke="#000000" stroke-width="0.441304" stroke-linecap="round" stroke-linejoin="miter" stroke-miterlimit="4" stroke-opacity="1" fill="none" fill-rule="nonzero" transform="matrix(1 0 0 1.00082 353.485 84.3583)"/><path d="M13.2391 0 6.17826 7.06087" stroke="#000000" stroke-width="0.441304" stroke-linecap="round" stroke-linejoin="miter" stroke-miterlimit="4" stroke-opacity="1" fill="none" fill-rule="nonzero" transform="matrix(1 0 0 1.00082 353.485 84.3583)"/><path d="M8.82609 0 7.94348 0.882609" stroke="#000000" stroke-width="0.441304" stroke-linecap="round" stroke-linejoin="miter" stroke-miterlimit="4" stroke-opacity="1" fill="none" fill-rule="nonzero" transform="matrix(1 0 0 1.00082 353.485 84.3583)"/><path d="M0 17.6522 17.6522 17.6522" stroke="#000000" stroke-width="0.882609" stroke-linecap="round" stroke-linejoin="miter" stroke-miterlimit="4" stroke-opacity="1" fill="none" fill-rule="nonzero" transform="matrix(1 0 0 1.00082 371.137 84.3583)"/><path d="M0 0 17.6522 0" stroke="#000000" stroke-width="0.882609" stroke-linecap="round" stroke-linejoin="miter" stroke-miterlimit="4" stroke-opacity="1" fill="none" fill-rule="nonzero" transform="matrix(1 0 0 1.00082 371.137 84.3583)"/><path d="M0 4.41304 4.41304 0" stroke="#000000" stroke-width="0.441304" stroke-linecap="round" stroke-linejoin="miter" stroke-miterlimit="4" stroke-opacity="1" fill="none" fill-rule="nonzero" transform="matrix(1 0 0 1.00082 371.137 84.3583)"/><path d="M0 8.82609 8.82609 0" stroke="#000000" stroke-width="0.441304" stroke-linecap="round" stroke-linejoin="miter" stroke-miterlimit="4" stroke-opacity="1" fill="none" fill-rule="nonzero" transform="matrix(1 0 0 1.00082 371.137 84.3583)"/><path d="M0 13.2391 13.2391 0" stroke="#000000" stroke-width="0.441304" stroke-linecap="round" stroke-linejoin="miter" stroke-miterlimit="4" stroke-opacity="1" fill="none" fill-rule="nonzero" transform="matrix(1 0 0 1.00082 371.137 84.3583)"/><path d="M0 17.6522 17.6522 0" stroke="#000000" stroke-width="0.441304" stroke-linecap="round" stroke-linejoin="miter" stroke-miterlimit="4" stroke-opacity="1" fill="none" fill-rule="nonzero" transform="matrix(1 0 0 1.00082 371.137 84.3583)"/><path d="M4.41304 17.6522 17.6522 4.41304" stroke="#000000" stroke-width="0.441304" stroke-linecap="round" stroke-linejoin="miter" stroke-miterlimit="4" stroke-opacity="1" fill="none" fill-rule="nonzero" transform="matrix(1 0 0 1.00082 371.137 84.3583)"/><path d="M8.82609 17.6522 17.6522 8.82609" stroke="#000000" stroke-width="0.441304" stroke-linecap="round" stroke-linejoin="miter" stroke-miterlimit="4" stroke-opacity="1" fill="none" fill-rule="nonzero" transform="matrix(1 0 0 1.00082 371.137 84.3583)"/><path d="M13.2391 17.6522 17.6522 13.2391" stroke="#000000" stroke-width="0.441304" stroke-linecap="round" stroke-linejoin="miter" stroke-miterlimit="4" stroke-opacity="1" fill="none" fill-rule="nonzero" transform="matrix(1 0 0 1.00082 371.137 84.3583)"/><text fill="#000000" fill-opacity="1" font-family="Helvetica,Helvetica_MSFontService,sans-serif" font-style="normal" font-variant="normal" font-weight="400" font-stretch="normal" font-size="15" text-anchor="start" direction="ltr" writing-mode="lr-tb" unicode-bidi="normal" text-decoration="none" transform="matrix(0.882609 0 0 0.883333 185.789 98)">bits0</text><text fill="#000000" fill-opacity="1" font-family="Helvetica,Helvetica_MSFontService,sans-serif" font-style="normal" font-variant="normal" font-weight="400" font-stretch="normal" font-size="15" text-anchor="start" direction="ltr" writing-mode="lr-tb" unicode-bidi="normal" text-decoration="none" transform="matrix(0.882609 0 0 0.883333 221.093 98)">bits1</text><text fill="#000000" fill-opacity="1" font-family="Helvetica,Helvetica_MSFontService,sans-serif" font-style="normal" font-variant="normal" font-weight="400" font-stretch="normal" font-size="15" text-anchor="start" direction="ltr" writing-mode="lr-tb" unicode-bidi="normal" text-decoration="none" transform="matrix(0.882609 0 0 0.883333 291.702 98)">bits2</text></g></g></svg>