<svg width="329" height="186" xmlns="http://www.w3.org/2000/svg" xmlns:xlink="http://www.w3.org/1999/xlink" xml:space="preserve" overflow="hidden"><g><g><path d="M28.1152 0.419631 300.082 0.419631C300.992 0.419631 301.889 0.419631 302.798 0.547851 303.698 0.637312 304.593 0.773486 305.479 0.955825 306.377 1.13067 307.251 1.35214 308.125 1.60858 309 1.86502 309.839 2.17975 310.678 2.52944 311.517 2.87913 312.333 3.26379 313.138 3.69508 313.938 4.11676 314.716 4.57975 315.469 5.08219 316.227 5.59507 316.949 6.13127 317.649 6.70243 318.348 7.2736 319.024 7.86807 319.665 8.53249 320.306 9.1969 320.912 9.84966 321.495 10.549 322.071 11.2481 322.612 11.9756 323.116 12.7288 323.617 13.4865 324.083 14.2674 324.514 15.0601 324.946 15.8527 325.33 16.6803 325.68 17.5196 326.03 18.3588 326.333 19.2098 326.601 20.084 326.869 20.9582 327.079 21.8208 327.265 22.7183 327.452 23.6159 327.568 24.5018 327.661 25.3993 327.755 26.2968 327.79 27.2177 327.79 28.1152L327.79 157.361C327.79 158.271 327.79 159.18 327.661 160.077 327.533 160.975 327.44 161.872 327.265 162.77 327.09 163.668 326.869 164.53 326.601 165.404 326.333 166.279 326.03 167.13 325.68 167.957 325.334 168.796 324.946 169.617 324.514 170.417 324.083 171.221 323.617 172.002 323.116 172.748 322.614 173.494 322.066 174.228 321.495 174.939 320.924 175.65 320.33 176.303 319.665 176.944 319.026 177.59 318.354 178.201 317.649 178.774 316.949 179.35 316.222 179.891 315.469 180.395 314.711 180.896 313.942 181.362 313.138 181.793 312.333 182.225 311.517 182.609 310.678 182.959 309.839 183.309 308.988 183.6 308.125 183.868 307.256 184.136 306.372 184.358 305.479 184.533 304.593 184.707 303.696 184.836 302.798 184.929 301.896 185.019 300.989 185.061 300.082 185.057L28.1152 185.057C27.2084 185.061 26.3019 185.017 25.3993 184.929 24.5018 184.836 23.6042 184.707 22.7183 184.533 21.8287 184.359 20.9494 184.137 20.084 183.868 19.2098 183.6 18.3588 183.297 17.5196 182.959 16.6803 182.621 15.8644 182.213 15.0601 181.793 14.2558 181.374 13.4865 180.896 12.7288 180.395 11.2188 179.369 9.81322 178.198 8.53249 176.898 7.89139 176.256 7.28525 175.592 6.70243 174.893 6.11961 174.193 5.53679 173.459 5.08219 172.701 4.57725 171.951 4.11417 171.172 3.69508 170.37 3.26445 169.57 2.87539 168.75 2.52944 167.91 2.17975 167.083 1.87668 166.22 1.60858 165.358 1.34049 164.495 1.13067 163.609 0.955825 162.723 0.774306 161.833 0.638138 160.934 0.547851 160.031 0.466256 159.203 0.419631 158.294 0.419631 157.361L0.419631 28.1152C0.419631 27.2177 0.419631 26.3085 0.547851 25.3993 0.637312 24.4992 0.773486 23.6043 0.955825 22.7183 1.13067 21.8208 1.35214 20.9466 1.60858 20.084 1.86502 19.2214 2.17975 18.3588 2.52944 17.5196 2.87913 16.6803 3.26379 15.8644 3.69508 15.0601 4.12637 14.2558 4.58097 13.4865 5.08219 12.7288 5.58342 11.9711 6.13127 11.2484 6.70243 10.549 7.2736 9.84966 7.86807 9.17359 8.53249 8.53249 9.1969 7.89139 9.84966 7.28525 10.549 6.70243 11.2484 6.11961 11.9711 5.53679 12.7288 5.08219 13.4865 4.62759 14.2674 4.11471 15.0601 3.69508 15.8527 3.27545 16.6803 2.87913 17.5196 2.52944 18.3588 2.17975 19.2098 1.87668 20.084 1.60858 20.9582 1.34049 21.8208 1.16564 22.7183 0.955825 23.6043 0.773486 24.4992 0.637312 25.3993 0.547851 26.3085 0.466256 27.2177 0.419631 28.1152 0.419631Z" stroke="#000000" stroke-width="0.839261" stroke-linecap="butt" stroke-linejoin="miter" stroke-miterlimit="4" stroke-opacity="1" fill="none" fill-rule="nonzero" transform="matrix(1 0 0 1.0027 0.401156 4.79187e-15)"/><path d="M101.143 67.5722 218.662 67.5722 218.662 117.939 101.143 117.939Z" stroke="#000000" stroke-width="0.839261" stroke-linecap="butt" stroke-linejoin="miter" stroke-miterlimit="4" stroke-opacity="1" fill="none" fill-rule="nonzero" transform="matrix(1 0 0 1.0027 0.401156 4.79187e-15)"/><text fill="#000000" fill-opacity="1" font-family="Arial,Arial_MSFontService,sans-serif" font-style="normal" font-variant="normal" font-weight="400" font-stretch="normal" font-size="9" text-anchor="start" direction="ltr" writing-mode="lr-tb" unicode-bidi="normal" text-decoration="none" transform="matrix(1.16564 0 0 1.16878 134.123 96)">StdFreeList</text><text fill="#000000" fill-opacity="1" font-family="Arial,Arial_MSFontService,sans-serif" font-style="normal" font-variant="normal" font-weight="400" font-stretch="normal" font-size="9" text-anchor="start" direction="ltr" writing-mode="lr-tb" unicode-bidi="normal" text-decoration="none" transform="matrix(1.16564 0 0 1.16878 23.3293 24)">Rename</text><path d="M109.535 25.5975 109.535 62.2219" stroke="#000000" stroke-width="0.839261" stroke-linecap="butt" stroke-linejoin="miter" stroke-miterlimit="10" stroke-opacity="1" fill="none" fill-rule="nonzero" transform="matrix(1 0 0 1.0027 0.401156 4.79187e-15)"/><path d="M109.535 66.628 106.598 60.7532 109.535 62.2219 112.484 60.7532 109.535 66.628Z" fill="#000000" fill-rule="nonzero" fill-opacity="1" transform="matrix(1 0 0 1.0027 0.401156 4.79187e-15)"/><path d="M109.535 66.628 106.598 60.7532 109.535 62.2219 112.484 60.7532 109.535 66.628Z" stroke="#000000" stroke-width="0.839261" stroke-linecap="butt" stroke-linejoin="miter" stroke-miterlimit="10" stroke-opacity="1" fill="none" fill-rule="nonzero" transform="matrix(1 0 0 1.0027 0.401156 4.79187e-15)"/><path d="M95.6874 37.7668 126.74 37.7668 126.74 48.6771 95.6874 48.6771Z" fill="#FFFFFF" fill-rule="nonzero" fill-opacity="1" transform="matrix(1 0 0 1.0027 0.401156 4.79187e-15)"/><text fill="#000000" fill-opacity="1" font-family="Arial,Arial_MSFontService,sans-serif" font-style="normal" font-variant="normal" font-weight="400" font-stretch="normal" font-size="8" text-anchor="start" direction="ltr" writing-mode="lr-tb" unicode-bidi="normal" text-decoration="none" transform="matrix(1.16564 0 0 1.16878 96.2284 46)">redirect</text><path d="M176.688 25.5975 176.688 62.2219" stroke="#000000" stroke-width="0.839261" stroke-linecap="butt" stroke-linejoin="miter" stroke-miterlimit="10" stroke-opacity="1" fill="none" fill-rule="nonzero" transform="matrix(1 0 0 1.0027 0.401156 4.79187e-15)"/><path d="M176.688 66.628 173.75 60.7532 176.688 62.2219 179.625 60.7532 176.688 66.628Z" fill="#000000" fill-rule="nonzero" fill-opacity="1" transform="matrix(1 0 0 1.0027 0.401156 4.79187e-15)"/><path d="M176.688 66.628 173.75 60.7532 176.688 62.2219 179.625 60.7532 176.688 66.628Z" stroke="#000000" stroke-width="0.839261" stroke-linecap="butt" stroke-linejoin="miter" stroke-miterlimit="10" stroke-opacity="1" fill="none" fill-rule="nonzero" transform="matrix(1 0 0 1.0027 0.401156 4.79187e-15)"/><path d="M170.393 37.7668 186.339 37.7668 186.339 48.6771 170.393 48.6771Z" fill="#FFFFFF" fill-rule="nonzero" fill-opacity="1" transform="matrix(1 0 0 1.0027 0.401156 4.79187e-15)"/><text fill="#000000" fill-opacity="1" font-family="Arial,Arial_MSFontService,sans-serif" font-style="normal" font-variant="normal" font-weight="400" font-stretch="normal" font-size="8" text-anchor="start" direction="ltr" writing-mode="lr-tb" unicode-bidi="normal" text-decoration="none" transform="matrix(1.16564 0 0 1.16878 170.806 46)">free</text><path d="M25.749 84.2408 95.804 84.1709" stroke="#000000" stroke-width="0.839261" stroke-linecap="butt" stroke-linejoin="miter" stroke-miterlimit="10" stroke-opacity="1" fill="none" fill-rule="nonzero" transform="matrix(1 0 0 1.0027 0.401156 4.79187e-15)"/><path d="M100.21 84.1592 94.3353 87.1083 95.804 84.1592 94.3353 81.2335 100.21 84.1592Z" fill="#000000" fill-rule="nonzero" fill-opacity="1" transform="matrix(1 0 0 1.0027 0.401156 4.79187e-15)"/><path d="M100.21 84.1592 94.3353 87.1083 95.804 84.1592 94.3353 81.2335 100.21 84.1592Z" stroke="#000000" stroke-width="0.839261" stroke-linecap="butt" stroke-linejoin="miter" stroke-miterlimit="10" stroke-opacity="1" fill="none" fill-rule="nonzero" transform="matrix(1 0 0 1.0027 0.401156 4.79187e-15)"/><path d="M35.249 72.1881 84.777 72.1881 84.777 83.0985 35.249 83.0985Z" fill="#FFFFFF" fill-rule="nonzero" fill-opacity="1" transform="matrix(1 0 0 1.0027 0.401156 4.79187e-15)"/><text fill="#000000" fill-opacity="1" font-family="Arial,Arial_MSFontService,sans-serif" font-style="normal" font-variant="normal" font-weight="400" font-stretch="normal" font-size="8" text-anchor="start" direction="ltr" writing-mode="lr-tb" unicode-bidi="normal" text-decoration="none" transform="matrix(1.16564 0 0 1.16878 36.0348 81)">allocateReq</text><path d="M25.749 100.863 95.804 100.933" stroke="#000000" stroke-width="0.839261" stroke-linecap="butt" stroke-linejoin="miter" stroke-miterlimit="10" stroke-opacity="1" fill="none" fill-rule="nonzero" transform="matrix(1 0 0 1.0027 0.401156 4.79187e-15)"/><path d="M100.21 100.944 94.3353 103.87 95.804 100.933 94.3353 97.9954 100.21 100.944Z" fill="#000000" fill-rule="nonzero" fill-opacity="1" transform="matrix(1 0 0 1.0027 0.401156 4.79187e-15)"/><path d="M100.21 100.944 94.3353 103.87 95.804 100.933 94.3353 97.9954 100.21 100.944Z" stroke="#000000" stroke-width="0.839261" stroke-linecap="butt" stroke-linejoin="miter" stroke-miterlimit="10" stroke-opacity="1" fill="none" fill-rule="nonzero" transform="matrix(1 0 0 1.0027 0.401156 4.79187e-15)"/><path d="M39.4569 88.9733 82.2709 88.9733 82.2709 99.8837 39.4569 99.8837Z" fill="#FFFFFF" fill-rule="nonzero" fill-opacity="1" transform="matrix(1 0 0 1.0027 0.401156 4.79187e-15)"/><text fill="#000000" fill-opacity="1" font-family="Arial,Arial_MSFontService,sans-serif" font-style="normal" font-variant="normal" font-weight="400" font-stretch="normal" font-size="8" text-anchor="start" direction="ltr" writing-mode="lr-tb" unicode-bidi="normal" text-decoration="none" transform="matrix(1.16564 0 0 1.16878 39.6949 98)">doAllocate</text><path d="M143.117 25.5975 143.117 62.2219" stroke="#000000" stroke-width="0.839261" stroke-linecap="butt" stroke-linejoin="miter" stroke-miterlimit="10" stroke-opacity="1" fill="none" fill-rule="nonzero" transform="matrix(1 0 0 1.0027 0.401156 4.79187e-15)"/><path d="M143.117 66.628 140.18 60.7532 143.117 62.2219 146.055 60.7532 143.117 66.628Z" fill="#000000" fill-rule="nonzero" fill-opacity="1" transform="matrix(1 0 0 1.0027 0.401156 4.79187e-15)"/><path d="M143.117 66.628 140.18 60.7532 143.117 62.2219 146.055 60.7532 143.117 66.628Z" stroke="#000000" stroke-width="0.839261" stroke-linecap="butt" stroke-linejoin="miter" stroke-miterlimit="10" stroke-opacity="1" fill="none" fill-rule="nonzero" transform="matrix(1 0 0 1.0027 0.401156 4.79187e-15)"/><path d="M135.984 37.7668 154.447 37.7668 154.447 48.6771 135.984 48.6771Z" fill="#FFFFFF" fill-rule="nonzero" fill-opacity="1" transform="matrix(1 0 0 1.0027 0.401156 4.79187e-15)"/><text fill="#000000" fill-opacity="1" font-family="Arial,Arial_MSFontService,sans-serif" font-style="normal" font-variant="normal" font-weight="400" font-stretch="normal" font-size="8" text-anchor="start" direction="ltr" writing-mode="lr-tb" unicode-bidi="normal" text-decoration="none" transform="matrix(1.16564 0 0 1.16878 135.965 46)">walk</text><path d="M159.658 123.278 159.658 159.903" stroke="#000000" stroke-width="0.839261" stroke-linecap="butt" stroke-linejoin="miter" stroke-miterlimit="10" stroke-opacity="1" fill="none" fill-rule="nonzero" transform="matrix(1 0 0 1.0027 0.401156 4.79187e-15)"/><path d="M159.658 118.872 162.595 124.747 159.658 123.278 156.72 124.747 159.658 118.872Z" fill="#000000" fill-rule="nonzero" fill-opacity="1" transform="matrix(1 0 0 1.0027 0.401156 4.79187e-15)"/><path d="M159.658 118.872 162.595 124.747 159.658 123.278 156.72 124.747 159.658 118.872Z" stroke="#000000" stroke-width="0.839261" stroke-linecap="butt" stroke-linejoin="miter" stroke-miterlimit="10" stroke-opacity="1" fill="none" fill-rule="nonzero" transform="matrix(1 0 0 1.0027 0.401156 4.79187e-15)"/><path d="M141.858 135.144 179.625 135.144 179.625 146.055 141.858 146.055Z" fill="#FFFFFF" fill-rule="nonzero" fill-opacity="1" transform="matrix(1 0 0 1.0027 0.401156 4.79187e-15)"/><text fill="#000000" fill-opacity="1" font-family="Arial,Arial_MSFontService,sans-serif" font-style="normal" font-variant="normal" font-weight="400" font-stretch="normal" font-size="8" text-anchor="start" direction="ltr" writing-mode="lr-tb" unicode-bidi="normal" text-decoration="none" transform="matrix(1.16564 0 0 1.16878 142.399 144)">snapshot</text><path d="M218.662 84.1592 305.619 84.2292" stroke="#000000" stroke-width="0.839261" stroke-linecap="butt" stroke-linejoin="miter" stroke-miterlimit="10" stroke-opacity="1" fill="none" fill-rule="nonzero" transform="matrix(1 0 0 1.0027 0.401156 4.79187e-15)"/><path d="M310.025 84.2408 304.151 87.1666 305.619 84.2292 304.162 81.2918 310.025 84.2408Z" fill="#000000" fill-rule="nonzero" fill-opacity="1" transform="matrix(1 0 0 1.0027 0.401156 4.79187e-15)"/><path d="M310.025 84.2408 304.151 87.1666 305.619 84.2292 304.162 81.2918 310.025 84.2408Z" stroke="#000000" stroke-width="0.839261" stroke-linecap="butt" stroke-linejoin="miter" stroke-miterlimit="10" stroke-opacity="1" fill="none" fill-rule="nonzero" transform="matrix(1 0 0 1.0027 0.401156 4.79187e-15)"/><path d="M228.314 72.1881 292.949 72.1881 292.949 83.0985 228.314 83.0985Z" fill="#FFFFFF" fill-rule="nonzero" fill-opacity="1" transform="matrix(1 0 0 1.0027 0.401156 4.79187e-15)"/><text fill="#000000" fill-opacity="1" font-family="Arial,Arial_MSFontService,sans-serif" font-style="normal" font-variant="normal" font-weight="400" font-stretch="normal" font-size="8" text-anchor="start" direction="ltr" writing-mode="lr-tb" unicode-bidi="normal" text-decoration="none" transform="matrix(1.16564 0 0 1.16878 228.692 81)">allocatePhyReg</text><path d="M218.662 100.944 305.619 100.875" stroke="#000000" stroke-width="0.839261" stroke-linecap="butt" stroke-linejoin="miter" stroke-miterlimit="10" stroke-opacity="1" fill="none" fill-rule="nonzero" transform="matrix(1 0 0 1.0027 0.401156 4.79187e-15)"/><path d="M310.025 100.863 304.162 103.812 305.619 100.863 304.151 97.9371 310.025 100.863Z" fill="#000000" fill-rule="nonzero" fill-opacity="1" transform="matrix(1 0 0 1.0027 0.401156 4.79187e-15)"/><path d="M310.025 100.863 304.162 103.812 305.619 100.863 304.151 97.9371 310.025 100.863Z" stroke="#000000" stroke-width="0.839261" stroke-linecap="butt" stroke-linejoin="miter" stroke-miterlimit="10" stroke-opacity="1" fill="none" fill-rule="nonzero" transform="matrix(1 0 0 1.0027 0.401156 4.79187e-15)"/><path d="M238.385 88.1341 286.235 88.1341 286.235 99.0445 238.385 99.0445Z" fill="#FFFFFF" fill-rule="nonzero" fill-opacity="1" transform="matrix(1 0 0 1.0027 0.401156 4.79187e-15)"/><text fill="#000000" fill-opacity="1" font-family="Arial,Arial_MSFontService,sans-serif" font-style="normal" font-variant="normal" font-weight="400" font-stretch="normal" font-size="8" text-anchor="start" direction="ltr" writing-mode="lr-tb" unicode-bidi="normal" text-decoration="none" transform="matrix(1.16564 0 0 1.16878 238.845 97)">canAllocate</text><path d="M210.27 25.5975 210.27 62.2219" stroke="#000000" stroke-width="0.839261" stroke-linecap="butt" stroke-linejoin="miter" stroke-miterlimit="10" stroke-opacity="1" fill="none" fill-rule="nonzero" transform="matrix(1 0 0 1.0027 0.401156 4.79187e-15)"/><path d="M210.27 66.628 207.332 60.7532 210.27 62.2219 213.207 60.7532 210.27 66.628Z" fill="#000000" fill-rule="nonzero" fill-opacity="1" transform="matrix(1 0 0 1.0027 0.401156 4.79187e-15)"/><path d="M210.27 66.628 207.332 60.7532 210.27 62.2219 213.207 60.7532 210.27 66.628Z" stroke="#000000" stroke-width="0.839261" stroke-linecap="butt" stroke-linejoin="miter" stroke-miterlimit="10" stroke-opacity="1" fill="none" fill-rule="nonzero" transform="matrix(1 0 0 1.0027 0.401156 4.79187e-15)"/><path d="M197.261 37.7668 226.635 37.7668 226.635 48.6771 197.261 48.6771Z" fill="#FFFFFF" fill-rule="nonzero" fill-opacity="1" transform="matrix(1 0 0 1.0027 0.401156 4.79187e-15)"/><text fill="#000000" fill-opacity="1" font-family="Arial,Arial_MSFontService,sans-serif" font-style="normal" font-variant="normal" font-weight="400" font-stretch="normal" font-size="8" text-anchor="start" direction="ltr" writing-mode="lr-tb" unicode-bidi="normal" text-decoration="none" transform="matrix(1.16564 0 0 1.16878 197.476 46)">commit</text></g></g></svg>