<svg width="354" height="173" xmlns="http://www.w3.org/2000/svg" xmlns:xlink="http://www.w3.org/1999/xlink" xml:space="preserve" overflow="hidden"><g><g><path d="M121.167 14.72 149.879 14.72 149.879 43.432 121.167 43.432Z" fill="#FFFFFF" fill-rule="nonzero" fill-opacity="1"/><path d="M121.167 14.72 149.879 14.72 149.879 43.432 121.167 43.432Z" stroke="#000000" stroke-width="0.718049" stroke-linecap="butt" stroke-linejoin="miter" stroke-miterlimit="4" stroke-opacity="1" fill="none" fill-rule="nonzero"/><path d="M130.272 26.9268C130.771 26.947 131.265 26.826 131.698 26.5778 132.017 26.2939 132.232 25.911 132.306 25.4907L133.054 25.4907 133.054 33.0103 132.057 33.0103 132.057 27.6948 130.292 27.6948Z" fill="#000000" fill-rule="nonzero" fill-opacity="1"/><path d="M136.266 26.9268C136.764 26.9459 137.258 26.825 137.692 26.5778 138.005 26.2897 138.218 25.9087 138.3 25.4907L139.038 25.4907 139.038 33.0103 138.041 33.0103 138.041 27.6948 136.276 27.6948Z" fill="#000000" fill-rule="nonzero" fill-opacity="1"/><path d="M85.2742 36.2515 113.986 36.2515 113.986 64.9635 85.2742 64.9635Z" fill="#FFFFFF" fill-rule="nonzero" fill-opacity="1"/><path d="M85.2742 36.2515 113.986 36.2515 113.986 64.9635 85.2742 64.9635Z" stroke="#000000" stroke-width="0.718049" stroke-linecap="butt" stroke-linejoin="miter" stroke-miterlimit="4" stroke-opacity="1" fill="none" fill-rule="nonzero"/><path d="M94.3795 48.4683C94.8772 48.491 95.3713 48.3735 95.8056 48.1292 96.1192 47.8411 96.3324 47.4602 96.4139 47.0422L97.1519 47.0422 97.1519 54.5618 96.1048 54.5618 96.1048 49.2263 94.3795 49.2263Z" fill="#000000" fill-rule="nonzero" fill-opacity="1"/><path d="M100.682 50.8618C100.682 52.8963 101.211 53.9135 102.268 53.9135 103.325 53.9135 103.864 52.8963 103.884 50.8618 103.884 48.8672 103.345 47.8201 102.278 47.8201 101.211 47.8201 100.682 48.8672 100.682 50.8618ZM99.685 50.8618C99.6348 49.8619 99.8626 48.8677 100.343 47.9896 101.055 46.9087 102.508 46.6096 103.589 47.3215 103.828 47.4786 104.036 47.678 104.203 47.9098 104.727 48.7753 104.972 49.7823 104.901 50.792 104.955 51.7953 104.726 52.7937 104.243 53.6742 103.815 54.3516 103.047 54.7358 102.248 54.6715 101.487 54.685 100.773 54.3089 100.353 53.6742 99.8542 52.8243 99.6182 51.8456 99.6751 50.8618Z" fill="#000000" fill-rule="nonzero" fill-opacity="1"/><path d="M70.9232 72.144 99.6352 72.144 99.6352 100.856 70.9232 100.856Z" fill="#FFFFFF" fill-rule="nonzero" fill-opacity="1"/><path d="M70.9232 72.144 99.6352 72.144 99.6352 100.856 70.9232 100.856Z" stroke="#000000" stroke-width="0.718049" stroke-linecap="butt" stroke-linejoin="miter" stroke-miterlimit="4" stroke-opacity="1" fill="none" fill-rule="nonzero"/><path d="M83.3893 85.4479C83.3893 86.5249 83.8979 87.0635 84.9152 87.0635 85.3241 87.0765 85.7206 86.9216 86.0122 86.6346 86.3212 86.2842 86.4757 85.824 86.441 85.3581 86.468 84.9226 86.3249 84.4936 86.0421 84.1614 85.7581 83.8417 85.3417 83.6722 84.9152 83.7026 84.4951 83.6881 84.0901 83.8596 83.8082 84.1713 83.5131 84.5291 83.3636 84.9848 83.3893 85.4479ZM82.4718 88.6292 83.3993 88.6292C83.4339 89.2892 83.997 89.7963 84.657 89.7617 84.6799 89.7605 84.7029 89.7587 84.7257 89.7562 85.2998 89.7646 85.826 89.4372 86.072 88.9184 86.3871 88.2989 86.564 87.6184 86.5906 86.9239 86.2193 87.5617 85.51 87.9241 84.7756 87.8513 84.1285 87.8736 83.5008 87.6283 83.0403 87.1732 82.5892 86.6952 82.3516 86.0545 82.3821 85.398 82.3514 84.7032 82.5991 84.0248 83.0702 83.5131 83.5564 83.0241 84.2264 82.7634 84.9152 82.7951 86.697 82.7951 87.5912 83.9619 87.5979 86.2956 87.6453 87.3735 87.3933 88.4436 86.8699 89.3872 86.1151 90.5847 84.5325 90.9437 83.335 90.189 83.2644 90.1445 83.1959 90.0965 83.13 90.0454 82.7272 89.6824 82.4897 89.1711 82.4718 88.6292Z" fill="#000000" fill-rule="nonzero" fill-opacity="1"/><path d="M85.2742 108.036 113.986 108.036 113.986 136.748 85.2742 136.748Z" fill="#FFFFFF" fill-rule="nonzero" fill-opacity="1"/><path d="M85.2742 108.036 113.986 108.036 113.986 136.748 85.2742 136.748Z" stroke="#000000" stroke-width="0.718049" stroke-linecap="butt" stroke-linejoin="miter" stroke-miterlimit="4" stroke-opacity="1" fill="none" fill-rule="nonzero"/><path d="M97.9597 120.772C97.9615 121.081 98.083 121.378 98.2988 121.6 98.561 121.863 98.9256 121.998 99.2961 121.969 99.6323 121.978 99.9596 121.86 100.214 121.64 100.463 121.413 100.599 121.088 100.583 120.752 100.605 120.419 100.459 120.097 100.194 119.894 99.9069 119.68 99.5537 119.574 99.1964 119.595 98.8693 119.584 98.5496 119.694 98.2988 119.904 98.0648 120.131 97.941 120.447 97.9597 120.772ZM97.7104 124.213C97.6968 124.604 97.8405 124.984 98.1093 125.27 98.4326 125.57 98.8663 125.721 99.3061 125.689 99.7144 125.714 100.115 125.57 100.413 125.29 100.681 125.028 100.829 124.667 100.822 124.292 100.839 123.895 100.691 123.509 100.413 123.225 100.103 122.938 99.6883 122.79 99.2662 122.816 98.8551 122.8 98.4531 122.939 98.1393 123.205 97.8523 123.46 97.6949 123.83 97.7104 124.213ZM97.9697 122.328C97.3532 122.097 96.9521 121.5 96.9724 120.842 96.955 120.274 97.1799 119.727 97.5907 119.336 98.0493 118.926 98.6519 118.713 99.2662 118.747 99.8642 118.726 100.45 118.917 100.922 119.286 101.368 119.639 101.621 120.183 101.6 120.752 101.631 121.432 101.232 122.058 100.603 122.318 101.347 122.633 101.826 123.365 101.819 124.173 101.841 124.81 101.591 125.426 101.131 125.868 100.637 126.333 99.9736 126.575 99.2961 126.536 98.6183 126.565 97.9528 126.35 97.4212 125.928 96.9231 125.51 96.6498 124.882 96.6832 124.232 96.634 123.38 97.1608 122.6 97.9697 122.328Z" fill="#000000" fill-rule="nonzero" fill-opacity="1"/><path d="M121.167 129.578 149.879 129.578 149.879 158.29 121.167 158.29Z" fill="#FFFFFF" fill-rule="nonzero" fill-opacity="1"/><path d="M121.167 129.578 149.879 129.578 149.879 158.29 121.167 158.29Z" stroke="#000000" stroke-width="0.718049" stroke-linecap="butt" stroke-linejoin="miter" stroke-miterlimit="4" stroke-opacity="1" fill="none" fill-rule="nonzero"/><path d="M133.683 147.878C133.868 146.813 134.182 145.775 134.62 144.787 135.179 143.573 135.893 142.436 136.744 141.406L132.596 141.406 132.596 140.478 137.811 140.478 137.811 141.316C137.008 142.214 136.335 143.221 135.817 144.308 135.304 145.468 134.925 146.682 134.69 147.928Z" fill="#000000" fill-rule="nonzero" fill-opacity="1"/><path d="M157.059 143.929 185.771 143.929 185.771 172.641 157.059 172.641Z" fill="#FFFFFF" fill-rule="nonzero" fill-opacity="1"/><path d="M157.059 143.929 185.771 143.929 185.771 172.641 157.059 172.641Z" stroke="#000000" stroke-width="0.718049" stroke-linecap="butt" stroke-linejoin="miter" stroke-miterlimit="4" stroke-opacity="1" fill="none" fill-rule="nonzero"/><path d="M169.625 159.866C169.608 160.315 169.758 160.755 170.044 161.102 170.336 161.424 170.756 161.599 171.191 161.581 171.599 161.589 171.991 161.422 172.268 161.122 172.82 160.405 172.82 159.406 172.268 158.689 171.984 158.368 171.569 158.195 171.141 158.22 170.727 158.208 170.327 158.367 170.034 158.659 169.734 158.986 169.585 159.424 169.625 159.866ZM169.495 158.33C169.861 157.695 170.548 157.312 171.281 157.333 171.94 157.301 172.582 157.551 173.046 158.021 173.485 158.501 173.718 159.136 173.694 159.786 173.701 160.45 173.468 161.095 173.036 161.601 172.565 162.132 171.88 162.421 171.171 162.389 170.396 162.426 169.652 162.084 169.176 161.471 168.651 160.661 168.402 159.702 168.468 158.739 168.424 157.696 168.67 156.66 169.176 155.747 169.615 154.998 170.434 154.556 171.3 154.6 171.877 154.572 172.441 154.769 172.876 155.149 173.282 155.529 173.515 156.058 173.524 156.615L172.597 156.615C172.417 155.837 171.989 155.448 171.31 155.448 170.765 155.438 170.259 155.729 169.994 156.206 169.645 156.858 169.473 157.591 169.495 158.33Z" fill="#000000" fill-rule="nonzero" fill-opacity="1"/><path d="M192.962 129.578 221.674 129.578 221.674 158.29 192.962 158.29Z" fill="#FFFFFF" fill-rule="nonzero" fill-opacity="1"/><path d="M192.962 129.578 221.674 129.578 221.674 158.29 192.962 158.29Z" stroke="#000000" stroke-width="0.718049" stroke-linecap="butt" stroke-linejoin="miter" stroke-miterlimit="4" stroke-opacity="1" fill="none" fill-rule="nonzero"/><path d="M204.301 145.973 205.298 145.973C205.357 146.725 206.015 147.288 206.767 147.228 206.793 147.226 206.819 147.223 206.844 147.22 207.273 147.231 207.688 147.064 207.991 146.761 208.319 146.436 208.493 145.986 208.47 145.525 208.486 145.087 208.328 144.66 208.031 144.338 207.714 144.017 207.275 143.846 206.824 143.869 206.263 143.881 205.741 144.158 205.418 144.617L204.6 144.617 205.178 140.518 209.058 140.518 209.058 141.446 205.887 141.446 205.567 143.54C205.977 143.228 206.479 143.06 206.994 143.061 207.631 143.056 208.246 143.292 208.719 143.72 209.223 144.164 209.502 144.813 209.477 145.485 209.395 147.02 208.085 148.196 206.55 148.115 206.02 148.087 205.51 147.908 205.079 147.599 204.606 147.188 204.324 146.6 204.301 145.973Z" fill="#000000" fill-rule="nonzero" fill-opacity="1"/><path d="M228.854 108.036 257.566 108.036 257.566 136.748 228.854 136.748Z" fill="#FFFFFF" fill-rule="nonzero" fill-opacity="1"/><path d="M228.854 108.036 257.566 108.036 257.566 136.748 228.854 136.748Z" stroke="#000000" stroke-width="0.718049" stroke-linecap="butt" stroke-linejoin="miter" stroke-miterlimit="4" stroke-opacity="1" fill="none" fill-rule="nonzero"/><path d="M241.011 123.664 243.464 123.664 243.464 120.243ZM240.124 123.584 243.624 118.827 244.412 118.827 244.412 123.664 245.519 123.664 245.519 124.492 244.412 124.492 244.412 126.347 243.415 126.347 243.415 124.492 240.074 124.492Z" fill="#000000" fill-rule="nonzero" fill-opacity="1"/><path d="M243.205 72.144 271.917 72.144 271.917 100.856 243.205 100.856Z" fill="#FFFFFF" fill-rule="nonzero" fill-opacity="1"/><path d="M243.205 72.144 271.917 72.144 271.917 100.856 243.205 100.856Z" stroke="#000000" stroke-width="0.718049" stroke-linecap="butt" stroke-linejoin="miter" stroke-miterlimit="4" stroke-opacity="1" fill="none" fill-rule="nonzero"/><path d="M254.574 88.1206 255.572 88.1206C255.561 88.5692 255.701 89.0084 255.97 89.3672 256.294 89.6746 256.732 89.8304 257.177 89.7961 257.599 89.8004 258.011 89.6713 258.354 89.427 258.687 89.1634 258.87 88.7537 258.843 88.33 258.865 87.9507 258.71 87.5824 258.424 87.3327 258.061 87.0671 257.615 86.9397 257.167 86.9737L256.619 86.9737 256.619 86.1659 257.067 86.1659C258.065 86.1659 258.553 85.757 258.553 84.9293 258.565 84.583 258.428 84.2483 258.174 84.0118 257.896 83.7774 257.54 83.6563 257.177 83.6727 256.783 83.64 256.394 83.7865 256.12 84.0716 255.855 84.4094 255.713 84.8286 255.721 85.2584L254.784 85.2584C254.749 84.6054 254.97 83.9647 255.402 83.4732 255.894 83.0059 256.561 82.7701 257.237 82.825 257.851 82.7965 258.455 82.9953 258.932 83.3835 259.358 83.7529 259.594 84.296 259.571 84.8595 259.647 85.5557 259.235 86.2128 258.573 86.4452 258.975 86.5583 259.326 86.8044 259.571 87.1432 259.773 87.4615 259.874 87.8336 259.86 88.2104 259.878 88.8665 259.613 89.4987 259.132 89.9456 258.593 90.4103 257.897 90.6496 257.187 90.6138 256.539 90.643 255.901 90.4456 255.382 90.0553 254.86 89.5473 254.569 88.8486 254.574 88.1206Z" fill="#000000" fill-rule="nonzero" fill-opacity="1"/><path d="M228.854 36.2515 257.566 36.2515 257.566 64.9635 228.854 64.9635Z" fill="#FFFFFF" fill-rule="nonzero" fill-opacity="1"/><path d="M228.854 36.2515 257.566 36.2515 257.566 64.9635 228.854 64.9635Z" stroke="#000000" stroke-width="0.718049" stroke-linecap="butt" stroke-linejoin="miter" stroke-miterlimit="4" stroke-opacity="1" fill="none" fill-rule="nonzero"/><path d="M240.133 54.5618C240.152 53.9103 240.33 53.2735 240.652 52.7068 240.958 52.2509 241.368 51.8748 241.849 51.6098L243.385 50.6923C243.676 50.5346 243.931 50.3171 244.133 50.054 244.277 49.8064 244.35 49.5231 244.342 49.2362 244.35 48.8594 244.198 48.4967 243.923 48.2389 243.621 47.967 243.222 47.827 242.816 47.85 242.38 47.8123 241.954 47.9868 241.669 48.3187 241.402 48.7277 241.259 49.2061 241.26 49.695L240.333 49.695C240.288 48.9737 240.515 48.2617 240.971 47.7004 241.487 47.1603 242.223 46.8879 242.966 46.9624 243.604 46.9352 244.228 47.1528 244.711 47.5708 245.178 47.9994 245.43 48.6132 245.399 49.2462 245.41 49.6707 245.299 50.0894 245.08 50.4529 244.825 50.8225 244.482 51.1238 244.083 51.3305L242.796 52.0785C242.438 52.2916 242.104 52.5424 241.799 52.8265 241.566 53.0618 241.392 53.3489 241.29 53.6642L245.439 53.6642 245.439 54.5618Z" fill="#000000" fill-rule="nonzero" fill-opacity="1"/><path d="M192.962 14.72 221.674 14.72 221.674 43.432 192.962 43.432Z" fill="#FFFFFF" fill-rule="nonzero" fill-opacity="1"/><path d="M192.962 14.72 221.674 14.72 221.674 43.432 192.962 43.432Z" stroke="#000000" stroke-width="0.718049" stroke-linecap="butt" stroke-linejoin="miter" stroke-miterlimit="4" stroke-opacity="1" fill="none" fill-rule="nonzero"/><path d="M205.059 26.9268C205.554 26.9462 206.045 26.8252 206.475 26.5778 206.792 26.2911 207.009 25.91 207.093 25.4907L207.801 25.4907 207.801 33.0103 206.804 33.0103 206.804 27.6948 205.039 27.6948Z" fill="#000000" fill-rule="nonzero" fill-opacity="1"/><path d="M157.059 0.359025 185.771 0.359025 185.771 29.071 157.059 29.071Z" fill="#FFFFFF" fill-rule="nonzero" fill-opacity="1"/><path d="M157.059 0.359025 185.771 0.359025 185.771 29.071 157.059 29.071Z" stroke="#000000" stroke-width="0.718049" stroke-linecap="butt" stroke-linejoin="miter" stroke-miterlimit="4" stroke-opacity="1" fill="none" fill-rule="nonzero"/><path d="M169.475 14.9594C169.475 16.9938 170.004 18.0111 171.061 18.0111 172.118 18.0111 172.657 16.9938 172.677 14.9594 172.677 12.9648 172.138 11.9176 171.071 11.9176 170.004 11.9176 169.475 12.9648 169.475 14.9594ZM168.478 14.9594C168.428 13.9595 168.656 12.9653 169.136 12.0872 169.848 11.0062 171.301 10.7071 172.383 11.4191 172.621 11.5762 172.829 11.7755 172.996 12.0074 173.515 12.8751 173.759 13.8803 173.694 14.8895 173.747 15.8927 173.518 16.8908 173.036 17.7717 172.621 18.4683 171.85 18.873 171.041 18.8189 170.281 18.8305 169.567 18.4548 169.146 17.8216 168.628 16.9615 168.39 15.9608 168.468 14.9594Z" fill="#000000" fill-rule="nonzero" fill-opacity="1"/><path d="M56.5622 122.397 80.7066 122.397" stroke="#000000" stroke-width="0.718049" stroke-linecap="butt" stroke-linejoin="miter" stroke-miterlimit="10" stroke-opacity="1" fill="none" fill-rule="nonzero"/><path d="M84.4764 122.397 79.45 124.911 80.7066 122.397 79.45 119.884 84.4764 122.397Z" fill="#000000" fill-rule="nonzero" fill-opacity="1"/><path d="M84.4764 122.397 79.45 124.911 80.7066 122.397 79.45 119.884 84.4764 122.397Z" stroke="#000000" stroke-width="0.718049" stroke-linecap="butt" stroke-linejoin="miter" stroke-miterlimit="10" stroke-opacity="1" fill="none" fill-rule="nonzero"/><path d="M0.364876 102.113 0.364876 101.325 1.13279 101.325 1.13279 99.7291 2.13008 99.7291 2.13008 101.325 3.05756 101.325 3.05756 102.113 2.08022 102.113 2.08022 105.773C2.08022 106.072 2.2697 106.221 2.64867 106.221L2.98775 106.221 2.98775 106.979C2.72362 107.02 2.4571 107.043 2.18992 107.049 1.48184 107.049 1.13279 106.64 1.13279 105.832L1.13279 102.113Z" fill="#000000" fill-rule="nonzero" fill-opacity="1"/><path d="M7.34591 104.087C7.07688 104.241 6.77714 104.333 6.46829 104.356L5.79014 104.446C4.9923 104.556 4.59339 104.875 4.59339 105.444 4.59339 106.012 4.93247 106.441 5.59068 106.441 6.01998 106.447 6.43969 106.314 6.78743 106.062 7.13097 105.849 7.33308 105.468 7.31599 105.065ZM3.90526 103C3.90526 101.764 4.68314 101.145 6.16911 101.145 6.70744 101.123 7.23967 101.266 7.69496 101.554 8.08626 101.815 8.31309 102.261 8.29334 102.731L8.29334 106.012C8.28446 106.109 8.31302 106.205 8.37312 106.281 8.43719 106.326 8.51468 106.347 8.59252 106.341 8.70201 106.351 8.81215 106.351 8.92163 106.341L8.92163 107.029C8.74414 107.087 8.55962 107.121 8.37312 107.129 8.11432 107.152 7.8567 107.073 7.65507 106.91 7.49698 106.73 7.4085 106.501 7.40575 106.261 6.91394 106.853 6.1806 107.191 5.41117 107.179 4.94045 107.179 4.48475 107.013 4.12466 106.71 3.75467 106.406 3.55416 105.941 3.58612 105.463 3.58612 104.466 4.15458 103.868 5.28152 103.718L6.76748 103.529C6.93674 103.521 7.09685 103.45 7.21626 103.329 7.3051 103.186 7.34695 103.019 7.33594 102.851 7.33594 102.232 6.9071 101.923 6.04943 101.923 5.71399 101.889 5.37846 101.986 5.11198 102.192 4.90382 102.41 4.774 102.691 4.74298 102.99Z" fill="#000000" fill-rule="nonzero" fill-opacity="1"/><path d="M9.91892 99.2304 10.8663 99.2304 10.8663 100.317 9.91892 100.317ZM9.91892 101.325 10.8663 101.325 10.8663 106.959 9.91892 106.959Z" fill="#000000" fill-rule="nonzero" fill-opacity="1"/><path d="M12.3124 99.2204 13.2598 99.2204 13.2598 106.959 12.3124 106.959Z" fill="#000000" fill-rule="nonzero" fill-opacity="1"/><path d="M15.9525 100.138 15.9525 102.801 18.0269 102.801C19.0242 102.801 19.5827 102.332 19.5827 101.414 19.5827 100.497 19.084 100.138 18.0668 100.138ZM14.9054 99.2204 18.3759 99.2204C18.9908 99.1883 19.592 99.408 20.0414 99.8288 20.4658 100.249 20.6938 100.828 20.6697 101.424 20.7491 102.611 19.8512 103.638 18.6642 103.717 18.5715 103.724 18.4786 103.724 18.3859 103.718L15.9525 103.718 15.9525 106.979 14.9054 106.979Z" fill="#000000" fill-rule="nonzero" fill-opacity="1"/><path d="M21.308 102.113 21.308 101.325 22.0759 101.325 22.0759 99.7291 23.0233 99.7291 23.0233 101.325 23.9508 101.325 23.9508 102.113 23.0233 102.113 23.0233 105.773C23.0233 106.072 23.2128 106.221 23.6017 106.221L23.9309 106.221 23.9309 106.979C23.6668 107.02 23.4002 107.043 23.133 107.049 22.4349 107.049 22.0759 106.64 22.0759 105.832L22.0759 102.113Z" fill="#000000" fill-rule="nonzero" fill-opacity="1"/><path d="M24.978 106.959 24.978 101.325 25.8656 101.325 25.8656 102.262C26.0533 101.919 26.3117 101.62 26.6235 101.385 26.8724 101.222 27.1643 101.139 27.4613 101.145 27.5373 101.133 27.6146 101.133 27.6906 101.145L27.6906 102.143 27.3416 102.143C26.9598 102.141 26.5959 102.304 26.3443 102.591 26.085 102.889 25.9463 103.273 25.9554 103.668L25.9554 106.949Z" fill="#000000" fill-rule="nonzero" fill-opacity="1"/><path d="M31.1512 103.818C31.4098 103.808 31.641 103.654 31.7496 103.419 31.9109 103.148 31.9937 102.837 31.989 102.521L31.989 100.637C31.9726 100.274 32.0937 99.9175 32.328 99.6393 32.529 99.401 32.8242 99.2626 33.1358 99.2603L33.8439 99.2603 33.8439 99.9684 33.3852 99.9684C33.0162 99.9684 32.8367 100.288 32.8367 100.966L32.8367 102.631C32.9079 103.303 32.5314 103.943 31.9092 104.207 32.5307 104.477 32.9059 105.118 32.8367 105.793L32.8367 107.518C32.8367 108.126 33.0162 108.425 33.3752 108.425L33.8439 108.425 33.8439 109.134 33.1558 109.134C32.8084 109.153 32.4759 108.991 32.2782 108.705 32.0682 108.415 31.9596 108.064 31.969 107.707L31.969 105.952C31.9867 105.602 31.8999 105.255 31.7197 104.955 31.6073 104.726 31.3849 104.572 31.1313 104.546Z" fill="#000000" fill-rule="nonzero" fill-opacity="1"/><path d="M8.8219 118.847 10.3777 114.25 11.4149 114.25 9.31057 119.884 8.30331 119.884 6.27881 114.25 7.37583 114.25 8.8219 118.847Z" fill="#000000" fill-rule="nonzero" fill-opacity="1"/><path d="M15.6932 117.002C15.4276 117.164 15.126 117.255 14.8156 117.271L14.1375 117.371C13.3396 117.481 12.9407 117.79 12.9407 118.368 12.9407 118.947 13.2798 119.366 13.938 119.366 14.3707 119.374 14.7943 119.241 15.1447 118.987 15.4851 118.771 15.6863 118.392 15.6733 117.989ZM12.2426 115.915C12.2426 114.688 13.0305 114.07 14.5164 114.07 15.0552 114.045 15.5883 114.188 16.0423 114.479 16.4335 114.735 16.6608 115.178 16.6407 115.646L16.6407 118.927C16.6284 119.024 16.6573 119.121 16.7204 119.196 16.7808 119.249 16.8602 119.274 16.9398 119.266 17.0458 119.28 17.1531 119.28 17.259 119.266L17.259 119.954C17.0854 120.015 16.9041 120.052 16.7204 120.064 16.2733 120.159 15.8337 119.873 15.7385 119.427 15.7217 119.348 15.7166 119.267 15.7232 119.186 15.2342 119.783 14.5 120.125 13.7286 120.114 13.2742 120.122 12.8309 119.973 12.472 119.695 12.102 119.391 11.9015 118.926 11.9334 118.448 11.9334 117.451 12.5019 116.853 13.6288 116.703L15.1048 116.513C15.2776 116.507 15.4417 116.437 15.5636 116.314 15.6524 116.17 15.6942 116.004 15.6833 115.835 15.6833 115.217 15.2544 114.908 14.3968 114.908 14.0583 114.875 13.7198 114.971 13.4493 115.177 13.2504 115.396 13.1248 115.672 13.0903 115.965Z" fill="#000000" fill-rule="nonzero" fill-opacity="1"/><path d="M18.2962 112.145 19.2436 112.145 19.2436 119.884 18.2962 119.884Z" fill="#000000" fill-rule="nonzero" fill-opacity="1"/><path d="M20.6897 114.25 21.6371 114.25 21.6371 117.979C21.6371 118.807 22.0061 119.226 22.7541 119.226 23.1733 119.237 23.5768 119.066 23.861 118.757 24.179 118.364 24.3358 117.866 24.2999 117.361L24.2999 114.25 25.2971 114.25 25.2971 119.884 24.4096 119.884 24.4096 119.047C24.2577 119.322 24.0465 119.56 23.7912 119.745 23.4419 119.971 23.0304 120.083 22.6144 120.064 22.1191 120.09 21.6319 119.929 21.2481 119.615 20.8899 119.279 20.7029 118.798 20.7395 118.309Z" fill="#000000" fill-rule="nonzero" fill-opacity="1"/><path d="M27.3615 116.613 30.503 116.613C30.4909 116.13 30.3191 115.663 30.0143 115.287 29.747 115.03 29.3871 114.894 29.017 114.908 28.5882 114.893 28.1736 115.063 27.8801 115.377 27.5607 115.711 27.376 116.151 27.3615 116.613ZM27.3615 117.361C27.3302 117.853 27.4713 118.34 27.7604 118.737 28.0634 119.081 28.5104 119.262 28.9672 119.226 29.3275 119.234 29.6794 119.117 29.9645 118.897 30.2288 118.718 30.4117 118.442 30.4731 118.129L31.4105 118.129C31.3076 118.679 31.0231 119.177 30.6027 119.545 30.1461 119.903 29.5769 120.087 28.9971 120.064 28.2848 120.096 27.5923 119.824 27.0923 119.316 26.5827 118.718 26.3284 117.945 26.3842 117.162 26.3482 116.363 26.5915 115.577 27.0723 114.938 27.5577 114.343 28.3009 114.019 29.0669 114.07 29.7643 114.029 30.4378 114.33 30.872 114.878 31.3389 115.619 31.5653 116.487 31.5202 117.361Z" fill="#000000" fill-rule="nonzero" fill-opacity="1"/><path d="M32.358 115.686 37.8231 115.686 37.8231 116.474 32.358 116.474ZM32.358 117.9 37.8231 117.9 37.8231 118.678 32.358 118.678Z" fill="#000000" fill-rule="nonzero" fill-opacity="1"/><path d="M39.9075 114.309C39.9092 114.619 40.0307 114.916 40.2465 115.137 40.5054 115.406 40.8714 115.546 41.2438 115.516 41.5853 115.528 41.9179 115.406 42.1713 115.177 42.4206 114.951 42.556 114.626 42.5403 114.29 42.5623 113.956 42.4163 113.634 42.1514 113.432 41.8639 113.219 41.5112 113.114 41.1541 113.133 40.8242 113.123 40.5017 113.232 40.2465 113.442 40.0126 113.668 39.8887 113.984 39.9075 114.309ZM39.6482 117.75C39.6361 118.143 39.7836 118.525 40.057 118.807 40.3804 119.107 40.814 119.259 41.2538 119.226 41.6618 119.25 42.0618 119.105 42.3608 118.827 42.6274 118.565 42.7721 118.204 42.7597 117.83 42.7799 117.431 42.6357 117.042 42.3608 116.753 42.0462 116.466 41.629 116.318 41.2039 116.344 40.7961 116.33 40.3977 116.469 40.087 116.733 39.7948 116.988 39.6335 117.362 39.6482 117.75ZM39.9174 115.865C39.2969 115.64 38.8935 115.038 38.9201 114.379 38.9053 113.811 39.1339 113.262 39.5484 112.873 40.0076 112.464 40.6096 112.253 41.2239 112.285 41.8216 112.266 42.4073 112.456 42.8794 112.823 43.3238 113.178 43.5722 113.722 43.5476 114.29 43.5811 114.971 43.1813 115.598 42.5503 115.855 43.2879 116.163 43.7706 116.881 43.7769 117.68 43.796 118.315 43.5461 118.926 43.0888 119.366 42.594 119.829 41.931 120.071 41.2538 120.034 40.5778 120.062 39.9139 119.849 39.3789 119.436 38.8816 119.013 38.609 118.382 38.6409 117.73 38.6086 116.895 39.1272 116.137 39.9174 115.865Z" fill="#000000" fill-rule="nonzero" fill-opacity="1"/><path d="M6.34862 127.165 7.09659 127.165 7.09659 126.257C7.06112 125.884 7.20116 125.515 7.47556 125.26 7.78575 125.038 8.16215 124.93 8.54266 124.951L8.7122 124.951 8.97149 124.951 8.97149 125.798 8.61247 125.798C8.45088 125.784 8.29221 125.847 8.18363 125.968 8.08151 126.113 8.03225 126.289 8.04401 126.466L8.04401 127.174 8.97149 127.174 8.97149 127.962 8.06396 127.962 8.06396 132.809 7.06667 132.809 7.06667 127.952 6.34862 127.952Z" fill="#000000" fill-rule="nonzero" fill-opacity="1"/><path d="M9.90895 125.06 10.8564 125.06 10.8564 132.799 9.90895 132.799Z" fill="#000000" fill-rule="nonzero" fill-opacity="1"/><path d="M15.6932 129.927C15.4236 130.079 15.1242 130.171 14.8156 130.196L14.1375 130.286C13.3396 130.396 12.9407 130.715 12.9407 131.283 12.9407 131.852 13.2798 132.281 13.938 132.281 14.3707 132.289 14.7943 132.156 15.1447 131.902 15.4883 131.689 15.6903 131.308 15.6733 130.904ZM12.2426 128.84C12.2426 127.603 13.0005 126.985 14.5164 126.985 15.0547 126.964 15.5865 127.107 16.0423 127.394 16.4336 127.655 16.6604 128.101 16.6407 128.571L16.6407 131.852C16.6318 131.949 16.6603 132.045 16.7204 132.121 16.7832 132.169 16.8608 132.194 16.9398 132.191 17.0474 132.183 17.1542 132.166 17.259 132.141L17.259 132.829C17.0854 132.89 16.9041 132.927 16.7204 132.939 16.4603 132.959 16.2025 132.877 16.0024 132.709 15.8443 132.53 15.7559 132.301 15.7531 132.061 15.2631 132.656 14.5285 132.994 13.7585 132.979 13.3061 132.984 12.8646 132.84 12.5019 132.57 12.1303 132.263 11.9298 131.795 11.9634 131.313 11.9634 130.316 12.5318 129.718 13.6588 129.578L15.1348 129.379C15.3085 129.378 15.4741 129.305 15.5935 129.179 15.685 129.037 15.727 128.869 15.7132 128.7 15.7132 128.082 15.2843 127.773 14.4267 127.773 14.0882 127.74 13.7497 127.836 13.4792 128.042 13.2801 128.265 13.1546 128.544 13.1202 128.84Z" fill="#000000" fill-rule="nonzero" fill-opacity="1"/><path d="M18.9743 129.887C18.9441 130.466 19.0827 131.041 19.3732 131.543 19.6137 131.927 20.0371 132.157 20.4902 132.151 20.9344 132.17 21.3582 131.964 21.6171 131.602 21.9179 131.157 22.0617 130.623 22.026 130.087 22.026 128.581 21.5074 127.823 20.4603 127.823 19.4131 127.823 18.9743 128.511 18.9743 129.887ZM18.1665 133.447 19.1139 133.447C19.2336 134.016 19.6624 134.305 20.3905 134.305 20.8282 134.336 21.2598 134.188 21.5872 133.896 21.8837 133.505 22.0257 133.019 21.9861 132.53L21.9861 132.161C21.662 132.699 21.0672 133.014 20.4403 132.979 19.7462 133.001 19.0847 132.685 18.6652 132.131 18.1928 131.466 17.9576 130.662 17.997 129.847 17.9803 129.133 18.1974 128.432 18.6153 127.853 19.0101 127.311 19.6509 127.004 20.3207 127.035 20.6703 127.018 21.0172 127.105 21.318 127.284 21.6192 127.472 21.8748 127.723 22.0659 128.022L22.0659 127.214 22.9535 127.214 22.9535 132.35C23.0419 133.145 22.8004 133.942 22.2853 134.554 21.7495 135.004 21.0584 135.227 20.3606 135.173 19.8449 135.197 19.3338 135.065 18.8945 134.794 18.4598 134.479 18.1918 133.984 18.1665 133.447Z" fill="#000000" fill-rule="nonzero" fill-opacity="1"/><path d="M23.9807 128.571 29.4459 128.571 29.4459 129.359 23.9807 129.359ZM23.9807 130.785 29.4459 130.785 29.4459 131.573 23.9807 131.573Z" fill="#000000" fill-rule="nonzero" fill-opacity="1"/><path d="M30.0143 127.165 30.7723 127.165 30.7723 126.257C30.7327 125.885 30.8692 125.516 31.1413 125.26 31.4521 125.039 31.828 124.931 32.2084 124.951L32.3879 124.951 32.6372 124.951 32.6372 125.798 32.2782 125.798C32.1173 125.789 31.9604 125.851 31.8493 125.968 31.7515 126.114 31.7058 126.29 31.7197 126.466L31.7197 127.174 32.6372 127.174 32.6372 127.962 31.7197 127.962 31.7197 132.809 30.7224 132.809 30.7224 127.952 29.9645 127.952Z" fill="#000000" fill-rule="nonzero" fill-opacity="1"/><path d="M36.9555 129.927C36.682 130.079 36.3795 130.17 36.0679 130.196L35.3897 130.286C34.5919 130.396 34.2029 130.715 34.2029 131.283 34.2029 131.852 34.542 132.281 35.2002 132.281 35.633 132.289 36.0565 132.156 36.407 131.902 36.7473 131.686 36.9485 131.307 36.9355 130.904ZM33.5048 128.84C33.5048 127.603 34.2927 126.985 35.7687 126.985 36.3102 126.963 36.8457 127.106 37.3045 127.394 37.6959 127.655 37.9226 128.101 37.9029 128.571L37.9029 131.852C37.8912 131.948 37.9162 132.043 37.9727 132.121 38.0392 132.169 38.12 132.194 38.2021 132.191L38.5212 132.141 38.5212 132.829C38.3441 132.89 38.1596 132.927 37.9727 132.939 37.5255 133.034 37.0859 132.748 36.9908 132.302 36.9739 132.223 36.9688 132.142 36.9754 132.061 36.4837 132.653 35.7502 132.991 34.9808 132.979 34.5311 132.987 34.0917 132.843 33.7342 132.57 33.3589 132.265 33.1545 131.796 33.1857 131.313 33.1857 130.316 33.7542 129.718 34.8911 129.578L36.3671 129.379C36.538 129.379 36.701 129.306 36.8158 129.179 36.9073 129.037 36.9494 128.869 36.9355 128.7 36.9355 128.082 36.5067 127.773 35.649 127.773 35.3136 127.739 34.978 127.836 34.7116 128.042 34.5052 128.261 34.3758 128.541 34.3426 128.84Z" fill="#000000" fill-rule="nonzero" fill-opacity="1"/><path d="M39.5484 125.06 40.4959 125.06 40.4959 132.799 39.5484 132.799Z" fill="#000000" fill-rule="nonzero" fill-opacity="1"/><path d="M41.543 131.044 42.4705 131.044C42.4705 131.782 42.9891 132.151 43.9265 132.151 44.2759 132.178 44.6248 132.094 44.9238 131.912 45.1528 131.768 45.2892 131.514 45.2828 131.243 45.29 131.053 45.2046 130.87 45.0535 130.755 44.7753 130.604 44.4761 130.496 44.1659 130.436L43.0589 130.156C42.1912 129.947 41.7524 129.488 41.7524 128.77 41.739 128.282 41.9437 127.815 42.3109 127.494 42.7623 127.127 43.3362 126.945 43.9166 126.985 44.4435 126.964 44.9626 127.119 45.3925 127.424 45.7942 127.748 46.0315 128.234 46.0408 128.75L45.1033 128.75C45.1033 128.132 44.6346 127.823 43.8268 127.823 43.019 127.823 42.6799 128.092 42.6799 128.631 42.6616 128.833 42.7682 129.026 42.9492 129.119 43.1897 129.238 43.4444 129.325 43.7071 129.379L44.6346 129.608C45.0784 129.696 45.4952 129.887 45.8513 130.166 46.1023 130.416 46.2363 130.76 46.2203 131.114 46.235 131.63 46.015 132.125 45.6219 132.46 45.1376 132.839 44.5297 133.024 43.9166 132.979 43.3306 133.01 42.7491 132.86 42.2511 132.55 41.7905 132.188 41.528 131.629 41.543 131.044Z" fill="#000000" fill-rule="nonzero" fill-opacity="1"/><path d="M48.0154 129.538 51.1569 129.538C51.147 129.053 50.975 128.587 50.6682 128.212 50.4019 127.952 50.0422 127.813 49.6709 127.823 49.2403 127.809 48.8249 127.983 48.534 128.301 48.2088 128.632 48.0231 129.074 48.0154 129.538ZM48.0154 130.276C47.9841 130.768 48.1252 131.254 48.4143 131.652 48.7163 131.998 49.1629 132.183 49.6211 132.151 49.9798 132.149 50.3288 132.033 50.6183 131.822 50.8833 131.639 51.066 131.36 51.127 131.044L52.0545 131.044C51.8801 132.221 50.8278 133.064 49.641 132.979 48.9315 133.012 48.2417 132.739 47.7462 132.231 47.233 131.635 46.975 130.861 47.0281 130.077 46.9975 129.277 47.2441 128.491 47.7262 127.853 48.2116 127.258 48.9548 126.934 49.7208 126.985 50.4171 126.946 51.0881 127.252 51.5159 127.803 51.9911 128.537 52.2215 129.402 52.1741 130.276Z" fill="#000000" fill-rule="nonzero" fill-opacity="1"/><path d="M3.35675 143.181C3.1054 143.197 2.88136 143.345 2.76835 143.57 2.58895 143.871 2.49901 144.217 2.50905 144.567L2.50905 146.303C2.5258 146.684 2.42105 147.061 2.20986 147.38 2.01175 147.659 1.68417 147.817 1.34222 147.798L0.634144 147.798 0.634144 147.09 1.0929 147.09C1.45192 147.09 1.64141 146.781 1.64141 146.173L1.64141 144.418C1.57062 143.745 1.9413 143.105 2.55892 142.832 1.93995 142.571 1.56654 141.933 1.64141 141.266L1.64141 139.621C1.64141 138.972 1.45192 138.623 1.08293 138.623L0.634144 138.623 0.634144 137.915 1.36217 137.915C1.66819 137.92 1.95787 138.055 2.16 138.284 2.39184 138.564 2.51256 138.919 2.49908 139.282L2.49908 141.147C2.49952 141.451 2.57852 141.75 2.72845 142.014 2.83428 142.264 3.07624 142.427 3.34677 142.433Z" fill="#000000" fill-rule="nonzero" fill-opacity="1"/><path d="M300.639 86.505 276.495 86.505" stroke="#000000" stroke-width="0.718049" stroke-linecap="butt" stroke-linejoin="miter" stroke-miterlimit="10" stroke-opacity="1" fill="none" fill-rule="nonzero"/><path d="M272.725 86.505 277.751 83.9918 276.495 86.505 277.751 89.0182 272.725 86.505Z" fill="#000000" fill-rule="nonzero" fill-opacity="1"/><path d="M272.725 86.505 277.751 83.9918 276.495 86.505 277.751 89.0182 272.725 86.505Z" stroke="#000000" stroke-width="0.718049" stroke-linecap="butt" stroke-linejoin="miter" stroke-miterlimit="10" stroke-opacity="1" fill="none" fill-rule="nonzero"/><path d="M302.404 63.328 303.352 63.328 303.352 66.1802C303.725 65.5905 304.379 65.2388 305.077 65.2527 305.599 65.2218 306.107 65.4182 306.473 65.7913 306.822 66.1854 307.002 66.7016 306.972 67.2274L306.972 71.0669 306.024 71.0669 306.024 67.347C306.065 66.9908 305.966 66.6327 305.745 66.3497 305.52 66.1461 305.221 66.045 304.917 66.0705 304.48 66.0491 304.055 66.2247 303.761 66.5492 303.461 66.9543 303.316 67.4529 303.352 67.9554L303.352 71.047 302.404 71.047Z" fill="#000000" fill-rule="nonzero" fill-opacity="1"/><path d="M309.106 67.8158 312.258 67.8158C312.246 67.3318 312.074 66.8654 311.769 66.4894 311.498 66.2387 311.141 66.1029 310.772 66.1104 310.343 66.0951 309.928 66.2661 309.635 66.5791 309.314 66.9128 309.125 67.3528 309.106 67.8158ZM309.106 68.5637C309.08 69.0544 309.221 69.5395 309.505 69.94 309.813 70.2827 310.262 70.4632 310.722 70.4287 311.08 70.433 311.43 70.321 311.719 70.1095 311.984 69.927 312.167 69.6476 312.228 69.3316L313.155 69.3316C313.057 69.8807 312.776 70.3801 312.357 70.7478 311.9 71.1113 311.325 71.2957 310.742 71.2664 310.03 71.2973 309.337 71.0255 308.837 70.5184 308.327 69.921 308.073 69.1474 308.129 68.3643 308.098 67.5646 308.345 66.779 308.827 66.1403 309.313 65.5455 310.056 65.2223 310.821 65.2727 311.519 65.2287 312.192 65.5355 312.617 66.0904 313.092 66.8247 313.323 67.6904 313.275 68.5637Z" fill="#000000" fill-rule="nonzero" fill-opacity="1"/><path d="M317.802 68.1947C317.533 68.3468 317.233 68.4387 316.925 68.464L316.247 68.5538C315.449 68.6635 315.05 68.9826 315.05 69.551 315.05 70.1195 315.389 70.5483 316.047 70.5483 316.48 70.5563 316.904 70.4233 317.254 70.1694 317.597 69.9569 317.799 69.5756 317.783 69.1721ZM314.362 67.1077C314.362 65.871 315.14 65.2527 316.626 65.2527 317.164 65.2322 317.696 65.3747 318.152 65.6616 318.542 65.9225 318.77 66.3686 318.75 66.8384L318.75 70.1195C318.741 70.2161 318.77 70.3126 318.83 70.3888 318.894 70.4333 318.971 70.4545 319.049 70.4486 319.155 70.4587 319.263 70.4587 319.368 70.4486L319.368 71.1367C319.194 71.1946 319.013 71.2282 318.83 71.2365 318.57 71.2597 318.313 71.1809 318.112 71.0171 317.953 70.8378 317.865 70.6078 317.862 70.3688 317.37 70.9595 316.637 71.2966 315.868 71.2863 315.406 71.2771 314.962 71.1078 314.611 70.8076 314.241 70.5032 314.041 70.039 314.073 69.561 314.073 68.5637 314.641 67.9654 315.768 67.8158L317.244 67.6263C317.417 67.6207 317.581 67.5493 317.703 67.4268 317.792 67.2836 317.833 67.1163 317.822 66.9481 317.822 66.3298 317.394 66.0206 316.536 66.0206 316.198 65.9875 315.859 66.0837 315.588 66.2899 315.388 66.5113 315.262 66.7906 315.229 67.0877Z" fill="#000000" fill-rule="nonzero" fill-opacity="1"/><path d="M321.024 68.1449C320.994 68.7256 321.129 69.3028 321.413 69.8103 321.65 70.1967 322.077 70.4254 322.53 70.4087 322.974 70.43 323.401 70.228 323.667 69.8702 323.959 69.4209 324.099 68.8893 324.065 68.3543 324.108 67.7598 323.973 67.1659 323.677 66.6489 323.412 66.2714 322.969 66.0595 322.51 66.0904 321.492 66.0904 321.024 66.8185 321.024 68.1449ZM324.085 66.26 324.085 63.328 325.033 63.328 325.033 71.0669 324.145 71.0669 324.145 70.319C323.825 70.9187 323.189 71.28 322.51 71.2464 321.808 71.2672 321.139 70.9478 320.715 70.3888 320.238 69.726 320.003 68.9202 320.046 68.105 320.007 67.3629 320.234 66.6312 320.685 66.0406 321.08 65.519 321.706 65.2245 322.36 65.2527 323.081 65.2286 323.752 65.6202 324.085 66.26Z" fill="#000000" fill-rule="nonzero" fill-opacity="1"/><path d="M327.646 64.2455 327.646 66.9082 329.71 66.9082C330.757 66.9082 331.276 66.4395 331.276 65.522 331.276 64.6045 330.767 64.2455 329.76 64.2455ZM326.599 63.328 330.059 63.328C330.674 63.2946 331.276 63.5144 331.725 63.9363 332.15 64.3563 332.377 64.9354 332.353 65.532 332.383 66.1461 332.151 66.7439 331.715 67.1775 331.276 67.6044 330.681 67.8317 330.069 67.8058L327.646 67.8058 327.646 71.0669 326.599 71.0669Z" fill="#000000" fill-rule="nonzero" fill-opacity="1"/><path d="M333.001 66.2201 333.001 65.4322 333.769 65.4322 333.769 63.8266 334.717 63.8266 334.717 65.4223 335.644 65.4223 335.644 66.2101 334.717 66.2101 334.717 69.8702C334.717 70.1694 334.906 70.319 335.285 70.319L335.624 70.319 335.624 71.0769C335.36 71.1172 335.094 71.1405 334.826 71.1467 334.118 71.1467 333.769 70.7378 333.769 69.93L333.769 66.2201Z" fill="#000000" fill-rule="nonzero" fill-opacity="1"/><path d="M336.671 71.0669 336.671 65.4322 337.559 65.4322 337.559 66.3697C337.743 66.0276 337.999 65.7285 338.307 65.4921 338.557 65.3326 338.848 65.2494 339.145 65.2527 339.223 65.2399 339.305 65.2399 339.384 65.2527L339.384 66.25 339.025 66.25C338.642 66.2438 338.277 66.4083 338.028 66.6988 337.768 66.9968 337.63 67.3809 337.639 67.7759L337.639 71.057Z" fill="#000000" fill-rule="nonzero" fill-opacity="1"/><path d="M342.834 67.9255C343.095 67.9203 343.328 67.7647 343.433 67.5265 343.601 67.2581 343.688 66.9461 343.682 66.629L343.682 64.7441C343.659 64.3664 343.776 63.9935 344.011 63.6969 344.217 63.4656 344.51 63.3315 344.819 63.328L345.527 63.328 345.527 64.036 345.078 64.036C344.709 64.036 344.53 64.3552 344.53 65.0333L344.53 66.6988C344.601 67.3709 344.225 68.0105 343.602 68.2745 344.206 68.5387 344.577 69.1537 344.53 69.8103L344.53 71.5357C344.53 72.144 344.709 72.4432 345.068 72.4432L345.527 72.4432 345.527 73.1513 344.849 73.1513C344.512 73.1686 344.19 73.0148 343.991 72.7424 343.782 72.453 343.673 72.1024 343.682 71.7451L343.682 69.9699C343.695 69.6206 343.608 69.2747 343.433 68.9726 343.316 68.7436 343.091 68.5897 342.834 68.5637Z" fill="#000000" fill-rule="nonzero" fill-opacity="1"/><path d="M310.323 82.9546 311.879 78.3571 312.906 78.3571 310.811 83.9918 309.794 83.9918 307.78 78.3571 308.877 78.3571 310.323 82.9546Z" fill="#000000" fill-rule="nonzero" fill-opacity="1"/><path d="M317.194 81.1096C316.929 81.2707 316.627 81.3633 316.316 81.3789L315.638 81.4786C314.841 81.5883 314.442 81.8975 314.442 82.4759 314.442 83.0544 314.781 83.4732 315.439 83.4732 315.871 83.4763 316.293 83.3437 316.646 83.0943 316.982 82.8748 317.181 82.4982 317.174 82.097ZM313.744 80.0226C313.744 78.7959 314.531 78.1776 316.017 78.1776 316.556 78.1526 317.089 78.2954 317.543 78.5865 317.934 78.8428 318.161 79.2861 318.142 79.7533L318.142 83.0344C318.132 83.1297 318.157 83.2252 318.211 83.3037 318.276 83.3558 318.358 83.3809 318.441 83.3735L318.76 83.3735 318.76 84.0616C318.583 84.1238 318.399 84.1608 318.211 84.1713 317.956 84.1919 317.703 84.1133 317.503 83.9519 317.343 83.7701 317.254 83.5362 317.254 83.2937 316.764 83.8893 316.03 84.2305 315.259 84.2212 314.805 84.2288 314.362 84.081 314.003 83.8023 313.633 83.498 313.432 83.0338 313.464 82.5557 313.464 81.5584 314.033 80.9601 315.16 80.8105L316.636 80.621C316.808 80.6154 316.973 80.544 317.094 80.4215 317.183 80.2783 317.225 80.111 317.214 79.9428 317.214 79.3245 316.785 79.0153 315.928 79.0153 315.589 78.9822 315.25 79.0784 314.98 79.2846 314.781 79.5033 314.656 79.7788 314.621 80.0725Z" fill="#000000" fill-rule="nonzero" fill-opacity="1"/><path d="M319.797 76.2528 320.744 76.2528 320.744 83.9918 319.797 83.9918Z" fill="#000000" fill-rule="nonzero" fill-opacity="1"/><path d="M322.191 78.3571 323.128 78.3571 323.128 82.087C323.128 82.9147 323.507 83.3336 324.255 83.3336 324.674 83.3428 325.077 83.1721 325.362 82.8649 325.68 82.4718 325.837 81.9729 325.801 81.4687L325.801 78.3571 326.748 78.3571 326.748 83.9918 325.861 83.9918 325.861 83.1541C325.709 83.4297 325.498 83.6682 325.242 83.8522 324.893 84.0788 324.481 84.1904 324.065 84.1713 323.57 84.1969 323.083 84.0368 322.699 83.7225 322.341 83.3863 322.154 82.9061 322.191 82.4161Z" fill="#000000" fill-rule="nonzero" fill-opacity="1"/><path d="M328.862 80.7207 332.004 80.7207C331.992 80.2368 331.82 79.7704 331.515 79.3943 331.249 79.1354 330.889 78.9951 330.518 79.0054 330.088 78.994 329.673 79.1684 329.381 79.4841 329.062 79.8183 328.877 80.2587 328.862 80.7207ZM328.862 81.4687C328.832 81.9598 328.972 82.4466 329.261 82.8449 329.568 83.1847 330.012 83.365 330.468 83.3336 330.828 83.3365 331.178 83.2208 331.465 83.0045 331.73 82.8259 331.912 82.5497 331.974 82.2366L332.901 82.2366C332.718 83.4167 331.659 84.2583 330.468 84.1713 329.759 84.2044 329.069 83.9322 328.573 83.4234 328.06 82.8276 327.802 82.0537 327.855 81.2692 327.823 80.4694 328.07 79.6831 328.553 79.0453 329.039 78.4505 329.782 78.1273 330.548 78.1776 331.243 78.1349 331.914 78.437 332.343 78.9854 332.82 79.7227 333.05 80.5921 333.001 81.4687Z" fill="#000000" fill-rule="nonzero" fill-opacity="1"/><path d="M333.859 79.7832 339.324 79.7832 339.324 80.5711 333.859 80.5711ZM333.859 81.9972 339.324 81.9972 339.324 82.7751 333.859 82.7751Z" fill="#000000" fill-rule="nonzero" fill-opacity="1"/><path d="M340.092 81.6581 341.089 81.6581C341.065 82.1084 341.207 82.5519 341.488 82.9048 341.805 83.2161 342.242 83.3729 342.685 83.3336 343.111 83.3476 343.529 83.2175 343.872 82.9646 344.205 82.7009 344.387 82.2912 344.36 81.8676 344.382 81.4882 344.228 81.1199 343.941 80.8703 343.575 80.6039 343.127 80.4766 342.675 80.5113L342.136 80.5113 342.136 79.6935 342.585 79.6935C343.582 79.6935 344.071 79.2846 344.071 78.4568 344.086 78.113 343.947 77.7804 343.692 77.5493 343.417 77.3087 343.06 77.1836 342.695 77.2003 342.302 77.1744 341.916 77.3199 341.638 77.5992 341.378 77.9444 341.239 78.3644 341.239 78.7959L340.311 78.7959C340.273 78.1396 340.496 77.4948 340.93 77.0008 341.423 76.5368 342.09 76.3015 342.765 76.3526 343.379 76.325 343.982 76.5237 344.46 76.9111 344.88 77.2847 345.114 77.825 345.098 78.387 345.179 79.084 344.764 79.7435 344.101 79.9727 344.5 80.0921 344.85 80.3368 345.098 80.6708 345.296 80.9908 345.393 81.3624 345.378 81.7379 345.402 82.3933 345.14 83.0268 344.66 83.4732 343.566 84.3212 342.051 84.3656 340.91 83.5829 340.387 83.079 340.092 82.3842 340.092 81.6581Z" fill="#000000" fill-rule="nonzero" fill-opacity="1"/><path d="M307.859 91.272 308.617 91.272 308.617 90.3545C308.581 89.981 308.721 89.6118 308.996 89.3572 309.305 89.132 309.683 89.0227 310.064 89.0481L310.233 89.0481 310.492 89.0481 310.492 89.8958 310.133 89.8958C309.972 89.8821 309.813 89.9448 309.704 90.0653 309.603 90.2107 309.553 90.3866 309.565 90.564L309.565 91.272 310.522 91.272 310.522 92.0599 309.525 92.0599 309.525 96.9067 308.528 96.9067 308.528 92.0599 307.77 92.0599Z" fill="#000000" fill-rule="nonzero" fill-opacity="1"/><path d="M311.41 89.1678 312.357 89.1678 312.357 96.9067 311.41 96.9067Z" fill="#000000" fill-rule="nonzero" fill-opacity="1"/><path d="M317.194 94.0345C316.925 94.1866 316.625 94.2785 316.316 94.3038L315.638 94.3936C314.841 94.5033 314.442 94.8224 314.442 95.341 314.442 95.8596 314.781 96.3383 315.439 96.3383 315.872 96.3463 316.296 96.2132 316.646 95.9593 316.986 95.744 317.187 95.3646 317.174 94.962ZM313.744 92.9475C313.744 91.7108 314.501 91.0925 316.017 91.0925 316.556 91.072 317.087 91.2145 317.543 91.5014 317.934 91.7623 318.161 92.2084 318.142 92.6782L318.142 95.9593C318.135 96.0542 318.159 96.1488 318.211 96.2286 318.278 96.2767 318.359 96.3013 318.441 96.2984L318.76 96.2984 318.76 96.9865C318.583 97.0486 318.399 97.0855 318.211 97.0962 317.955 97.114 317.701 97.0318 317.503 96.8668 317.345 96.6876 317.257 96.4575 317.254 96.2186 316.763 96.8116 316.029 97.1493 315.259 97.1361 314.807 97.1466 314.363 97.0024 314.003 96.7272 313.631 96.4197 313.43 95.9518 313.464 95.4706 313.464 94.4733 314.033 93.875 315.16 93.7353L316.636 93.5359C316.809 93.5346 316.975 93.4626 317.094 93.3364 317.186 93.1944 317.228 93.0261 317.214 92.8577 317.214 92.2394 316.785 91.9303 315.928 91.9303 315.589 91.8971 315.25 91.9933 314.98 92.1995 314.781 92.422 314.656 92.7008 314.621 92.9974Z" fill="#000000" fill-rule="nonzero" fill-opacity="1"/><path d="M320.495 93.9946C320.465 94.5735 320.604 95.1486 320.894 95.6501 321.135 96.0318 321.559 96.259 322.011 96.2485 322.454 96.2719 322.878 96.0691 323.138 95.71 323.434 95.2619 323.578 94.7302 323.547 94.1941 323.547 92.6882 323.028 91.9303 321.981 91.9303 320.934 91.9303 320.495 92.6184 320.495 93.9946ZM319.687 97.555 320.635 97.555C320.754 98.1234 321.183 98.4126 321.911 98.4126 322.349 98.4435 322.781 98.296 323.108 98.0037 323.404 97.6129 323.547 97.1264 323.507 96.6375L323.507 96.2685C323.183 96.8063 322.588 97.1209 321.961 97.0862 321.267 97.1078 320.606 96.7919 320.186 96.2385 319.709 95.5757 319.474 94.7699 319.518 93.9548 319.492 93.2204 319.709 92.4982 320.136 91.9003 320.533 91.3622 321.173 91.0588 321.842 91.0925 322.192 91.0773 322.538 91.1638 322.839 91.3418 323.138 91.5316 323.393 91.7833 323.587 92.0798L323.587 91.272 324.484 91.272 324.484 96.4081C324.565 97.2025 324.324 97.996 323.816 98.6121 323.281 99.0623 322.589 99.2843 321.891 99.2304 321.376 99.2546 320.865 99.1225 320.425 98.8514 319.993 98.5537 319.714 98.0784 319.667 97.555Z" fill="#000000" fill-rule="nonzero" fill-opacity="1"/><path d="M325.482 92.6682 330.947 92.6682 330.947 93.4661 325.482 93.4661ZM325.482 94.8922 330.947 94.8922 330.947 95.6801 325.482 95.6801Z" fill="#000000" fill-rule="nonzero" fill-opacity="1"/><path d="M331.515 91.272 332.273 91.272 332.273 90.3545C332.232 89.9825 332.369 89.6128 332.642 89.3572 332.95 89.132 333.328 89.0227 333.709 89.0481L333.889 89.0481 334.138 89.0481 334.138 89.8958 333.779 89.8958C333.617 89.8851 333.461 89.9473 333.35 90.0653 333.253 90.2123 333.207 90.3879 333.221 90.564L333.221 91.272 334.138 91.272 334.138 92.0599 333.221 92.0599 333.221 96.9067 332.273 96.9067 332.273 92.0599 331.515 92.0599Z" fill="#000000" fill-rule="nonzero" fill-opacity="1"/><path d="M338.446 94.0345C338.173 94.1862 337.87 94.278 337.559 94.3038L336.881 94.3936C336.083 94.5033 335.684 94.8224 335.684 95.341 335.684 95.8596 336.033 96.3383 336.681 96.3383 337.11 96.3441 337.53 96.2111 337.878 95.9593 338.224 95.7479 338.429 95.3671 338.416 94.962ZM334.996 92.9475C334.996 91.7108 335.774 91.0925 337.26 91.0925 337.798 91.0694 338.331 91.2121 338.785 91.5014 339.182 91.7585 339.414 92.206 339.394 92.6782L339.394 95.9593C339.382 96.0546 339.407 96.1509 339.464 96.2286 339.529 96.2782 339.61 96.303 339.693 96.2984L340.012 96.2984 340.012 96.9865C339.835 97.0474 339.65 97.0843 339.464 97.0962 339.203 97.1167 338.946 97.0343 338.746 96.8668 338.591 96.6854 338.503 96.4568 338.496 96.2186 338.008 96.814 337.272 97.1522 336.502 97.1361 336.052 97.1443 335.613 97.0002 335.255 96.7272 334.877 96.4238 334.672 95.9541 334.707 95.4706 334.707 94.4733 335.275 93.875 336.412 93.7353L337.888 93.5359C338.058 93.533 338.22 93.4611 338.337 93.3364 338.428 93.1944 338.47 93.0261 338.456 92.8577 338.456 92.2394 338.028 91.9303 337.17 91.9303 336.835 91.8966 336.499 91.9931 336.232 92.1995 336.026 92.4184 335.896 92.6984 335.863 92.9974Z" fill="#000000" fill-rule="nonzero" fill-opacity="1"/><path d="M341.049 89.1678 341.997 89.1678 341.997 96.9067 341.049 96.9067Z" fill="#000000" fill-rule="nonzero" fill-opacity="1"/><path d="M343.044 95.1515 343.971 95.1515C343.971 95.8895 344.49 96.2485 345.427 96.2485 345.775 96.2766 346.124 96.1965 346.425 96.0191 346.654 95.8752 346.79 95.6213 346.784 95.351 346.791 95.1584 346.701 94.9752 346.544 94.8623 346.271 94.7097 345.975 94.602 345.667 94.5432L344.56 94.2639C343.692 94.0545 343.253 93.5957 343.253 92.8777 343.235 92.3893 343.441 91.9195 343.812 91.6011 344.264 91.2341 344.837 91.0523 345.417 91.0925 345.944 91.0715 346.464 91.2258 346.893 91.5313 347.295 91.8559 347.533 92.3414 347.542 92.8577L346.604 92.8577C346.604 92.2394 346.135 91.9303 345.328 91.9303 344.52 91.9303 344.181 92.1995 344.181 92.7381 344.163 92.9406 344.27 93.134 344.45 93.2267 344.689 93.3393 344.941 93.4263 345.198 93.486L346.135 93.7154C346.579 93.8035 346.996 93.9948 347.352 94.2739 347.613 94.5371 347.744 94.9021 347.711 95.2712 347.73 95.7861 347.514 96.2814 347.123 96.6175 346.638 96.9946 346.031 97.1793 345.417 97.1361 344.831 97.1672 344.25 97.0175 343.752 96.7073 343.272 96.3381 343.007 95.7554 343.044 95.1515Z" fill="#000000" fill-rule="nonzero" fill-opacity="1"/><path d="M349.506 93.6356 352.658 93.6356C352.646 93.1547 352.474 92.6915 352.169 92.3192 351.902 92.0622 351.543 91.9223 351.172 91.9303 350.741 91.9149 350.325 92.0899 350.035 92.409 349.713 92.7381 349.524 93.1753 349.506 93.6356ZM349.506 94.3836C349.48 94.8743 349.621 95.3593 349.905 95.7598 350.214 96.1012 350.663 96.2815 351.122 96.2485 351.48 96.2528 351.83 96.1408 352.119 95.9294 352.385 95.7469 352.567 95.4674 352.628 95.1515L353.555 95.1515C353.381 96.3286 352.329 97.1721 351.142 97.0862 350.433 97.1194 349.743 96.8471 349.247 96.3383 348.733 95.7425 348.476 94.9686 348.529 94.1841 348.498 93.3845 348.745 92.5988 349.227 91.9602 349.713 91.3654 350.456 91.0422 351.222 91.0925 351.918 91.0539 352.589 91.3596 353.017 91.9103 353.492 92.6445 353.723 93.5104 353.675 94.3836Z" fill="#000000" fill-rule="nonzero" fill-opacity="1"/><path d="M304.828 107.289C304.576 107.304 304.352 107.452 304.239 107.677 304.06 107.979 303.97 108.325 303.98 108.675L303.98 110.41C303.997 110.792 303.892 111.169 303.681 111.487 303.482 111.766 303.155 111.925 302.813 111.906L302.135 111.906 302.135 111.198 302.594 111.198C302.953 111.198 303.132 110.889 303.132 110.27L303.132 108.525C303.064 107.851 303.439 107.21 304.06 106.939 303.435 106.684 303.056 106.045 303.132 105.374L303.132 103.738C303.132 103.09 302.953 102.741 302.584 102.741L302.135 102.741 302.135 102.033 302.833 102.033C303.143 102.031 303.439 102.166 303.641 102.402 303.872 102.681 303.994 103.036 303.98 103.399L303.98 105.264C303.98 105.568 304.06 105.867 304.209 106.132 304.315 106.381 304.557 106.545 304.828 106.551Z" fill="#000000" fill-rule="nonzero" fill-opacity="1"/></g></g></svg>