<svg width="452" height="73" xmlns="http://www.w3.org/2000/svg" xmlns:xlink="http://www.w3.org/1999/xlink" xml:space="preserve" overflow="hidden"><defs><clipPath id="clip0"><rect x="0" y="0" width="452" height="73"/></clipPath><clipPath id="clip1"><rect x="0" y="0" width="452" height="73"/></clipPath><clipPath id="clip2"><rect x="0" y="0" width="451" height="73"/></clipPath><clipPath id="clip3"><rect x="0" y="0" width="451" height="73"/></clipPath><clipPath id="clip4"><rect x="0" y="0" width="451" height="73"/></clipPath></defs><g clip-path="url(#clip0)"><g clip-path="url(#clip1)"><g clip-path="url(#clip2)"><g clip-path="url(#clip3)"><g clip-path="url(#clip4)"><path d="M18.3379 0.384766 47.156 0.384766 47.156 29.2029 18.3379 29.2029Z" fill="#FFFFFF" fill-rule="nonzero" fill-opacity="1"/><path d="M18.3379 0.384766 47.156 0.384766 47.156 29.2029 18.3379 29.2029Z" stroke="#000000" stroke-width="0.720703" stroke-linecap="butt" stroke-linejoin="miter" stroke-miterlimit="4" stroke-opacity="1" fill="none" fill-rule="nonzero"/><path d="M27.4668 12.6467C27.9664 12.6695 28.4623 12.5515 28.8982 12.3064 29.213 12.0172 29.4269 11.6348 29.5088 11.2153L30.2595 11.2153 30.2595 18.7627 29.2585 18.7627 29.2585 13.4075 27.4668 13.4075Z" fill="#000000" fill-rule="nonzero" fill-opacity="1"/><path d="M33.5427 16.04 36.0352 16.04 36.0352 12.6367ZM32.6519 16.04 36.1753 11.2654 36.9561 11.2654 36.9561 16.04 38.0371 16.04 38.0371 16.8708 36.9561 16.8708 36.9561 18.7327 36.0352 18.7327 36.0352 16.9009 32.6519 16.9009Z" fill="#000000" fill-rule="nonzero" fill-opacity="1"/><path d="M47.156 0.384766 75.9741 0.384766 75.9741 29.2029 47.156 29.2029Z" fill="#FFFFFF" fill-rule="nonzero" fill-opacity="1"/><path d="M47.156 0.384766 75.9741 0.384766 75.9741 29.2029 47.156 29.2029Z" stroke="#000000" stroke-width="0.720703" stroke-linecap="butt" stroke-linejoin="miter" stroke-miterlimit="4" stroke-opacity="1" fill="none" fill-rule="nonzero"/><path d="M56.2949 12.6467C56.7943 12.6678 57.2899 12.55 57.7263 12.3064 58.0411 12.0172 58.255 11.6348 58.3369 11.2153L59.0576 11.2153 59.0576 18.7627 58.0566 18.7627 58.0566 13.4075 56.2949 13.4075Z" fill="#000000" fill-rule="nonzero" fill-opacity="1"/><path d="M61.5701 16.4204 62.571 16.4204C62.5542 16.8715 62.6959 17.3142 62.9714 17.6716 63.2961 17.9801 63.7362 18.1365 64.1826 18.1021 64.6055 18.1065 65.019 17.9768 65.3638 17.7317 65.6977 17.467 65.8809 17.0558 65.8542 16.6306 65.8768 16.2498 65.7214 15.8802 65.4338 15.6296 65.0699 15.363 64.6226 15.2352 64.1726 15.2693L63.6221 15.2693 63.6221 14.4385 64.0725 14.4385C65.0735 14.4385 65.564 14.0281 65.564 13.1973 65.5765 12.8497 65.4377 12.5138 65.1836 12.2764 64.9046 12.0411 64.5472 11.9196 64.1826 11.936 63.7867 11.9032 63.3971 12.0502 63.1216 12.3364 62.8548 12.6755 62.7134 13.0963 62.7212 13.5276L61.7803 13.5276C61.7451 12.8722 61.968 12.2291 62.4009 11.7358 62.8943 11.2668 63.5641 11.0302 64.2427 11.0852 64.8602 11.0518 65.4677 11.2519 65.9443 11.6458 66.3719 12.0165 66.6077 12.5616 66.585 13.1272 66.6582 13.8251 66.2447 14.4825 65.584 14.7188 65.9873 14.8324 66.3402 15.0794 66.585 15.4194 66.7878 15.7389 66.889 16.1123 66.8752 16.4905 66.8933 17.1491 66.6271 17.7836 66.1445 18.2322 65.5918 18.7109 64.8722 18.9521 64.1426 18.9028 63.4918 18.9322 62.8512 18.734 62.3308 18.3423 61.8307 17.829 61.5568 17.1369 61.5701 16.4204Z" fill="#000000" fill-rule="nonzero" fill-opacity="1"/><path d="M75.9741 0.384766 104.792 0.384766 104.792 29.2029 75.9741 29.2029Z" fill="#FFFFFF" fill-rule="nonzero" fill-opacity="1"/><path d="M75.9741 0.384766 104.792 0.384766 104.792 29.2029 75.9741 29.2029Z" stroke="#000000" stroke-width="0.720703" stroke-linecap="butt" stroke-linejoin="miter" stroke-miterlimit="4" stroke-opacity="1" fill="none" fill-rule="nonzero"/><path d="M85.083 12.6467C85.5824 12.6678 86.0779 12.55 86.5144 12.3064 86.8292 12.0172 87.0432 11.6348 87.125 11.2153L87.8657 11.2153 87.8657 18.7627 86.8647 18.7627 86.8647 13.4075 85.083 13.4075Z" fill="#000000" fill-rule="nonzero" fill-opacity="1"/><path d="M90.3081 18.7627C90.3201 18.1079 90.4993 17.467 90.8286 16.9009 91.1343 16.4459 91.5423 16.0689 92.0198 15.7998L93.5713 14.8789C93.8632 14.7237 94.1163 14.5047 94.312 14.2383 94.4651 13.9925 94.5417 13.7069 94.5322 13.4175 94.5407 13.0392 94.3878 12.6753 94.1118 12.4165 93.8036 12.1455 93.4001 12.0086 92.9907 12.0361 92.5565 11.9982 92.131 12.1737 91.8496 12.5066 91.5764 12.915 91.4333 13.3966 91.4392 13.8879L90.5083 13.8879C90.4653 13.1658 90.6898 12.4531 91.1389 11.886 91.6573 11.3451 92.3952 11.0721 93.1409 11.1453 93.7811 11.1189 94.4074 11.3373 94.8926 11.7559 95.3594 12.183 95.6125 12.7954 95.5833 13.4275 95.5974 13.8584 95.4824 14.2836 95.2529 14.6487 94.9997 15.0227 94.6551 15.3259 94.252 15.5295L92.9607 16.2803C92.5996 16.4918 92.2638 16.7436 91.9597 17.031 91.7258 17.2672 91.5508 17.5553 91.4492 17.8718L95.6133 17.8718 95.6133 18.7727Z" fill="#000000" fill-rule="nonzero" fill-opacity="1"/><path d="M104.792 0.384766 133.61 0.384766 133.61 29.2029 104.792 29.2029Z" fill="#FFFFFF" fill-rule="nonzero" fill-opacity="1"/><path d="M104.792 0.384766 133.61 0.384766 133.61 29.2029 104.792 29.2029Z" stroke="#000000" stroke-width="0.720703" stroke-linecap="butt" stroke-linejoin="miter" stroke-miterlimit="4" stroke-opacity="1" fill="none" fill-rule="nonzero"/><path d="M113.931 12.6467C114.431 12.6695 114.927 12.5515 115.363 12.3064 115.677 12.0172 115.891 11.6348 115.973 11.2153L116.714 11.2153 116.714 18.7627 115.713 18.7627 115.713 13.4075 113.941 13.4075Z" fill="#000000" fill-rule="nonzero" fill-opacity="1"/><path d="M119.947 12.6467C120.444 12.668 120.936 12.5502 121.368 12.3064 121.687 12.0186 121.905 11.6361 121.989 11.2153L122.73 11.2153 122.73 18.7627 121.729 18.7627 121.729 13.4075 119.957 13.4075Z" fill="#000000" fill-rule="nonzero" fill-opacity="1"/><path d="M133.62 0.384766 162.438 0.384766 162.438 29.2029 133.62 29.2029Z" fill="#FFFFFF" fill-rule="nonzero" fill-opacity="1"/><path d="M133.62 0.384766 162.438 0.384766 162.438 29.2029 133.62 29.2029Z" stroke="#000000" stroke-width="0.720703" stroke-linecap="butt" stroke-linejoin="miter" stroke-miterlimit="4" stroke-opacity="1" fill="none" fill-rule="nonzero"/><path d="M142.749 12.6467C143.249 12.6695 143.745 12.5515 144.181 12.3064 144.495 12.0172 144.709 11.6348 144.791 11.2153L145.542 11.2153 145.542 18.7627 144.541 18.7627 144.541 13.4075 142.769 13.4075Z" fill="#000000" fill-rule="nonzero" fill-opacity="1"/><path d="M149.075 15.0391C149.075 17.041 149.606 18.1021 150.677 18.1021 151.748 18.1021 152.289 17.1011 152.289 15.0391 152.289 12.9771 151.758 11.9861 150.687 11.9861 149.616 11.9861 149.075 13.0371 149.075 15.0391ZM148.074 15.0391C148.022 14.0342 148.255 13.0349 148.745 12.1562 149.161 11.455 149.933 11.0453 150.747 11.0952 151.509 11.0794 152.224 11.4579 152.639 12.0962 153.165 12.9648 153.411 13.9755 153.34 14.989 153.393 15.9959 153.163 16.9977 152.679 17.8818 152.263 18.581 151.489 18.9872 150.677 18.9329 149.91 18.948 149.19 18.5704 148.765 17.9319 148.239 17.0632 147.993 16.0526 148.064 15.0391Z" fill="#000000" fill-rule="nonzero" fill-opacity="1"/><path d="M162.438 0.384766 191.257 0.384766 191.257 29.2029 162.438 29.2029Z" fill="#FFFFFF" fill-rule="nonzero" fill-opacity="1"/><path d="M162.438 0.384766 191.257 0.384766 191.257 29.2029 162.438 29.2029Z" stroke="#000000" stroke-width="0.720703" stroke-linecap="butt" stroke-linejoin="miter" stroke-miterlimit="4" stroke-opacity="1" fill="none" fill-rule="nonzero"/><path d="M174.951 13.7378C174.951 14.8188 175.461 15.3494 176.482 15.3494 176.892 15.3664 177.29 15.2143 177.583 14.929 177.894 14.5772 178.049 14.1154 178.014 13.6477 178.037 13.2097 177.899 12.7785 177.623 12.4365 176.997 11.8249 175.998 11.8249 175.371 12.4365 175.07 12.8008 174.92 13.2663 174.951 13.7378ZM174.03 16.9309 174.961 16.9309C174.974 17.5942 175.521 18.1216 176.185 18.109 176.221 18.1083 176.256 18.106 176.292 18.1021 176.869 18.1106 177.396 17.7819 177.643 17.2612 177.96 16.6394 178.137 15.9564 178.164 15.2593 177.791 15.8995 177.079 16.2633 176.342 16.1902 175.692 16.2125 175.063 15.9664 174.6 15.5095 174.148 15.0298 173.91 14.3867 173.94 13.7278 173.909 13.0304 174.158 12.3495 174.63 11.8359 175.118 11.3452 175.791 11.0834 176.482 11.1152 178.277 11.1152 179.175 12.2864 179.175 14.6287 179.223 15.7106 178.97 16.7847 178.444 17.7317 177.686 18.9337 176.098 19.294 174.897 18.5365 174.826 18.4918 174.757 18.4437 174.69 18.3923 174.276 18.0186 174.037 17.4889 174.03 16.9309Z" fill="#000000" fill-rule="nonzero" fill-opacity="1"/><path d="M191.257 0.384766 220.075 0.384766 220.075 29.2029 191.257 29.2029Z" fill="#FFFFFF" fill-rule="nonzero" fill-opacity="1"/><path d="M191.257 0.384766 220.075 0.384766 220.075 29.2029 191.257 29.2029Z" stroke="#000000" stroke-width="0.720703" stroke-linecap="butt" stroke-linejoin="miter" stroke-miterlimit="4" stroke-opacity="1" fill="none" fill-rule="nonzero"/><path d="M203.989 13.1672C203.991 13.4777 204.113 13.7755 204.329 13.998 204.591 14.266 204.958 14.402 205.33 14.3684 205.651 14.3641 205.959 14.2472 206.201 14.0381 206.451 13.8113 206.588 13.4845 206.572 13.1472 206.594 12.813 206.447 12.49 206.181 12.2864 205.893 12.0728 205.539 11.9666 205.18 11.9861 204.848 11.9714 204.524 12.0822 204.269 12.2964 204.056 12.5336 203.954 12.8503 203.989 13.1672ZM203.729 16.6106C203.718 17.0081 203.865 17.3936 204.139 17.6816 204.463 17.9827 204.899 18.1351 205.34 18.1021 205.749 18.1214 206.149 17.9773 206.451 17.7017 206.718 17.438 206.863 17.0755 206.852 16.7007 206.874 16.3034 206.729 15.9148 206.451 15.6296 206.136 15.3416 205.717 15.1935 205.29 15.2192 204.881 15.2049 204.481 15.3442 204.169 15.6096 203.88 15.8608 203.719 16.2279 203.729 16.6106ZM203.999 14.7288C203.378 14.5 202.975 13.8984 202.998 13.2373 202.983 12.6666 203.212 12.1167 203.629 11.7258 204.087 11.3112 204.693 11.0983 205.31 11.1353 205.91 11.116 206.498 11.3072 206.972 11.6758 207.418 12.0307 207.668 12.5777 207.643 13.1472 207.677 13.8304 207.275 14.4604 206.642 14.7188 207.388 15.0349 207.87 15.77 207.863 16.5806 207.882 17.2197 207.632 17.8375 207.172 18.2822 206.676 18.7479 206.01 18.9902 205.33 18.9529 204.65 18.9821 203.982 18.7654 203.448 18.3423 202.948 17.9226 202.675 17.2926 202.708 16.6406 202.659 15.7852 203.187 15.0024 203.999 14.7288Z" fill="#000000" fill-rule="nonzero" fill-opacity="1"/><path d="M220.075 0.384766 248.893 0.384766 248.893 29.2029 220.075 29.2029Z" fill="#FFFFFF" fill-rule="nonzero" fill-opacity="1"/><path d="M220.075 0.384766 248.893 0.384766 248.893 29.2029 220.075 29.2029Z" stroke="#000000" stroke-width="0.720703" stroke-linecap="butt" stroke-linejoin="miter" stroke-miterlimit="4" stroke-opacity="1" fill="none" fill-rule="nonzero"/><path d="M232.627 18.7627C232.82 17.6944 233.139 16.6526 233.578 15.6597 234.135 14.4391 234.852 13.2981 235.71 12.2664L231.546 12.2664 231.546 11.3254 236.781 11.3254 236.781 12.1663C235.978 13.0515 235.305 14.0456 234.779 15.1191 234.262 16.2854 233.881 17.5082 233.648 18.7627Z" fill="#000000" fill-rule="nonzero" fill-opacity="1"/><path d="M248.903 0.384766 277.721 0.384766 277.721 29.2029 248.903 29.2029Z" fill="#FFFFFF" fill-rule="nonzero" fill-opacity="1"/><path d="M248.903 0.384766 277.721 0.384766 277.721 29.2029 248.903 29.2029Z" stroke="#000000" stroke-width="0.720703" stroke-linecap="butt" stroke-linejoin="miter" stroke-miterlimit="4" stroke-opacity="1" fill="none" fill-rule="nonzero"/><path d="M261.505 16.3804C261.488 16.8316 261.638 17.2733 261.926 17.6216 262.219 17.9445 262.64 18.1205 263.077 18.1021 263.486 18.1104 263.879 17.9427 264.158 17.6416 264.453 17.2897 264.603 16.8388 264.578 16.3804 264.593 15.9527 264.455 15.5336 264.188 15.1992 263.902 14.8772 263.486 14.7037 263.057 14.7288 262.643 14.7175 262.243 14.8726 261.946 15.1592 261.635 15.4872 261.475 15.9297 261.505 16.3804ZM261.375 14.8389C261.744 14.1979 262.437 13.813 263.177 13.8379 263.835 13.8089 264.475 14.0597 264.938 14.5286 265.385 15.0075 265.619 15.6463 265.589 16.3003 265.596 16.9644 265.362 17.6085 264.928 18.1121 263.934 19.1491 262.286 19.183 261.249 18.1877 261.184 18.1257 261.123 18.0603 261.065 17.9919 260.541 17.1773 260.295 16.2152 260.364 15.2493 260.317 14.2029 260.559 13.1638 261.065 12.2463 261.505 11.4946 262.327 11.0507 263.197 11.0952 263.775 11.0676 264.342 11.2649 264.778 11.6458 265.186 12.0279 265.42 12.5588 265.429 13.1172L264.498 13.1172C264.338 12.3965 263.924 12.0361 263.257 12.0361 262.708 12.0217 262.199 12.3154 261.936 12.7969 261.579 13.4194 261.387 14.1219 261.375 14.8389Z" fill="#000000" fill-rule="nonzero" fill-opacity="1"/><path d="M277.721 0.384766 306.539 0.384766 306.539 29.2029 277.721 29.2029Z" fill="#FFFFFF" fill-rule="nonzero" fill-opacity="1"/><path d="M277.721 0.384766 306.539 0.384766 306.539 29.2029 277.721 29.2029Z" stroke="#000000" stroke-width="0.720703" stroke-linecap="butt" stroke-linejoin="miter" stroke-miterlimit="4" stroke-opacity="1" fill="none" fill-rule="nonzero"/><path d="M289.102 16.8408 290.103 16.8408C290.163 17.6014 290.829 18.169 291.589 18.1088 291.611 18.1071 291.633 18.1049 291.655 18.1021 292.085 18.1105 292.5 17.9444 292.806 17.6416 293.135 17.3112 293.31 16.8566 293.286 16.3904 293.301 15.9511 293.143 15.5234 292.846 15.1992 292.526 14.8798 292.086 14.7122 291.635 14.7388 291.072 14.7505 290.547 15.0292 290.223 15.4895L289.402 15.4895 289.983 11.3755 293.877 11.3755 293.877 12.3164 290.694 12.3164 290.373 14.4084C290.788 14.0932 291.294 13.9243 291.815 13.928 292.451 13.925 293.065 14.1607 293.536 14.5886 294.049 15.035 294.329 15.6914 294.297 16.3704 294.373 17.7503 293.317 18.931 291.937 19.0074 291.823 19.0137 291.709 19.0122 291.594 19.0029 290.982 19.0333 290.378 18.8531 289.883 18.4924 289.411 18.0689 289.13 17.4737 289.102 16.8408Z" fill="#000000" fill-rule="nonzero" fill-opacity="1"/><path d="M306.539 0.384766 335.357 0.384766 335.357 29.2029 306.539 29.2029Z" fill="#FFFFFF" fill-rule="nonzero" fill-opacity="1"/><path d="M306.539 0.384766 335.357 0.384766 335.357 29.2029 306.539 29.2029Z" stroke="#000000" stroke-width="0.720703" stroke-linecap="butt" stroke-linejoin="miter" stroke-miterlimit="4" stroke-opacity="1" fill="none" fill-rule="nonzero"/><path d="M318.741 16.04 321.203 16.04 321.203 12.6367ZM317.85 15.96 321.374 11.1853 322.154 11.1853 322.154 16.04 323.315 16.04 323.315 16.8708 322.194 16.8708 322.194 18.7327 321.243 18.7327 321.243 16.9009 317.89 16.9009Z" fill="#000000" fill-rule="nonzero" fill-opacity="1"/><path d="M335.357 0.384766 364.175 0.384766 364.175 29.2029 335.357 29.2029Z" fill="#FFFFFF" fill-rule="nonzero" fill-opacity="1"/><path d="M335.357 0.384766 364.175 0.384766 364.175 29.2029 335.357 29.2029Z" stroke="#000000" stroke-width="0.720703" stroke-linecap="butt" stroke-linejoin="miter" stroke-miterlimit="4" stroke-opacity="1" fill="none" fill-rule="nonzero"/><path d="M346.768 16.4204 347.769 16.4204C347.758 16.8706 347.899 17.3115 348.17 17.6716 348.494 17.9801 348.934 18.1365 349.381 18.1021 349.804 18.1065 350.218 17.9768 350.562 17.7317 350.896 17.467 351.08 17.0558 351.052 16.6306 351.074 16.2498 350.919 15.8802 350.632 15.6296 350.268 15.363 349.82 15.2352 349.371 15.2693L348.82 15.2693 348.82 14.4385 349.271 14.4385C350.272 14.4385 350.762 14.0281 350.762 13.1973 350.774 12.8497 350.636 12.5138 350.382 12.2764 350.103 12.0411 349.745 11.9196 349.381 11.936 348.985 11.9032 348.595 12.0502 348.32 12.3364 348.054 12.6755 347.911 13.0963 347.919 13.5276L346.979 13.5276C346.943 12.8722 347.166 12.2291 347.599 11.7358 348.093 11.2668 348.762 11.0302 349.441 11.0852 350.059 11.0518 350.666 11.2519 351.143 11.6458 351.57 12.0165 351.806 12.5616 351.783 13.1272 351.856 13.8251 351.443 14.4825 350.782 14.7188 351.186 14.8324 351.538 15.0794 351.783 15.4194 351.986 15.7389 352.087 16.1123 352.073 16.4905 352.091 17.1491 351.825 17.7836 351.343 18.2322 350.79 18.7109 350.071 18.9521 349.341 18.9028 348.69 18.9322 348.05 18.734 347.529 18.3423 347.029 17.829 346.755 17.1369 346.768 16.4204Z" fill="#000000" fill-rule="nonzero" fill-opacity="1"/><path d="M364.175 0.384766 392.993 0.384766 392.993 29.2029 364.175 29.2029Z" fill="#FFFFFF" fill-rule="nonzero" fill-opacity="1"/><path d="M364.175 0.384766 392.993 0.384766 392.993 29.2029 364.175 29.2029Z" stroke="#000000" stroke-width="0.720703" stroke-linecap="butt" stroke-linejoin="miter" stroke-miterlimit="4" stroke-opacity="1" fill="none" fill-rule="nonzero"/><path d="M375.506 18.7627C375.525 18.1089 375.704 17.4696 376.027 16.9009 376.334 16.4433 376.746 16.0658 377.228 15.7998L378.77 14.8789C379.062 14.7237 379.314 14.5047 379.51 14.2383 379.663 13.9925 379.74 13.7069 379.73 13.4175 379.738 13.0392 379.586 12.6753 379.31 12.4165 379.007 12.1435 378.606 12.003 378.199 12.0261 377.762 11.9883 377.333 12.1635 377.048 12.4966 376.779 12.9071 376.636 13.3873 376.637 13.8779L375.707 13.8779C375.661 13.1539 375.89 12.4393 376.347 11.876 376.851 11.3445 377.569 11.0718 378.299 11.1353 378.94 11.1089 379.565 11.3272 380.051 11.7458 380.517 12.173 380.77 12.7854 380.741 13.4175 380.753 13.8468 380.642 14.2707 380.421 14.6387 380.165 15.0096 379.821 15.312 379.42 15.5195L378.129 16.2703C377.768 16.4818 377.432 16.7336 377.128 17.021 376.894 17.2572 376.72 17.5453 376.617 17.8618L380.781 17.8618 380.781 18.7627Z" fill="#000000" fill-rule="nonzero" fill-opacity="1"/><path d="M393.003 0.384766 421.822 0.384766 421.822 29.2029 393.003 29.2029Z" fill="#FFFFFF" fill-rule="nonzero" fill-opacity="1"/><path d="M393.003 0.384766 421.822 0.384766 421.822 29.2029 393.003 29.2029Z" stroke="#000000" stroke-width="0.720703" stroke-linecap="butt" stroke-linejoin="miter" stroke-miterlimit="4" stroke-opacity="1" fill="none" fill-rule="nonzero"/><path d="M405.145 12.6467C405.645 12.6678 406.14 12.55 406.577 12.3064 406.891 12.0172 407.105 11.6348 407.187 11.2153L407.928 11.2153 407.928 18.7627 406.927 18.7627 406.927 13.4075 405.155 13.4075Z" fill="#000000" fill-rule="nonzero" fill-opacity="1"/><path d="M421.822 0.384766 450.64 0.384766 450.64 29.2029 421.822 29.2029Z" fill="#FFFFFF" fill-rule="nonzero" fill-opacity="1"/><path d="M421.822 0.384766 450.64 0.384766 450.64 29.2029 421.822 29.2029Z" stroke="#000000" stroke-width="0.720703" stroke-linecap="butt" stroke-linejoin="miter" stroke-miterlimit="4" stroke-opacity="1" fill="none" fill-rule="nonzero"/><path d="M434.284 15.0391C434.284 17.0811 434.814 18.1021 435.875 18.1021 436.946 18.1021 437.487 17.1011 437.487 15.0391 437.487 12.9771 436.956 11.9861 435.885 11.9861 434.814 11.9861 434.284 13.0371 434.284 15.0391ZM433.283 15.0391C433.231 14.0342 433.463 13.0349 433.953 12.1562 434.369 11.455 435.142 11.0453 435.955 11.0952 436.717 11.0794 437.432 11.4579 437.847 12.0962 438.374 12.9648 438.619 13.9755 438.548 14.989 438.601 15.9959 438.372 16.9977 437.887 17.8818 437.471 18.581 436.697 18.9872 435.885 18.9329 435.118 18.948 434.398 18.5704 433.973 17.9319 433.443 17.0643 433.195 16.0537 433.263 15.0391Z" fill="#000000" fill-rule="nonzero" fill-opacity="1"/><path d="M-1.13798e-15 16.8909 1.1311 16.8909 1.1311 18.032-4.77303e-09 18.032Z" fill="#000000" fill-rule="nonzero" fill-opacity="1"/><path d="M3.00293 16.8909 4.13403 16.8909 4.13403 18.032 3.00293 18.032Z" fill="#000000" fill-rule="nonzero" fill-opacity="1"/><path d="M6.00586 16.8909 7.13696 16.8909 7.13696 18.032 6.00586 18.032Z" fill="#000000" fill-rule="nonzero" fill-opacity="1"/><path d="M205.671 58.021 205.671 33.7974" stroke="#000000" stroke-width="0.720703" stroke-linecap="butt" stroke-linejoin="miter" stroke-miterlimit="10" stroke-opacity="1" fill="none" fill-rule="nonzero"/><path d="M205.671 30.0137 208.193 35.0586 205.671 33.7974 203.148 35.0586 205.671 30.0137Z" fill="#000000" fill-rule="nonzero" fill-opacity="1"/><path d="M205.671 30.0137 208.193 35.0586 205.671 33.7974 203.148 35.0586 205.671 30.0137Z" stroke="#000000" stroke-width="0.720703" stroke-linecap="butt" stroke-linejoin="miter" stroke-miterlimit="10" stroke-opacity="1" fill="none" fill-rule="nonzero"/><path d="M191.647 67.9307 191.647 67.1399 192.418 67.1399 192.418 65.5383 193.419 65.5383 193.419 67.1399 194.35 67.1399 194.35 67.9307 193.419 67.9307 193.419 71.6042C193.419 71.9045 193.609 72.0547 193.989 72.0547L194.33 72.0547 194.33 72.8154C194.064 72.8559 193.797 72.8793 193.529 72.8855 192.818 72.8855 192.468 72.4751 192.468 71.6643L192.468 67.9307Z" fill="#000000" fill-rule="nonzero" fill-opacity="1"/><path d="M198.624 69.9126C198.354 70.0667 198.053 70.159 197.743 70.1829L197.062 70.2729C196.261 70.3831 195.861 70.7034 195.861 71.2239 195.861 71.7444 196.201 72.2249 196.862 72.2249 197.296 72.2329 197.722 72.0993 198.073 71.8445 198.418 71.6313 198.621 71.2485 198.604 70.8435ZM195.19 68.8215C195.19 67.5803 195.971 66.9597 197.463 66.9597 198.003 66.9378 198.537 67.0809 198.994 67.3701 199.389 67.6306 199.617 68.0792 199.595 68.5513L199.595 71.8445C199.586 71.9415 199.615 72.0383 199.675 72.1147 199.739 72.1595 199.817 72.1807 199.895 72.1748 200.005 72.1846 200.115 72.1846 200.225 72.1748L200.225 72.8655C200.047 72.9235 199.862 72.9573 199.675 72.9656 199.416 72.9889 199.156 72.9098 198.954 72.7454 198.795 72.5655 198.707 72.3346 198.704 72.0947 198.209 72.6876 197.474 73.0259 196.702 73.0156 196.245 73.0232 195.801 72.8749 195.441 72.5952 195.069 72.2896 194.868 71.8238 194.9 71.344 194.9 70.343 195.471 69.7424 196.602 69.5923L198.093 69.4021C198.263 69.394 198.424 69.3225 198.544 69.2019 198.633 69.0582 198.675 68.8902 198.664 68.7214 198.664 68.1008 198.233 67.7905 197.373 67.7905 197.036 67.7568 196.699 67.8536 196.432 68.0608 196.222 68.2792 196.092 68.561 196.061 68.8616Z" fill="#000000" fill-rule="nonzero" fill-opacity="1"/><path d="M201.196 65.0879 202.197 65.0879 202.197 66.0889 201.196 66.0889ZM201.196 67.1899 202.197 67.1899 202.197 72.7954 201.196 72.7954Z" fill="#000000" fill-rule="nonzero" fill-opacity="1"/><path d="M203.639 65.0278 204.59 65.0278 204.59 72.7954 203.639 72.7954Z" fill="#000000" fill-rule="nonzero" fill-opacity="1"/><path d="M207.292 65.9487 207.292 68.6213 209.374 68.6213C210.375 68.6213 210.936 68.1509 210.936 67.23 210.936 66.3091 210.435 65.9487 209.414 65.9487ZM206.201 65.0278 209.685 65.0278C210.301 64.9956 210.905 65.2161 211.356 65.6384 211.783 66.0599 212.011 66.6412 211.987 67.24 212.044 68.4438 211.114 69.4658 209.91 69.5227 209.839 69.5261 209.767 69.5259 209.695 69.5222L207.252 69.5222 207.252 72.7954 206.201 72.7954Z" fill="#000000" fill-rule="nonzero" fill-opacity="1"/><path d="M212.667 67.9307 212.667 67.1399 213.438 67.1399 213.438 65.5383 214.439 65.5383 214.439 67.1399 215.37 67.1399 215.37 67.9307 214.439 67.9307 214.439 71.6042C214.439 71.9045 214.629 72.0547 215.02 72.0547L215.35 72.0547 215.35 72.8154C215.085 72.8563 214.818 72.8797 214.549 72.8855 213.849 72.8855 213.488 72.4751 213.488 71.6643L213.488 67.9307Z" fill="#000000" fill-rule="nonzero" fill-opacity="1"/><path d="M216.351 72.7954 216.351 67.1399 217.212 67.1399 217.212 68.0908C217.4 67.7467 217.659 67.4465 217.973 67.21 218.222 67.0471 218.515 66.9634 218.813 66.9697 218.89 66.9577 218.968 66.9577 219.044 66.9697L219.044 67.9707 218.693 67.9707C218.31 67.9686 217.945 68.133 217.692 68.4211 217.432 68.7202 217.293 69.1058 217.302 69.5022L217.302 72.7954Z" fill="#000000" fill-rule="nonzero" fill-opacity="1"/><path d="M349.771 58.021 349.771 33.7974" stroke="#000000" stroke-width="0.720703" stroke-linecap="butt" stroke-linejoin="miter" stroke-miterlimit="10" stroke-opacity="1" fill="none" fill-rule="nonzero"/><path d="M349.771 30.0137 352.294 35.0586 349.771 33.7974 347.249 35.0586 349.771 30.0137Z" fill="#000000" fill-rule="nonzero" fill-opacity="1"/><path d="M349.771 30.0137 352.294 35.0586 349.771 33.7974 347.249 35.0586 349.771 30.0137Z" stroke="#000000" stroke-width="0.720703" stroke-linecap="butt" stroke-linejoin="miter" stroke-miterlimit="10" stroke-opacity="1" fill="none" fill-rule="nonzero"/><path d="M331.173 65.0278 332.124 65.0278 332.124 67.8906C332.496 67.3018 333.149 66.9492 333.846 66.9597 334.372 66.9271 334.887 67.1242 335.257 67.5002 335.604 67.8973 335.781 68.4153 335.748 68.9417L335.748 72.7954 334.797 72.7954 334.797 69.0918C334.836 68.7361 334.74 68.3785 334.526 68.0908 334.3 67.8864 334 67.7849 333.696 67.8105 333.255 67.7847 332.828 67.9617 332.534 68.291 332.224 68.6924 332.077 69.1969 332.124 69.7024L332.124 72.8054 331.173 72.8054Z" fill="#000000" fill-rule="nonzero" fill-opacity="1"/><path d="M337.9 69.5122 341.053 69.5122C341.039 69.0286 340.871 68.5622 340.572 68.1809 340.287 67.9189 339.909 67.7819 339.521 67.8005 339.092 67.7891 338.677 67.96 338.38 68.271 338.083 68.6178 337.914 69.0558 337.9 69.5122ZM337.9 70.2629C337.869 70.7559 338.01 71.2445 338.3 71.6443 338.604 71.9892 339.053 72.1709 339.511 72.1348 339.873 72.1424 340.226 72.0258 340.512 71.8044 340.78 71.6276 340.965 71.3493 341.023 71.0337L341.964 71.0337C341.866 71.5847 341.583 72.086 341.163 72.4551 340.703 72.8199 340.127 73.005 339.541 72.9756 338.827 73.0079 338.131 72.735 337.629 72.2249 337.118 71.6253 336.863 70.8488 336.919 70.0627 336.885 69.2613 337.128 68.4725 337.609 67.8306 338.099 67.2363 338.843 66.9125 339.611 66.9597 340.311 66.9157 340.987 67.2235 341.413 67.7805 341.882 68.5207 342.109 69.3881 342.064 70.2629Z" fill="#000000" fill-rule="nonzero" fill-opacity="1"/><path d="M346.628 69.9126C346.354 70.0648 346.05 70.1569 345.737 70.1829L345.057 70.2729C344.256 70.3831 343.865 70.7034 343.865 71.2239 343.865 71.7444 344.206 72.2249 344.866 72.2249 345.3 72.228 345.723 72.0948 346.078 71.8445 346.419 71.6284 346.621 71.2476 346.608 70.8435ZM343.165 68.8215C343.165 67.5803 343.956 66.9597 345.437 66.9597 345.981 66.9377 346.518 67.0807 346.979 67.3701 347.373 67.6306 347.601 68.0792 347.579 68.5513L347.579 71.8445C347.567 71.9402 347.592 72.0368 347.649 72.1147 347.717 72.1596 347.798 72.1806 347.879 72.1748 347.986 72.1844 348.094 72.1844 348.2 72.1748L348.2 72.8655C348.022 72.9244 347.836 72.9582 347.649 72.9656 347.39 72.9889 347.131 72.9098 346.928 72.7454 346.773 72.564 346.688 72.3333 346.688 72.0947 346.192 72.6853 345.458 73.023 344.686 73.0156 344.234 73.0209 343.792 72.8728 343.435 72.5952 343.064 72.2896 342.863 71.8238 342.895 71.344 342.895 70.343 343.455 69.7424 344.596 69.5923L346.078 69.4021C346.248 69.397 346.41 69.3251 346.528 69.2019 346.617 69.0582 346.659 68.8902 346.648 68.7214 346.648 68.1008 346.218 67.7905 345.357 67.7905 345.021 67.7589 344.684 67.8554 344.416 68.0608 344.207 68.2779 344.08 68.561 344.056 68.8616Z" fill="#000000" fill-rule="nonzero" fill-opacity="1"/><path d="M349.861 69.8625C349.831 70.4454 349.967 71.0248 350.252 71.5342 350.493 71.8987 350.906 72.1111 351.343 72.0947 351.787 72.1162 352.212 71.9132 352.474 71.5542 352.772 71.1014 352.916 70.5641 352.884 70.0227 352.925 69.4293 352.789 68.837 352.494 68.321 352.226 67.9451 351.783 67.7334 351.323 67.7605 350.342 67.8005 349.861 68.4912 349.861 69.8625ZM352.924 67.9707 352.924 65.0278 353.875 65.0278 353.875 72.7954 352.984 72.7954 352.984 72.0947C352.669 72.6968 352.031 73.0604 351.353 73.0256 350.648 73.0465 349.977 72.7258 349.551 72.1648 349.071 71.5001 348.83 70.6918 348.87 69.8726 348.836 69.1284 349.063 68.3957 349.511 67.8005 349.916 67.2821 350.545 66.9883 351.203 67.0098 351.912 66.9773 352.579 67.3496 352.924 67.9707Z" fill="#000000" fill-rule="nonzero" fill-opacity="1"/><path d="M356.498 65.9487 356.498 68.6213 358.58 68.6213C359.581 68.6213 360.151 68.1509 360.151 67.23 360.151 66.3091 359.641 65.9487 358.62 65.9487ZM355.497 65.0278 358.98 65.0278C359.597 64.9956 360.2 65.2161 360.652 65.6384 361.078 66.0599 361.307 66.6412 361.282 67.24 361.34 68.4438 360.41 69.4658 359.205 69.5227 359.134 69.5261 359.062 69.5259 358.99 69.5222L356.548 69.5222 356.548 72.7954 355.547 72.7954Z" fill="#000000" fill-rule="nonzero" fill-opacity="1"/><path d="M361.873 67.9307 361.873 67.1399 362.644 67.1399 362.644 65.5383 363.595 65.5383 363.595 67.1399 364.526 67.1399 364.526 67.9307 363.595 67.9307 363.595 71.6042C363.595 71.9045 363.785 72.0547 364.175 72.0547L364.506 72.0547 364.506 72.8154C364.24 72.8567 363.973 72.8801 363.705 72.8855 363.004 72.8855 362.644 72.4751 362.644 71.6643L362.644 67.9307Z" fill="#000000" fill-rule="nonzero" fill-opacity="1"/><path d="M365.557 72.7954 365.557 67.1399 366.458 67.1399 366.458 68.0908C366.643 67.7475 366.899 67.4473 367.208 67.21 367.458 67.0482 367.751 66.9646 368.049 66.9697 368.125 66.9577 368.203 66.9577 368.279 66.9697L368.279 67.9707 367.929 67.9707C367.546 67.9686 367.18 68.133 366.928 68.4211 366.668 68.7202 366.529 69.1058 366.538 69.5022L366.538 72.7954Z" fill="#000000" fill-rule="nonzero" fill-opacity="1"/></g></g></g></g></g></svg>