<svg width="368" height="208" xmlns="http://www.w3.org/2000/svg" xmlns:xlink="http://www.w3.org/1999/xlink" xml:space="preserve" overflow="hidden"><g><g><path d="M31.4481 0.469374 335.655 0.469374C336.672 0.469374 337.675 0.469374 338.692 0.612794 339.699 0.712859 340.7 0.865176 341.691 1.06913 342.695 1.2647 343.673 1.51243 344.651 1.79927 345.629 2.08611 346.567 2.43814 347.506 2.82928 348.445 3.22043 349.358 3.65069 350.257 4.1331 351.153 4.60477 352.023 5.12264 352.865 5.68464 353.712 6.25832 354.521 6.85808 355.303 7.49695 356.085 8.13581 356.842 8.80076 357.559 9.54394 358.276 10.2871 358.954 11.0173 359.606 11.7995 360.25 12.5814 360.855 13.3952 361.418 14.2377 361.979 15.0852 362.5 15.9587 362.983 16.8453 363.465 17.7319 363.895 18.6576 364.286 19.5964 364.678 20.5351 365.016 21.4869 365.316 22.4648 365.616 23.4426 365.851 24.4074 366.06 25.4114 366.268 26.4153 366.399 27.4062 366.503 28.4102 366.607 29.4141 366.646 30.4441 366.646 31.4481L366.646 176.015C366.646 177.032 366.646 178.049 366.503 179.053 366.359 180.057 366.255 181.061 366.06 182.065 365.864 183.069 365.616 184.034 365.316 185.012 365.016 185.989 364.678 186.941 364.286 187.867 363.899 188.806 363.465 189.724 362.983 190.618 362.5 191.518 361.979 192.391 361.418 193.226 360.857 194.06 360.245 194.881 359.606 195.677 358.967 196.472 358.302 197.202 357.559 197.919 356.844 198.642 356.092 199.325 355.303 199.966 354.521 200.61 353.707 201.215 352.865 201.779 352.017 202.339 351.157 202.861 350.257 203.343 349.358 203.826 348.445 204.256 347.506 204.647 346.567 205.038 345.616 205.364 344.651 205.664 343.678 205.964 342.69 206.212 341.691 206.407 340.7 206.603 339.696 206.746 338.692 206.85 337.683 206.951 336.669 206.998 335.655 206.994L31.4481 206.994C30.4337 206.998 29.4197 206.95 28.4102 206.85 27.4062 206.746 26.4023 206.603 25.4114 206.407 24.4163 206.213 23.4327 205.965 22.4648 205.664 21.4869 205.364 20.5351 205.025 19.5964 204.647 18.6576 204.269 17.7449 203.813 16.8453 203.343 15.9457 202.874 15.0852 202.339 14.2377 201.779 12.5486 200.631 10.9765 199.322 9.54394 197.867 8.82684 197.15 8.14885 196.407 7.49695 195.625 6.84504 194.842 6.19313 194.021 5.68464 193.173 5.11984 192.334 4.60187 191.463 4.1331 190.566 3.65142 189.671 3.21624 188.754 2.82928 187.815 2.43814 186.889 2.09914 185.924 1.79927 184.959 1.49939 183.995 1.2647 183.004 1.06913 182.013 0.866093 181.017 0.713784 180.011 0.612794 179.001 0.521527 178.075 0.469374 177.058 0.469374 176.015L0.469374 31.4481C0.469374 30.4441 0.469374 29.4271 0.612794 28.4102 0.712859 27.4034 0.865176 26.4024 1.06913 25.4114 1.2647 24.4074 1.51243 23.4296 1.79927 22.4648 2.08611 21.4999 2.43814 20.5351 2.82928 19.5964 3.22043 18.6576 3.65069 17.7449 4.1331 16.8453 4.61551 15.9457 5.124 15.0852 5.68464 14.2377 6.24528 13.3902 6.85808 12.5818 7.49695 11.7995 8.13581 11.0173 8.80076 10.261 9.54394 9.54394 10.2871 8.82684 11.0173 8.14885 11.7995 7.49695 12.5818 6.84504 13.3902 6.19313 14.2377 5.68464 15.0852 5.17615 15.9587 4.60247 16.8453 4.1331 17.7319 3.66372 18.6576 3.22043 19.5964 2.82928 20.5351 2.43814 21.4869 2.09914 22.4648 1.79927 23.4426 1.49939 24.4074 1.30382 25.4114 1.06913 26.4024 0.865176 27.4034 0.712859 28.4102 0.612794 29.4271 0.521527 30.4441 0.469374 31.4481 0.469374Z" fill="#FFFFFF" fill-rule="nonzero" fill-opacity="1" transform="matrix(1 0 0 1.00246 0.44871 5.35865e-15)"/><path d="M31.4481 0.469374 335.655 0.469374C336.672 0.469374 337.675 0.469374 338.692 0.612794 339.699 0.712859 340.7 0.865176 341.691 1.06913 342.695 1.2647 343.673 1.51243 344.651 1.79927 345.629 2.08611 346.567 2.43814 347.506 2.82928 348.445 3.22043 349.358 3.65069 350.257 4.1331 351.153 4.60477 352.023 5.12264 352.865 5.68464 353.712 6.25832 354.521 6.85808 355.303 7.49695 356.085 8.13581 356.842 8.80076 357.559 9.54394 358.276 10.2871 358.954 11.0173 359.606 11.7995 360.25 12.5814 360.855 13.3952 361.418 14.2377 361.979 15.0852 362.5 15.9587 362.983 16.8453 363.465 17.7319 363.895 18.6576 364.286 19.5964 364.678 20.5351 365.016 21.4869 365.316 22.4648 365.616 23.4426 365.851 24.4074 366.06 25.4114 366.268 26.4153 366.399 27.4062 366.503 28.4102 366.607 29.4141 366.646 30.4441 366.646 31.4481L366.646 176.015C366.646 177.032 366.646 178.049 366.503 179.053 366.359 180.057 366.255 181.061 366.06 182.065 365.864 183.069 365.616 184.034 365.316 185.012 365.016 185.989 364.678 186.941 364.286 187.867 363.899 188.806 363.465 189.724 362.983 190.618 362.5 191.518 361.979 192.391 361.418 193.226 360.857 194.06 360.245 194.881 359.606 195.677 358.967 196.472 358.302 197.202 357.559 197.919 356.844 198.642 356.092 199.325 355.303 199.966 354.521 200.61 353.707 201.215 352.865 201.779 352.017 202.339 351.157 202.861 350.257 203.343 349.358 203.826 348.445 204.256 347.506 204.647 346.567 205.038 345.616 205.364 344.651 205.664 343.678 205.964 342.69 206.212 341.691 206.407 340.7 206.603 339.696 206.746 338.692 206.85 337.683 206.951 336.669 206.998 335.655 206.994L31.4481 206.994C30.4337 206.998 29.4197 206.95 28.4102 206.85 27.4062 206.746 26.4023 206.603 25.4114 206.407 24.4163 206.213 23.4327 205.965 22.4648 205.664 21.4869 205.364 20.5351 205.025 19.5964 204.647 18.6576 204.269 17.7449 203.813 16.8453 203.343 15.9457 202.874 15.0852 202.339 14.2377 201.779 12.5486 200.631 10.9765 199.322 9.54394 197.867 8.82684 197.15 8.14885 196.407 7.49695 195.625 6.84504 194.842 6.19313 194.021 5.68464 193.173 5.11984 192.334 4.60187 191.463 4.1331 190.566 3.65142 189.671 3.21624 188.754 2.82928 187.815 2.43814 186.889 2.09914 185.924 1.79927 184.959 1.49939 183.995 1.2647 183.004 1.06913 182.013 0.866093 181.017 0.713784 180.011 0.612794 179.001 0.521527 178.075 0.469374 177.058 0.469374 176.015L0.469374 31.4481C0.469374 30.4441 0.469374 29.4271 0.612794 28.4102 0.712859 27.4034 0.865176 26.4024 1.06913 25.4114 1.2647 24.4074 1.51243 23.4296 1.79927 22.4648 2.08611 21.4999 2.43814 20.5351 2.82928 19.5964 3.22043 18.6576 3.65069 17.7449 4.1331 16.8453 4.61551 15.9457 5.124 15.0852 5.68464 14.2377 6.24528 13.3902 6.85808 12.5818 7.49695 11.7995 8.13581 11.0173 8.80076 10.261 9.54394 9.54394 10.2871 8.82684 11.0173 8.14885 11.7995 7.49695 12.5818 6.84504 13.3902 6.19313 14.2377 5.68464 15.0852 5.17615 15.9587 4.60247 16.8453 4.1331 17.7319 3.66372 18.6576 3.22043 19.5964 2.82928 20.5351 2.43814 21.4869 2.09914 22.4648 1.79927 23.4426 1.49939 24.4074 1.30382 25.4114 1.06913 26.4024 0.865176 27.4034 0.712859 28.4102 0.612794 29.4271 0.521527 30.4441 0.469374 31.4481 0.469374Z" stroke="#000000" stroke-width="0.938748" stroke-linecap="butt" stroke-linejoin="miter" stroke-miterlimit="4" stroke-opacity="1" fill="none" fill-rule="nonzero" transform="matrix(1 0 0 1.00246 0.44871 5.35865e-15)"/><path d="M122.52 75.5822 235.182 75.5822 235.182 131.92 122.52 131.92Z" fill="#FFFFFF" fill-rule="nonzero" fill-opacity="1" transform="matrix(1 0 0 1.00246 0.44871 5.35865e-15)"/><path d="M122.52 75.5822 235.182 75.5822 235.182 131.92 122.52 131.92Z" stroke="#000000" stroke-width="0.938748" stroke-linecap="butt" stroke-linejoin="miter" stroke-miterlimit="4" stroke-opacity="1" fill="none" fill-rule="nonzero" transform="matrix(1 0 0 1.00246 0.44871 5.35865e-15)"/><text fill="#000000" fill-opacity="1" font-family="Arial,Arial_MSFontService,sans-serif" font-style="normal" font-variant="normal" font-weight="400" font-stretch="normal" font-size="9" text-anchor="start" direction="ltr" writing-mode="lr-tb" unicode-bidi="normal" text-decoration="none" transform="matrix(1.30382 0 0 1.30703 157.533 107)">Rename</text><text fill="#000000" fill-opacity="1" font-family="Arial,Arial_MSFontService,sans-serif" font-style="normal" font-variant="normal" font-weight="400" font-stretch="normal" font-size="9" text-anchor="start" direction="ltr" writing-mode="lr-tb" unicode-bidi="normal" text-decoration="none" transform="matrix(1.30382 0 0 1.30703 24.8431 27)">CtrlBlock</text><path d="M131.92 28.6318 131.92 69.5977" stroke="#000000" stroke-width="0.938748" stroke-linecap="butt" stroke-linejoin="miter" stroke-miterlimit="10" stroke-opacity="1" fill="none" fill-rule="nonzero" transform="matrix(1 0 0 1.00246 0.44871 5.35865e-15)"/><path d="M131.907 74.5262 128.635 67.9549 131.907 69.5977 135.206 67.9549 131.907 74.5262Z" fill="#000000" fill-rule="nonzero" fill-opacity="1" transform="matrix(1 0 0 1.00246 0.44871 5.35865e-15)"/><path d="M131.907 74.5262 128.635 67.9549 131.907 69.5977 135.206 67.9549 131.907 74.5262Z" stroke="#000000" stroke-width="0.938748" stroke-linecap="butt" stroke-linejoin="miter" stroke-miterlimit="10" stroke-opacity="1" fill="none" fill-rule="nonzero" transform="matrix(1 0 0 1.00246 0.44871 5.35865e-15)"/><path d="M116.418 42.2437 151.151 42.2437 151.151 54.4474 116.418 54.4474Z" fill="#FFFFFF" fill-rule="nonzero" fill-opacity="1" transform="matrix(1 0 0 1.00246 0.44871 5.35865e-15)"/><text fill="#000000" fill-opacity="1" font-family="Arial,Arial_MSFontService,sans-serif" font-style="normal" font-variant="normal" font-weight="400" font-stretch="normal" font-size="8" text-anchor="start" direction="ltr" writing-mode="lr-tb" unicode-bidi="normal" text-decoration="none" transform="matrix(1.30382 0 0 1.30703 117.023 52)">redirect</text><path d="M225.808 28.6318 225.808 69.5977" stroke="#000000" stroke-width="0.938748" stroke-linecap="butt" stroke-linejoin="miter" stroke-miterlimit="10" stroke-opacity="1" fill="none" fill-rule="nonzero" transform="matrix(1 0 0 1.00246 0.44871 5.35865e-15)"/><path d="M225.808 74.5262 222.522 67.9549 225.808 69.5977 229.094 67.9549 225.808 74.5262Z" fill="#000000" fill-rule="nonzero" fill-opacity="1" transform="matrix(1 0 0 1.00246 0.44871 5.35865e-15)"/><path d="M225.808 74.5262 222.522 67.9549 225.808 69.5977 229.094 67.9549 225.808 74.5262Z" stroke="#000000" stroke-width="0.938748" stroke-linecap="butt" stroke-linejoin="miter" stroke-miterlimit="10" stroke-opacity="1" fill="none" fill-rule="nonzero" transform="matrix(1 0 0 1.00246 0.44871 5.35865e-15)"/><path d="M199.979 42.2437 255.379 42.2437 255.379 54.4474 199.979 54.4474Z" fill="#FFFFFF" fill-rule="nonzero" fill-opacity="1" transform="matrix(1 0 0 1.00246 0.44871 5.35865e-15)"/><text fill="#000000" fill-opacity="1" font-family="Arial,Arial_MSFontService,sans-serif" font-style="normal" font-variant="normal" font-weight="400" font-stretch="normal" font-size="8" text-anchor="start" direction="ltr" writing-mode="lr-tb" unicode-bidi="normal" text-decoration="none" transform="matrix(1.30382 0 0 1.30703 200.298 52)">rabCommits</text><path d="M66.1948 94.3572 116.548 94.3572" stroke="#000000" stroke-width="0.938748" stroke-linecap="butt" stroke-linejoin="miter" stroke-miterlimit="10" stroke-opacity="1" fill="none" fill-rule="nonzero" transform="matrix(1 0 0 1.00246 0.44871 5.35865e-15)"/><path d="M121.477 94.3572 114.905 97.6428 116.548 94.3572 114.905 91.0716 121.477 94.3572Z" fill="#000000" fill-rule="nonzero" fill-opacity="1" transform="matrix(1 0 0 1.00246 0.44871 5.35865e-15)"/><path d="M121.477 94.3572 114.905 97.6428 116.548 94.3572 114.905 91.0716 121.477 94.3572Z" stroke="#000000" stroke-width="0.938748" stroke-linecap="butt" stroke-linejoin="miter" stroke-miterlimit="10" stroke-opacity="1" fill="none" fill-rule="nonzero" transform="matrix(1 0 0 1.00246 0.44871 5.35865e-15)"/><path d="M70.4191 81.6841 110.785 81.6841 110.785 93.8878 70.4191 93.8878Z" fill="#FFFFFF" fill-rule="nonzero" fill-opacity="1" transform="matrix(1 0 0 1.00246 0.44871 5.35865e-15)"/><text fill="#000000" fill-opacity="1" font-family="Arial,Arial_MSFontService,sans-serif" font-style="normal" font-variant="normal" font-weight="400" font-stretch="normal" font-size="8" text-anchor="start" direction="ltr" writing-mode="lr-tb" unicode-bidi="normal" text-decoration="none" transform="matrix(1.30382 0 0 1.30703 71.2329 91)">decoded</text><path d="M66.1948 113.132 116.548 113.132" stroke="#000000" stroke-width="0.938748" stroke-linecap="butt" stroke-linejoin="miter" stroke-miterlimit="10" stroke-opacity="1" fill="none" fill-rule="nonzero" transform="matrix(1 0 0 1.00246 0.44871 5.35865e-15)"/><path d="M121.477 113.132 114.905 116.418 116.548 113.132 114.905 109.847 121.477 113.132Z" fill="#000000" fill-rule="nonzero" fill-opacity="1" transform="matrix(1 0 0 1.00246 0.44871 5.35865e-15)"/><path d="M121.477 113.132 114.905 116.418 116.548 113.132 114.905 109.847 121.477 113.132Z" stroke="#000000" stroke-width="0.938748" stroke-linecap="butt" stroke-linejoin="miter" stroke-miterlimit="10" stroke-opacity="1" fill="none" fill-rule="nonzero" transform="matrix(1 0 0 1.00246 0.44871 5.35865e-15)"/><path d="M67.6029 100.459 111.737 100.459 111.737 112.663 67.6029 112.663Z" fill="#FFFFFF" fill-rule="nonzero" fill-opacity="1" transform="matrix(1 0 0 1.00246 0.44871 5.35865e-15)"/><text fill="#000000" fill-opacity="1" font-family="Arial,Arial_MSFontService,sans-serif" font-style="normal" font-variant="normal" font-weight="400" font-stretch="normal" font-size="8" text-anchor="start" direction="ltr" writing-mode="lr-tb" unicode-bidi="normal" text-decoration="none" transform="matrix(1.30382 0 0 1.30703 67.7256 110)">fusionInfo</text><path d="M178.636 28.6318 178.636 69.5977" stroke="#000000" stroke-width="0.938748" stroke-linecap="butt" stroke-linejoin="miter" stroke-miterlimit="10" stroke-opacity="1" fill="none" fill-rule="nonzero" transform="matrix(1 0 0 1.00246 0.44871 5.35865e-15)"/><path d="M178.636 74.5262 175.35 67.9549 178.636 69.5977 181.922 67.9549 178.636 74.5262Z" fill="#000000" fill-rule="nonzero" fill-opacity="1" transform="matrix(1 0 0 1.00246 0.44871 5.35865e-15)"/><path d="M178.636 74.5262 175.35 67.9549 178.636 69.5977 181.922 67.9549 178.636 74.5262Z" stroke="#000000" stroke-width="0.938748" stroke-linecap="butt" stroke-linejoin="miter" stroke-miterlimit="10" stroke-opacity="1" fill="none" fill-rule="nonzero" transform="matrix(1 0 0 1.00246 0.44871 5.35865e-15)"/><path d="M171.817 42.2437 187.776 42.2437 187.776 54.4474 171.817 54.4474Z" fill="#FFFFFF" fill-rule="nonzero" fill-opacity="1" transform="matrix(1 0 0 1.00246 0.44871 5.35865e-15)"/><text fill="#000000" fill-opacity="1" font-family="Arial,Arial_MSFontService,sans-serif" font-style="normal" font-variant="normal" font-weight="400" font-stretch="normal" font-size="8" text-anchor="start" direction="ltr" writing-mode="lr-tb" unicode-bidi="normal" text-decoration="none" transform="matrix(1.30382 0 0 1.30703 172.5 52)">ssit</text><path d="M178.636 131.92 178.636 172.873" stroke="#000000" stroke-width="0.938748" stroke-linecap="butt" stroke-linejoin="miter" stroke-miterlimit="10" stroke-opacity="1" fill="none" fill-rule="nonzero" transform="matrix(1 0 0 1.00246 0.44871 5.35865e-15)"/><path d="M178.636 177.801 175.35 171.23 178.636 172.873 181.922 171.23 178.636 177.801Z" fill="#000000" fill-rule="nonzero" fill-opacity="1" transform="matrix(1 0 0 1.00246 0.44871 5.35865e-15)"/><path d="M178.636 177.801 175.35 171.23 178.636 172.873 181.922 171.23 178.636 177.801Z" stroke="#000000" stroke-width="0.938748" stroke-linecap="butt" stroke-linejoin="miter" stroke-miterlimit="10" stroke-opacity="1" fill="none" fill-rule="nonzero" transform="matrix(1 0 0 1.00246 0.44871 5.35865e-15)"/><path d="M164.307 145.532 195.286 145.532 195.286 157.736 164.307 157.736Z" fill="#FFFFFF" fill-rule="nonzero" fill-opacity="1" transform="matrix(1 0 0 1.00246 0.44871 5.35865e-15)"/><text fill="#000000" fill-opacity="1" font-family="Arial,Arial_MSFontService,sans-serif" font-style="normal" font-variant="normal" font-weight="400" font-stretch="normal" font-size="8" text-anchor="start" direction="ltr" writing-mode="lr-tb" unicode-bidi="normal" text-decoration="none" transform="matrix(1.30382 0 0 1.30703 165.134 155)">rfW</text><text fill="#000000" fill-opacity="1" font-family="Arial,Arial_MSFontService,sans-serif" font-style="normal" font-variant="normal" font-weight="400" font-stretch="normal" font-size="8" text-anchor="start" direction="ltr" writing-mode="lr-tb" unicode-bidi="normal" text-decoration="none" transform="matrix(1.30382 0 0 1.30703 181.001 155)">rite</text><path d="M131.92 137.892 131.92 178.858" stroke="#000000" stroke-width="0.938748" stroke-linecap="butt" stroke-linejoin="miter" stroke-miterlimit="10" stroke-opacity="1" fill="none" fill-rule="nonzero" transform="matrix(1 0 0 1.00246 0.44871 5.35865e-15)"/><path d="M131.907 132.963 135.206 139.534 131.907 137.892 128.635 139.534 131.907 132.963Z" fill="#000000" fill-rule="nonzero" fill-opacity="1" transform="matrix(1 0 0 1.00246 0.44871 5.35865e-15)"/><path d="M131.907 132.963 135.206 139.534 131.907 137.892 128.635 139.534 131.907 132.963Z" stroke="#000000" stroke-width="0.938748" stroke-linecap="butt" stroke-linejoin="miter" stroke-miterlimit="10" stroke-opacity="1" fill="none" fill-rule="nonzero" transform="matrix(1 0 0 1.00246 0.44871 5.35865e-15)"/><path d="M118.295 145.532 149.274 145.532 149.274 157.736 118.295 157.736Z" fill="#FFFFFF" fill-rule="nonzero" fill-opacity="1" transform="matrix(1 0 0 1.00246 0.44871 5.35865e-15)"/><text fill="#000000" fill-opacity="1" font-family="Arial,Arial_MSFontService,sans-serif" font-style="normal" font-variant="normal" font-weight="400" font-stretch="normal" font-size="8" text-anchor="start" direction="ltr" writing-mode="lr-tb" unicode-bidi="normal" text-decoration="none" transform="matrix(1.30382 0 0 1.30703 118.731 155)">rfRead</text><path d="M235.195 94.3572 285.549 94.3572" stroke="#000000" stroke-width="0.938748" stroke-linecap="butt" stroke-linejoin="miter" stroke-miterlimit="10" stroke-opacity="1" fill="none" fill-rule="nonzero" transform="matrix(1 0 0 1.00246 0.44871 5.35865e-15)"/><path d="M290.477 94.3572 283.906 97.6428 285.549 94.3572 283.906 91.0716 290.477 94.3572Z" fill="#000000" fill-rule="nonzero" fill-opacity="1" transform="matrix(1 0 0 1.00246 0.44871 5.35865e-15)"/><path d="M290.477 94.3572 283.906 97.6428 285.549 94.3572 283.906 91.0716 290.477 94.3572Z" stroke="#000000" stroke-width="0.938748" stroke-linecap="butt" stroke-linejoin="miter" stroke-miterlimit="10" stroke-opacity="1" fill="none" fill-rule="nonzero" transform="matrix(1 0 0 1.00246 0.44871 5.35865e-15)"/><path d="M239.42 81.6841 279.786 81.6841 279.786 93.8878 239.42 93.8878Z" fill="#FFFFFF" fill-rule="nonzero" fill-opacity="1" transform="matrix(1 0 0 1.00246 0.44871 5.35865e-15)"/><text fill="#000000" fill-opacity="1" font-family="Arial,Arial_MSFontService,sans-serif" font-style="normal" font-variant="normal" font-weight="400" font-stretch="normal" font-size="8" text-anchor="start" direction="ltr" writing-mode="lr-tb" unicode-bidi="normal" text-decoration="none" transform="matrix(1.30382 0 0 1.30703 239.673 91)">renamed</text><path d="M235.195 113.132 285.549 113.132" stroke="#000000" stroke-width="0.938748" stroke-linecap="butt" stroke-linejoin="miter" stroke-miterlimit="10" stroke-opacity="1" fill="none" fill-rule="nonzero" transform="matrix(1 0 0 1.00246 0.44871 5.35865e-15)"/><path d="M290.477 113.132 283.906 116.418 285.549 113.132 283.906 109.847 290.477 113.132Z" fill="#000000" fill-rule="nonzero" fill-opacity="1" transform="matrix(1 0 0 1.00246 0.44871 5.35865e-15)"/><path d="M290.477 113.132 283.906 116.418 285.549 113.132 283.906 109.847 290.477 113.132Z" stroke="#000000" stroke-width="0.938748" stroke-linecap="butt" stroke-linejoin="miter" stroke-miterlimit="10" stroke-opacity="1" fill="none" fill-rule="nonzero" transform="matrix(1 0 0 1.00246 0.44871 5.35865e-15)"/><path d="M250.685 99.5203 268.521 99.5203 268.521 111.724 250.685 111.724Z" fill="#FFFFFF" fill-rule="nonzero" fill-opacity="1" transform="matrix(1 0 0 1.00246 0.44871 5.35865e-15)"/><text fill="#000000" fill-opacity="1" font-family="Arial,Arial_MSFontService,sans-serif" font-style="normal" font-variant="normal" font-weight="400" font-stretch="normal" font-size="8" text-anchor="start" direction="ltr" writing-mode="lr-tb" unicode-bidi="normal" text-decoration="none" transform="matrix(1.30382 0 0 1.30703 251.147 109)">perf</text><path d="M225.808 137.892 225.808 178.858" stroke="#000000" stroke-width="0.938748" stroke-linecap="butt" stroke-linejoin="miter" stroke-miterlimit="10" stroke-opacity="1" fill="none" fill-rule="nonzero" transform="matrix(1 0 0 1.00246 0.44871 5.35865e-15)"/><path d="M225.808 132.963 229.094 139.534 225.808 137.892 222.522 139.534 225.808 132.963Z" fill="#000000" fill-rule="nonzero" fill-opacity="1" transform="matrix(1 0 0 1.00246 0.44871 5.35865e-15)"/><path d="M225.808 132.963 229.094 139.534 225.808 137.892 222.522 139.534 225.808 132.963Z" stroke="#000000" stroke-width="0.938748" stroke-linecap="butt" stroke-linejoin="miter" stroke-miterlimit="10" stroke-opacity="1" fill="none" fill-rule="nonzero" transform="matrix(1 0 0 1.00246 0.44871 5.35865e-15)"/><path d="M210.306 145.532 245.039 145.532 245.039 157.736 210.306 157.736Z" fill="#FFFFFF" fill-rule="nonzero" fill-opacity="1" transform="matrix(1 0 0 1.00246 0.44871 5.35865e-15)"/><text fill="#000000" fill-opacity="1" font-family="Arial,Arial_MSFontService,sans-serif" font-style="normal" font-variant="normal" font-weight="400" font-stretch="normal" font-size="8" text-anchor="start" direction="ltr" writing-mode="lr-tb" unicode-bidi="normal" text-decoration="none" transform="matrix(1.30382 0 0 1.30703 210.611 155)">freeInfo</text></g></g></svg>