<svg width="340" height="192" xmlns="http://www.w3.org/2000/svg" xmlns:xlink="http://www.w3.org/1999/xlink" xml:space="preserve" overflow="hidden"><g><g><path d="M29.0553 0.433661 310.116 0.433661C311.055 0.433661 311.983 0.433661 312.922 0.566168 313.852 0.65862 314.777 0.799348 315.693 0.987783 316.621 1.16847 317.524 1.39735 318.427 1.66237 319.331 1.92738 320.198 2.25263 321.066 2.61401 321.933 2.97539 322.776 3.37292 323.607 3.81862 324.435 4.2544 325.238 4.73288 326.017 5.25211 326.799 5.78214 327.546 6.33627 328.269 6.92653 328.992 7.51679 329.691 8.13114 330.353 8.81777 331.016 9.5044 331.642 10.179 332.244 10.9017 332.839 11.6241 333.398 12.376 333.919 13.1544 334.437 13.9374 334.919 14.7445 335.364 15.5636 335.81 16.3827 336.208 17.238 336.569 18.1053 336.93 18.9727 337.243 19.852 337.521 20.7555 337.798 21.6589 338.014 22.5504 338.207 23.4779 338.4 24.4055 338.52 25.321 338.617 26.2485 338.713 27.1761 338.749 28.1277 338.749 29.0553L338.749 162.623C338.749 163.562 338.749 164.502 338.617 165.43 338.484 166.357 338.388 167.285 338.207 168.212 338.026 169.14 337.798 170.031 337.521 170.935 337.243 171.838 336.93 172.717 336.569 173.573 336.211 174.44 335.81 175.288 335.364 176.114 334.919 176.946 334.437 177.753 333.919 178.524 333.401 179.295 332.835 180.054 332.244 180.788 331.654 181.523 331.04 182.198 330.353 182.86 329.693 183.528 328.998 184.159 328.269 184.752 327.546 185.347 326.795 185.906 326.017 186.426 325.233 186.944 324.438 187.426 323.607 187.871 322.776 188.317 321.933 188.715 321.066 189.076 320.198 189.437 319.319 189.739 318.427 190.016 317.529 190.293 316.616 190.522 315.693 190.702 314.777 190.883 313.85 191.016 312.922 191.112 311.99 191.205 311.053 191.248 310.116 191.244L29.0553 191.244C28.1181 191.248 27.1813 191.203 26.2485 191.112 25.321 191.016 24.3934 190.883 23.4779 190.702 22.5585 190.523 21.6498 190.294 20.7555 190.016 19.852 189.739 18.9727 189.425 18.1053 189.076 17.238 188.727 16.3948 188.305 15.5636 187.871 14.7324 187.438 13.9374 186.944 13.1544 186.426 11.5939 185.366 10.1413 184.156 8.81777 182.812 8.15523 182.15 7.52883 181.463 6.92653 180.74 6.32422 180.017 5.72191 179.258 5.25211 178.475 4.73029 177.7 4.25173 176.895 3.81862 176.066 3.37359 175.24 2.97153 174.392 2.61401 173.525 2.25263 172.669 1.93943 171.778 1.66237 170.886 1.38531 169.995 1.16847 169.079 0.987783 168.164 0.800194 167.244 0.659474 166.315 0.566168 165.381 0.481845 164.526 0.433661 163.586 0.433661 162.623L0.433661 29.0553C0.433661 28.1277 0.433661 27.1881 0.566168 26.2485 0.65862 25.3183 0.799348 24.3935 0.987783 23.4779 1.16847 22.5504 1.39735 21.6469 1.66237 20.7555 1.92738 19.8641 2.25263 18.9727 2.61401 18.1053 2.97539 17.238 3.37292 16.3948 3.81862 15.5636 4.26433 14.7324 4.73413 13.9374 5.25211 13.1544 5.7701 12.3714 6.33627 11.6245 6.92653 10.9017 7.51679 10.179 8.13114 9.4803 8.81777 8.81777 9.5044 8.15523 10.179 7.52883 10.9017 6.92653 11.6245 6.32422 12.3714 5.72191 13.1544 5.25211 13.9374 4.78231 14.7445 4.25228 15.5636 3.81862 16.3827 3.38496 17.238 2.97539 18.1053 2.61401 18.9727 2.25263 19.852 1.93943 20.7555 1.66237 21.6589 1.38531 22.5504 1.20461 23.4779 0.987783 24.3935 0.799348 25.3183 0.65862 26.2485 0.566168 27.1881 0.481845 28.1277 0.433661 29.0553 0.433661Z" stroke="#000000" stroke-width="0.867321" stroke-linecap="butt" stroke-linejoin="miter" stroke-miterlimit="4" stroke-opacity="1" fill="none" fill-rule="nonzero" transform="matrix(1 0 0 1.00155 0.414569 4.94644e-15)"/><path d="M114.932 69.8314 227.696 69.8314 227.696 121.883 114.932 121.883Z" stroke="#000000" stroke-width="0.867321" stroke-linecap="butt" stroke-linejoin="miter" stroke-miterlimit="4" stroke-opacity="1" fill="none" fill-rule="nonzero" transform="matrix(1 0 0 1.00155 0.414569 4.94644e-15)"/><path d="M139.579 98.8867 139.579 91.4422 142.891 91.4422C143.401 91.4184 143.91 91.4836 144.397 91.6349 144.748 91.7696 145.04 92.0205 145.228 92.3456 145.435 92.6826 145.544 93.0706 145.541 93.4659 145.556 93.9633 145.369 94.4455 145.023 94.803 144.597 95.2155 144.038 95.4631 143.445 95.5017 143.659 95.5981 143.857 95.7237 144.036 95.8752 144.351 96.167 144.626 96.4991 144.855 96.8629L146.156 98.8867 144.951 98.8867 143.963 97.3448C143.674 96.887 143.433 96.5497 143.253 96.3088 143.107 96.1226 142.936 95.9566 142.747 95.8149 142.611 95.7258 142.46 95.6606 142.301 95.6222 142.117 95.6048 141.931 95.6048 141.747 95.6222L140.542 95.6222 140.542 98.9228ZM140.566 94.7308 142.686 94.7308C143.045 94.745 143.404 94.6961 143.746 94.5862 143.98 94.5011 144.183 94.3453 144.325 94.1405 144.458 93.9411 144.529 93.7061 144.529 93.4659 144.536 93.1339 144.395 92.8163 144.144 92.5986 143.796 92.3464 143.368 92.2267 142.939 92.2613L140.53 92.2613Z" fill="#000000" fill-rule="nonzero" fill-opacity="1" transform="matrix(1 0 0 1.00155 0.414569 4.94644e-15)"/><path d="M150.661 97.152 151.613 97.2725C151.481 97.7769 151.19 98.2249 150.781 98.5494 150.335 98.8742 149.791 99.0357 149.24 99.0072 148.537 99.0521 147.851 98.788 147.36 98.2844 146.865 97.7212 146.615 96.9847 146.662 96.2365 146.619 95.467 146.869 94.7099 147.36 94.1164 147.833 93.6201 148.494 93.3485 149.179 93.3696 149.848 93.3452 150.495 93.6135 150.95 94.1044 151.438 94.6807 151.684 95.4229 151.637 96.1763L151.637 96.4293 147.613 96.4293C147.605 96.9284 147.781 97.4132 148.107 97.7905 148.404 98.0968 148.813 98.2669 149.24 98.2603 149.547 98.2728 149.849 98.1792 150.095 97.9953 150.365 97.778 150.562 97.4839 150.661 97.152ZM147.661 95.6704 150.673 95.6704C150.666 95.3009 150.544 94.9429 150.324 94.6465 150.05 94.3013 149.631 94.105 149.191 94.1164 148.793 94.1074 148.41 94.2645 148.131 94.5501 147.837 94.8502 147.67 95.2508 147.661 95.6704Z" fill="#000000" fill-rule="nonzero" fill-opacity="1" transform="matrix(1 0 0 1.00155 0.414569 4.94644e-15)"/><path d="M152.757 98.8867 152.757 93.49 153.576 93.49 153.576 94.261C153.953 93.6812 154.607 93.3426 155.299 93.3696 155.609 93.3665 155.917 93.4281 156.202 93.5503 156.443 93.6405 156.653 93.7996 156.804 94.008 156.954 94.2065 157.053 94.4379 157.094 94.6826 157.12 94.9792 157.12 95.2774 157.094 95.574L157.094 98.8867 156.178 98.8867 156.178 95.6101C156.19 95.3249 156.154 95.0398 156.07 94.7669 156.001 94.5821 155.869 94.4282 155.696 94.3332 155.505 94.2142 155.283 94.1554 155.058 94.1646 154.686 94.1575 154.324 94.2909 154.046 94.538 153.716 94.9289 153.563 95.4395 153.624 95.9474L153.624 98.8867Z" fill="#000000" fill-rule="nonzero" fill-opacity="1" transform="matrix(1 0 0 1.00155 0.414569 4.94644e-15)"/><path d="M162.069 98.2242C161.781 98.4827 161.451 98.6905 161.093 98.8385 160.768 98.951 160.426 99.0081 160.081 99.0072 159.588 99.0411 159.102 98.886 158.72 98.5735 158.399 98.2962 158.222 97.8887 158.238 97.4652 158.234 97.2128 158.297 96.9636 158.419 96.7425 158.532 96.5318 158.693 96.3503 158.888 96.2124 159.093 96.0791 159.316 95.9776 159.551 95.9113 159.817 95.8523 160.087 95.8081 160.358 95.7788 160.913 95.7304 161.463 95.6254 161.996 95.4656L161.996 95.2247C162.029 94.9394 161.936 94.6543 161.743 94.4417 161.445 94.2106 161.071 94.099 160.695 94.1285 160.362 94.1011 160.028 94.1814 159.744 94.3573 159.502 94.5594 159.339 94.8414 159.286 95.1524L158.395 95.0319C158.46 94.6981 158.596 94.382 158.792 94.1044 159.003 93.8495 159.284 93.6611 159.599 93.5623 159.987 93.4303 160.394 93.3651 160.804 93.3696 161.184 93.3582 161.564 93.4153 161.924 93.5382 162.193 93.6081 162.436 93.7546 162.623 93.9598 162.766 94.1389 162.865 94.3495 162.912 94.5742 162.932 94.8548 162.932 95.1367 162.912 95.4174L162.912 96.622C162.882 97.1557 162.882 97.6905 162.912 98.2242 162.956 98.4528 163.037 98.6725 163.153 98.8746L162.189 98.8746C162.111 98.6667 162.07 98.4464 162.069 98.2242ZM161.996 96.1763C161.515 96.3525 161.013 96.4699 160.503 96.5256 160.228 96.5603 159.958 96.6208 159.696 96.7063 159.553 96.7728 159.433 96.877 159.346 97.0075 159.261 97.1361 159.215 97.2868 159.214 97.4412 159.214 97.6762 159.315 97.9 159.491 98.0555 159.722 98.2303 160.009 98.3158 160.298 98.2964 160.626 98.3006 160.948 98.222 161.237 98.0676 161.502 97.9218 161.717 97.6992 161.852 97.4291 161.964 97.1375 162.013 96.8255 161.996 96.5136Z" fill="#000000" fill-rule="nonzero" fill-opacity="1" transform="matrix(1 0 0 1.00155 0.414569 4.94644e-15)"/><path d="M164.333 98.8867 164.333 93.49 165.152 93.49 165.152 94.2489C165.321 93.9837 165.552 93.7643 165.827 93.6105 166.122 93.4494 166.455 93.3664 166.791 93.3696 167.138 93.3567 167.481 93.4445 167.779 93.6225 168.034 93.7865 168.225 94.0331 168.321 94.3212 168.665 93.7297 169.299 93.367 169.983 93.3696 170.429 93.3465 170.865 93.5077 171.188 93.8153 171.503 94.1998 171.655 94.6932 171.609 95.1885L171.609 98.8867 170.706 98.8867 170.706 95.4897C170.713 95.2221 170.684 94.9548 170.621 94.6946 170.559 94.5333 170.444 94.3976 170.296 94.3092 170.129 94.2093 169.937 94.1591 169.742 94.1646 169.39 94.1545 169.051 94.2895 168.802 94.538 168.525 94.8756 168.392 95.3078 168.429 95.7427L168.429 98.8746 167.513 98.8746 167.513 95.3813C167.533 95.0599 167.452 94.7404 167.285 94.4658 167.105 94.249 166.829 94.1362 166.55 94.1646 166.297 94.1567 166.049 94.2283 165.839 94.3694 165.619 94.5051 165.452 94.714 165.369 94.9597 165.248 95.3242 165.195 95.7081 165.213 96.092L165.213 98.8867Z" fill="#000000" fill-rule="nonzero" fill-opacity="1" transform="matrix(1 0 0 1.00155 0.414569 4.94644e-15)"/><path d="M176.705 97.152 177.644 97.2725C177.524 97.7786 177.235 98.2286 176.825 98.5494 176.373 98.8715 175.825 99.0327 175.271 99.0072 174.571 99.0396 173.89 98.7774 173.392 98.2844 172.907 97.7168 172.66 96.9824 172.705 96.2365 172.657 95.4663 172.907 94.7069 173.404 94.1164 173.876 93.6201 174.538 93.3485 175.223 93.3696 175.892 93.3452 176.538 93.6135 176.994 94.1044 177.482 94.6807 177.727 95.4229 177.68 96.1763 177.685 96.2605 177.685 96.3451 177.68 96.4293L173.657 96.4293C173.657 96.9289 173.837 97.4121 174.163 97.7905 174.456 98.1019 174.868 98.2729 175.295 98.2603 175.602 98.2709 175.904 98.1775 176.151 97.9953 176.412 97.773 176.605 97.4803 176.705 97.152ZM173.705 95.6704 176.717 95.6704C176.703 95.3021 176.582 94.9458 176.367 94.6465 176.094 94.3013 175.675 94.105 175.235 94.1164 174.836 94.1074 174.453 94.2645 174.175 94.5501 173.877 94.8474 173.709 95.2497 173.705 95.6704Z" fill="#000000" fill-rule="nonzero" fill-opacity="1" transform="matrix(1 0 0 1.00155 0.414569 4.94644e-15)"/><path d="M180.812 98.8867 180.812 92.3215 178.403 92.3215 178.403 91.4422 184.306 91.4422 184.306 92.3215 181.897 92.3215 181.897 98.8867Z" fill="#000000" fill-rule="nonzero" fill-opacity="1" transform="matrix(1 0 0 1.00155 0.414569 4.94644e-15)"/><path d="M187.522 98.2242C187.234 98.4827 186.904 98.6905 186.546 98.8385 186.221 98.951 185.879 99.0081 185.535 99.0072 185.042 99.0411 184.555 98.886 184.173 98.5735 183.853 98.2962 183.676 97.8887 183.691 97.4652 183.688 97.2128 183.75 96.9636 183.872 96.7425 183.985 96.5318 184.147 96.3503 184.342 96.2124 184.547 96.0791 184.77 95.9776 185.004 95.9113 185.271 95.8523 185.541 95.8081 185.812 95.7788 186.367 95.7304 186.916 95.6254 187.45 95.4656L187.45 95.2247C187.482 94.9394 187.39 94.6543 187.197 94.4417 186.898 94.2106 186.525 94.099 186.149 94.1285 185.815 94.1011 185.482 94.1814 185.197 94.3573 184.955 94.5594 184.792 94.8414 184.739 95.1524L183.848 95.0319C183.913 94.6981 184.049 94.382 184.246 94.1044 184.459 93.847 184.744 93.6584 185.065 93.5623 185.451 93.4269 185.86 93.3616 186.269 93.3696 186.65 93.3582 187.029 93.4153 187.39 93.5382 187.635 93.6149 187.856 93.7564 188.028 93.9478 188.171 94.1269 188.27 94.3375 188.317 94.5621 188.338 94.8428 188.338 95.1247 188.317 95.4053L188.317 96.61C188.287 97.1436 188.287 97.6785 188.317 98.2121 188.362 98.4407 188.442 98.6605 188.558 98.8626L187.594 98.8626C187.533 98.6556 187.509 98.4395 187.522 98.2242ZM187.45 96.1763C186.968 96.3525 186.467 96.4699 185.956 96.5256 185.686 96.5599 185.42 96.6205 185.161 96.7063 185.014 96.7692 184.888 96.8739 184.8 97.0075 184.714 97.1361 184.668 97.2868 184.667 97.4412 184.667 97.6762 184.768 97.9 184.944 98.0555 185.176 98.2303 185.462 98.3158 185.751 98.2964 186.079 98.3006 186.402 98.222 186.691 98.0676 186.956 97.9218 187.17 97.6992 187.305 97.4291 187.417 97.1375 187.467 96.8255 187.45 96.5136Z" fill="#000000" fill-rule="nonzero" fill-opacity="1" transform="matrix(1 0 0 1.00155 0.414569 4.94644e-15)"/><path d="M190.63 98.8867 189.787 98.8867 189.787 91.4422 190.702 91.4422 190.702 94.0923C191.053 93.6285 191.603 93.36 192.184 93.3696 192.508 93.3712 192.828 93.441 193.124 93.5743 193.411 93.6991 193.664 93.8937 193.858 94.1405 194.058 94.4 194.21 94.6939 194.304 95.0078 194.416 95.3624 194.473 95.7322 194.473 96.104 194.523 96.8835 194.278 97.6534 193.786 98.2603 193.371 98.7368 192.768 99.0093 192.136 99.0072 191.529 99.0261 190.956 98.7241 190.63 98.2121ZM190.63 96.1522C190.596 96.6318 190.683 97.1122 190.883 97.5496 191.119 97.9943 191.584 98.269 192.088 98.2603 192.494 98.2557 192.875 98.0648 193.124 97.7423 193.443 97.2896 193.596 96.7408 193.557 96.1884 193.602 95.6333 193.452 95.08 193.136 94.6224 192.897 94.3039 192.521 94.1164 192.124 94.1164 191.714 94.1221 191.331 94.3181 191.088 94.6465 190.763 95.0784 190.6 95.6119 190.63 96.1522Z" fill="#000000" fill-rule="nonzero" fill-opacity="1" transform="matrix(1 0 0 1.00155 0.414569 4.94644e-15)"/><path d="M195.557 98.8867 195.557 91.4422 196.472 91.4422 196.472 98.8867Z" fill="#000000" fill-rule="nonzero" fill-opacity="1" transform="matrix(1 0 0 1.00155 0.414569 4.94644e-15)"/><path d="M201.592 97.152 202.532 97.2725C202.411 97.7818 202.117 98.2332 201.7 98.5494 201.254 98.8742 200.71 99.0357 200.159 99.0072 199.459 99.0396 198.777 98.7774 198.279 98.2844 197.794 97.7168 197.547 96.9824 197.593 96.2365 197.545 95.4663 197.794 94.7069 198.291 94.1164 198.764 93.6201 199.425 93.3485 200.11 93.3696 200.779 93.3452 201.426 93.6135 201.881 94.1044 202.369 94.6807 202.615 95.4229 202.568 96.1763 202.573 96.2605 202.573 96.3451 202.568 96.4293L198.544 96.4293C198.544 96.9289 198.724 97.4121 199.05 97.7905 199.343 98.1019 199.755 98.2729 200.183 98.2603 200.49 98.2691 200.79 98.1758 201.038 97.9953 201.299 97.773 201.492 97.4803 201.592 97.152ZM198.58 95.6704 201.604 95.6704C201.591 95.3021 201.469 94.9458 201.255 94.6465 200.979 94.3043 200.561 94.1087 200.122 94.1164 199.724 94.1074 199.341 94.2645 199.062 94.5501 198.766 94.8489 198.594 95.2494 198.58 95.6704Z" fill="#000000" fill-rule="nonzero" fill-opacity="1" transform="matrix(1 0 0 1.00155 0.414569 4.94644e-15)"/><path d="M13.9012 25.1523 13.9012 17.7078 17.2019 17.7078C17.715 17.685 18.2284 17.7502 18.7197 17.9006 19.0617 18.0438 19.3487 18.2929 19.5388 18.6113 19.7523 18.9498 19.8612 19.3436 19.852 19.7436 19.863 20.2345 19.6813 20.7101 19.3461 21.0687 18.9128 21.4785 18.3508 21.7254 17.756 21.7674 17.9708 21.8607 18.1699 21.9867 18.3463 22.1408 18.6615 22.4327 18.9369 22.7648 19.1654 23.1286L20.4784 25.1523 19.2738 25.1523 18.286 23.6104C17.9969 23.1527 17.756 22.8154 17.5753 22.5744 17.4318 22.3858 17.2614 22.2194 17.0694 22.0806 16.934 21.9894 16.7828 21.9241 16.6237 21.8878 16.4394 21.87 16.2538 21.87 16.0695 21.8878L14.9372 21.8878 14.9372 25.1885ZM14.889 20.9964 16.9971 20.9964C17.3562 21.0106 17.7149 20.9617 18.0571 20.8519 18.2913 20.7667 18.4933 20.6109 18.6354 20.4061 18.7671 20.2102 18.8383 19.9797 18.8401 19.7436 18.8485 19.4078 18.7073 19.0856 18.4547 18.8642 18.1043 18.6157 17.6785 18.4965 17.2501 18.5269L14.8408 18.5269Z" fill="#000000" fill-rule="nonzero" fill-opacity="1" transform="matrix(1 0 0 1.00155 0.414569 4.94644e-15)"/><path d="M24.9716 23.4177 25.9233 23.5381C25.8058 24.0487 25.5113 24.501 25.0921 24.815 24.6458 25.1398 24.1014 25.3013 23.5502 25.2728 22.8484 25.3177 22.1619 25.0537 21.671 24.55 21.1795 23.9848 20.9288 23.2499 20.9723 22.5022 20.9252 21.7336 21.1802 20.9771 21.683 20.3941 22.1534 19.8933 22.8153 19.6172 23.502 19.6352 24.171 19.6109 24.8176 19.8791 25.2728 20.37 25.756 20.9481 25.9975 21.6903 25.9474 22.4419L25.9474 22.6949 21.924 22.6949C21.9152 23.207 22.0953 23.7045 22.4299 24.0923 22.72 24.4005 23.127 24.5712 23.5502 24.5621 23.8607 24.5727 24.1659 24.4793 24.4175 24.297 24.6854 24.0655 24.8784 23.7593 24.9716 23.4177ZM21.9721 21.936 24.9837 21.936C24.9722 21.5693 24.8551 21.2137 24.6464 20.9121 24.3687 20.5746 23.9511 20.3835 23.514 20.3941 23.117 20.3789 22.7321 20.532 22.454 20.8157 22.1573 21.1146 21.985 21.515 21.9721 21.936Z" fill="#000000" fill-rule="nonzero" fill-opacity="1" transform="matrix(1 0 0 1.00155 0.414569 4.94644e-15)"/><path d="M27.0677 25.1523 27.0677 19.7557 27.8988 19.7557 27.8988 20.4784C28.2703 19.8988 28.9214 19.5594 29.6094 19.587 29.9198 19.584 30.2275 19.6456 30.5128 19.7677 30.7557 19.8612 30.9682 20.0195 31.1272 20.2255 31.2673 20.4276 31.3619 20.6578 31.4043 20.9 31.4302 21.1966 31.4302 21.4949 31.4043 21.7915L31.4043 25.1041 30.5008 25.1041 30.5008 21.8758C30.513 21.5905 30.4763 21.3054 30.3924 21.0325 30.3447 20.8639 30.2483 20.7131 30.1153 20.5989 29.9249 20.4784 29.702 20.4195 29.4769 20.4302 29.1079 20.4213 28.7499 20.5552 28.4771 20.8037 28.1372 21.1896 27.9794 21.7028 28.0434 22.2131L28.0434 25.1523Z" fill="#000000" fill-rule="nonzero" fill-opacity="1" transform="matrix(1 0 0 1.00155 0.414569 4.94644e-15)"/><path d="M36.3793 24.4898C36.0912 24.7483 35.7612 24.9561 35.4036 25.1041 35.0795 25.2223 34.7365 25.2795 34.3917 25.2728 33.8993 25.3068 33.4125 25.1516 33.0305 24.8391 32.7102 24.5618 32.533 24.1542 32.5486 23.7309 32.5453 23.4784 32.6076 23.2293 32.7293 23.0081 32.8427 22.7974 33.0035 22.6159 33.1991 22.4781 33.4044 22.3464 33.6275 22.245 33.8617 22.1769 34.0424 22.1769 34.3074 22.0926 34.6808 22.0444 35.2337 21.9794 35.7786 21.8583 36.307 21.683L36.307 21.4421C36.339 21.1569 36.2468 20.8717 36.0541 20.6591 35.7542 20.4312 35.3818 20.3199 35.0061 20.3459 34.6726 20.3203 34.3397 20.4004 34.0544 20.5748 33.8165 20.7787 33.6586 21.0605 33.6087 21.3698L32.7052 21.2494C32.7674 20.9124 32.9077 20.5948 33.1148 20.3218 33.3243 20.0652 33.6052 19.8766 33.9219 19.7797 34.3088 19.6443 34.7167 19.5791 35.1265 19.587 35.5109 19.5758 35.8943 19.6329 36.2589 19.7557 36.5012 19.8321 36.7179 19.9738 36.8853 20.1652 37.0333 20.3415 37.133 20.5531 37.1744 20.7796 37.2004 21.06 37.2004 21.3424 37.1744 21.6228L37.1744 22.8274C37.1881 23.393 37.2445 23.9567 37.343 24.5139 37.3794 24.7389 37.457 24.9554 37.5719 25.1523L36.6202 25.1523C36.5022 24.9471 36.4208 24.7229 36.3793 24.4898ZM36.307 22.4419C35.8251 22.6182 35.3235 22.7355 34.8133 22.7913 34.5434 22.8271 34.2771 22.8875 34.0183 22.972 33.8709 23.0349 33.7453 23.1395 33.6569 23.2731 33.5716 23.4018 33.5255 23.5525 33.5244 23.7068 33.5243 23.9418 33.6252 24.1656 33.8014 24.3211 34.0327 24.4959 34.3193 24.5815 34.6085 24.5621 34.9403 24.5706 35.2685 24.4917 35.5602 24.3332 35.819 24.1838 36.0284 23.9618 36.1625 23.6947 36.2743 23.4031 36.3235 23.0911 36.307 22.7792Z" fill="#000000" fill-rule="nonzero" fill-opacity="1" transform="matrix(1 0 0 1.00155 0.414569 4.94644e-15)"/><path d="M38.656 25.1523 38.656 19.7557 39.4631 19.7557 39.4631 20.4784C39.6398 20.2157 39.8749 19.9972 40.1498 19.84 40.4409 19.6789 40.7687 19.5959 41.1014 19.5991 41.4484 19.5833 41.7924 19.6713 42.0892 19.852 42.3419 20.0187 42.5326 20.2644 42.6313 20.5507 42.9755 19.9592 43.6093 19.5965 44.2936 19.5991 44.7393 19.576 45.1749 19.7372 45.4982 20.0448 45.8159 20.4287 45.9715 20.9212 45.9319 21.418L45.9319 25.1162 45.0525 25.1162 45.0525 21.7553C45.0658 21.4875 45.0374 21.2193 44.9682 20.9603 44.906 20.799 44.7915 20.6632 44.643 20.5748 44.4708 20.4916 44.2789 20.4582 44.0888 20.4784 43.7376 20.4683 43.3978 20.6033 43.1492 20.8519 42.8725 21.1894 42.7386 21.6216 42.7758 22.0565L42.7758 25.1885 41.8603 25.1885 41.8603 21.683C41.8858 21.361 41.8055 21.0397 41.6314 20.7675 41.4636 20.5718 41.2144 20.4649 40.9568 20.4784 40.7054 20.4791 40.4593 20.5501 40.2461 20.6832 40.0304 20.8246 39.8657 21.0315 39.7763 21.2735 39.6606 21.6393 39.6076 22.0223 39.6197 22.4058L39.6197 25.2005Z" fill="#000000" fill-rule="nonzero" fill-opacity="1" transform="matrix(1 0 0 1.00155 0.414569 4.94644e-15)"/><path d="M51.0154 23.4177 51.967 23.5381C51.8404 24.0447 51.5478 24.4942 51.1358 24.815 50.6895 25.1398 50.1452 25.3013 49.5939 25.2728 48.8921 25.3177 48.2056 25.0537 47.7147 24.55 47.2187 23.9876 46.9673 23.2506 47.016 22.5022 46.9656 21.7353 47.2163 20.9791 47.7147 20.3941 48.1851 19.8933 48.8469 19.6172 49.5337 19.6352 50.2027 19.6109 50.8493 19.8791 51.3045 20.37 51.7919 20.9463 52.038 21.6886 51.9911 22.4419L51.9911 22.6949 47.9557 22.6949C47.9469 23.207 48.1269 23.7045 48.4616 24.0923 48.7562 24.4011 49.1672 24.5716 49.5939 24.5621 49.901 24.5746 50.203 24.4811 50.4492 24.297 50.7251 24.0702 50.9231 23.7627 51.0154 23.4177ZM48.0159 21.936 51.0274 21.936C51.0183 21.567 50.8964 21.2097 50.6781 20.9121 50.4039 20.57 49.9839 20.3778 49.5457 20.3941 49.1491 20.3805 48.7647 20.5334 48.4857 20.8157 48.1881 21.113 48.0194 21.5154 48.0159 21.936Z" fill="#000000" fill-rule="nonzero" fill-opacity="1" transform="matrix(1 0 0 1.00155 0.414569 4.94644e-15)"/><path d="M55.1231 25.1523 55.1231 18.5872 52.7139 18.5872 52.7139 17.7078 58.6285 17.7078 58.6285 18.5872 56.1109 18.5872 56.1109 25.1523Z" fill="#000000" fill-rule="nonzero" fill-opacity="1" transform="matrix(1 0 0 1.00155 0.414569 4.94644e-15)"/><path d="M61.8328 24.4898C61.5446 24.7483 61.2147 24.9561 60.8571 25.1041 60.533 25.2223 60.1899 25.2795 59.8452 25.2728 59.3527 25.3068 58.8659 25.1516 58.484 24.8391 58.1679 24.5588 57.9915 24.1532 58.0021 23.7309 58.014 23.2455 58.2611 22.7962 58.6647 22.5263 58.8644 22.3926 59.0839 22.2909 59.3152 22.2251L60.1343 22.0926C60.6889 22.0119 61.2339 21.8747 61.7605 21.683 61.7605 21.5626 61.7605 21.4783 61.7605 21.4421 61.7893 21.1551 61.6927 20.8697 61.4955 20.6591 61.2004 20.431 60.8316 20.3194 60.4595 20.3459 60.1222 20.3185 59.7848 20.3987 59.4958 20.5748 59.2579 20.7787 59.1 21.0605 59.0501 21.3698L58.1467 21.2494C58.2088 20.9124 58.3492 20.5948 58.5562 20.3218 58.7681 20.0679 59.0481 19.8799 59.3633 19.7797 59.7504 19.6448 60.1581 19.5795 60.5679 19.587 60.9484 19.5768 61.3277 19.6339 61.6882 19.7557 61.9306 19.8321 62.1473 19.9738 62.3146 20.1652 62.4679 20.3381 62.5683 20.5513 62.6037 20.7796 62.6298 21.06 62.6298 21.3424 62.6037 21.6228L62.6037 22.8274C62.5917 23.3662 62.6118 23.9052 62.664 24.4416 62.7004 24.6666 62.7779 24.8831 62.8928 25.08L61.9412 25.08C61.8763 24.8897 61.8398 24.6908 61.8328 24.4898ZM61.7605 22.4419C61.2789 22.6196 60.7772 22.737 60.2668 22.7913 59.9968 22.8271 59.7306 22.8875 59.4717 22.972 59.3244 23.0349 59.1988 23.1395 59.1104 23.2731 59.0251 23.4018 58.9789 23.5525 58.9779 23.7068 58.9777 23.9418 59.0787 24.1656 59.2549 24.3211 59.4893 24.4988 59.7807 24.5845 60.0741 24.5621 60.402 24.5696 60.726 24.4906 61.0137 24.3332 61.2725 24.1838 61.4819 23.9618 61.616 23.6947 61.7277 23.4031 61.777 23.0911 61.7605 22.7792Z" fill="#000000" fill-rule="nonzero" fill-opacity="1" transform="matrix(1 0 0 1.00155 0.414569 4.94644e-15)"/><path d="M64.9527 25.1523 64.0975 25.1523 64.0975 17.7078 65.0491 17.7078 65.0491 20.358C65.3992 19.8942 65.9498 19.6257 66.5308 19.6352 66.8552 19.6342 67.1758 19.7041 67.4704 19.84 67.7605 19.9615 68.0137 20.1567 68.2052 20.4061 68.4054 20.6656 68.5565 20.9595 68.6509 21.2735 68.7633 21.6321 68.8202 22.0059 68.8195 22.3817 68.8679 23.1572 68.6228 23.9227 68.1329 24.5259 67.7172 25.0025 67.115 25.275 66.4826 25.2728 65.8793 25.2899 65.3117 24.9878 64.9889 24.4777ZM64.9527 22.4179C64.9156 22.8989 65.0072 23.3812 65.2178 23.8152 65.4513 24.262 65.9184 24.5375 66.4224 24.5259 66.8298 24.525 67.2132 24.3333 67.4583 24.0079 67.7772 23.5552 67.9303 23.0064 67.892 22.454 67.9367 21.8989 67.7877 21.3456 67.4704 20.888 67.2355 20.5661 66.8568 20.3812 66.4585 20.3941 66.0511 20.3951 65.6677 20.5867 65.4225 20.9121 65.0881 21.3408 64.9173 21.8746 64.9407 22.4179Z" fill="#000000" fill-rule="nonzero" fill-opacity="1" transform="matrix(1 0 0 1.00155 0.414569 4.94644e-15)"/><path d="M69.8676 25.1523 69.8676 17.7078 70.771 17.7078 70.771 25.1523Z" fill="#000000" fill-rule="nonzero" fill-opacity="1" transform="matrix(1 0 0 1.00155 0.414569 4.94644e-15)"/><path d="M75.8906 23.4177 76.8302 23.5381C76.713 24.0456 76.4235 24.4969 76.0111 24.815 74.9421 25.5109 73.5391 25.4022 72.59 24.55 72.0939 23.9876 71.8425 23.2506 71.8913 22.5022 71.8408 21.7353 72.0915 20.9791 72.59 20.3941 73.0604 19.8933 73.7222 19.6172 74.409 19.6352 75.078 19.6109 75.7245 19.8791 76.1797 20.37 76.6671 20.9463 76.9132 21.6886 76.8664 22.4419L76.8664 22.6949 72.843 22.6949C72.8342 23.207 73.0143 23.7045 73.3489 24.0923 73.6417 24.4037 74.0539 24.5747 74.4812 24.5621 74.788 24.5727 75.0894 24.4793 75.3365 24.297 75.6039 24.065 75.7967 23.7591 75.8906 23.4177ZM72.8911 21.936 75.8906 21.936C75.8757 21.5681 75.7544 21.2124 75.5413 20.9121 75.2671 20.57 74.8471 20.3778 74.409 20.3941 74.0123 20.3805 73.6279 20.5334 73.3489 20.8157 73.0601 21.1169 72.9002 21.5187 72.9032 21.936Z" fill="#000000" fill-rule="nonzero" fill-opacity="1" transform="matrix(1 0 0 1.00155 0.414569 4.94644e-15)"/><path d="M79.4081 25.1523 77.4325 17.7078 78.4444 17.7078 79.5767 22.5865C79.7092 23.1045 79.8056 23.6104 79.902 24.1164 80.0827 23.3213 80.2031 22.9117 80.2272 22.7311L81.6487 17.7078 82.8533 17.7078 83.9134 21.4783C84.169 22.3345 84.3622 23.2081 84.4916 24.0923 84.5759 23.6225 84.7084 23.0804 84.853 22.466L86.0576 17.6476 87.0574 17.6476 85.0095 25.0921 84.0579 25.0921 82.4919 19.4184C82.3594 18.9486 82.2751 18.6474 82.251 18.539 82.1787 18.8883 82.1064 19.1774 82.0341 19.4184L80.4561 25.0921Z" fill="#000000" fill-rule="nonzero" fill-opacity="1" transform="matrix(1 0 0 1.00155 0.414569 4.94644e-15)"/><path d="M87.6236 25.1523 87.6236 19.7557 88.4427 19.7557 88.4427 20.5748C88.5826 20.2823 88.7838 20.0234 89.033 19.8159 89.2023 19.6974 89.4043 19.6342 89.6112 19.6352 89.9473 19.6404 90.2743 19.7452 90.5508 19.9363L90.2376 20.7796C90.0388 20.6551 89.8094 20.5884 89.575 20.5868 89.3792 20.5841 89.188 20.6478 89.033 20.7675 88.8684 20.8898 88.7496 21.0636 88.6957 21.2614 88.5864 21.6081 88.5335 21.9701 88.5391 22.3335L88.5391 25.1523Z" fill="#000000" fill-rule="nonzero" fill-opacity="1" transform="matrix(1 0 0 1.00155 0.414569 4.94644e-15)"/><path d="M94.6224 24.4898C94.3342 24.7483 94.0043 24.9561 93.6466 25.1041 93.3226 25.2223 92.9795 25.2795 92.6348 25.2728 92.1424 25.3068 91.6556 25.1516 91.2735 24.8391 90.9532 24.5618 90.776 24.1542 90.7917 23.7309 90.7883 23.4784 90.8506 23.2293 90.9724 23.0081 91.0857 22.7974 91.2465 22.6159 91.4422 22.4781 91.645 22.3421 91.8689 22.2403 92.1047 22.1769L92.9118 22.0444C93.4688 21.9803 94.0178 21.8593 94.5501 21.683L94.5501 21.4421C94.582 21.1569 94.4899 20.8717 94.2971 20.6591 93.9963 20.4331 93.6246 20.3221 93.2491 20.3459 92.9155 20.3186 92.5821 20.3988 92.2975 20.5748 92.0551 20.7768 91.8927 21.0588 91.8397 21.3698L90.9483 21.2494C91.0138 20.9156 91.1493 20.5995 91.3458 20.3218 91.5602 20.0708 91.8395 19.8833 92.1529 19.7797 92.5401 19.6456 92.9478 19.5804 93.3575 19.587 93.7379 19.5768 94.1173 19.6339 94.4778 19.7557 94.7235 19.8324 94.9441 19.9738 95.1162 20.1652 95.2596 20.3443 95.3587 20.5549 95.4053 20.7796 95.4233 21.0604 95.4233 21.342 95.4053 21.6228L95.4053 22.8274C95.3733 23.365 95.3733 23.904 95.4053 24.4416 95.4515 24.6658 95.5328 24.8813 95.6463 25.08L94.6826 25.08C94.6297 24.888 94.6093 24.6885 94.6224 24.4898ZM94.5501 22.4419C94.0681 22.6182 93.5665 22.7355 93.0564 22.7913 92.7822 22.826 92.512 22.8864 92.2493 22.972 92.102 23.0349 91.9763 23.1395 91.8879 23.2731 91.8062 23.4027 91.7643 23.5536 91.7674 23.7068 91.7607 23.9433 91.8628 24.1697 92.0445 24.3211 92.2758 24.4959 92.5623 24.5815 92.8516 24.5621 93.1795 24.5696 93.5035 24.4906 93.7912 24.3332 94.0553 24.1906 94.2665 23.9667 94.3935 23.6947 94.5163 23.406 94.57 23.0924 94.5501 22.7792Z" fill="#000000" fill-rule="nonzero" fill-opacity="1" transform="matrix(1 0 0 1.00155 0.414569 4.94644e-15)"/><path d="M96.887 27.2243 96.887 19.7557 97.7182 19.7557 97.7182 20.4784C97.8999 20.2306 98.1292 20.0218 98.3928 19.8641 98.6681 19.722 98.9746 19.6516 99.2842 19.6593 100.178 19.6407 100.988 20.1853 101.308 21.0205 101.491 21.4716 101.581 21.9552 101.573 22.4419 101.581 22.9545 101.482 23.4631 101.284 23.9357 101.1 24.3508 100.799 24.7026 100.417 24.9475 100.057 25.1782 99.6388 25.2995 99.2119 25.2969 98.9269 25.3034 98.645 25.237 98.3928 25.1041 98.1603 24.9878 97.955 24.8236 97.7905 24.6223L97.7905 27.2243ZM97.7182 22.4901C97.665 23.0573 97.8143 23.6249 98.1398 24.0923 98.3885 24.4038 98.7651 24.5854 99.1637 24.5862 99.5745 24.5853 99.9616 24.3939 100.212 24.0682 100.541 23.6023 100.695 23.0346 100.645 22.466 100.681 21.9177 100.528 21.3736 100.212 20.9241 99.9729 20.6056 99.598 20.4182 99.1999 20.4182 98.7897 20.4304 98.4077 20.6302 98.1639 20.9603 97.8461 21.4049 97.6889 21.9444 97.7182 22.4901Z" fill="#000000" fill-rule="nonzero" fill-opacity="1" transform="matrix(1 0 0 1.00155 0.414569 4.94644e-15)"/><path d="M102.681 27.2243 102.681 19.7557 103.512 19.7557 103.512 20.4784C103.69 20.2312 103.915 20.0222 104.175 19.8641 104.455 19.7234 104.765 19.653 105.078 19.6593 105.507 19.6536 105.928 19.7797 106.283 20.0207 106.643 20.2654 106.921 20.6142 107.078 21.0205 107.265 21.4708 107.36 21.9543 107.355 22.4419 107.365 22.9558 107.262 23.4657 107.054 23.9357 106.699 24.7528 105.897 25.2856 105.006 25.2969 104.721 25.3034 104.439 25.237 104.187 25.1041 103.958 24.9876 103.757 24.8233 103.597 24.6223L103.597 27.2243ZM103.512 22.4901C103.453 23.0577 103.603 23.6276 103.934 24.0923 104.178 24.4033 104.551 24.5853 104.946 24.5862 105.357 24.5871 105.745 24.3953 105.994 24.0682 106.324 23.6023 106.477 23.0346 106.428 22.466 106.481 21.8989 106.331 21.3313 106.006 20.8639 105.763 20.5497 105.391 20.3635 104.994 20.358 104.583 20.3664 104.2 20.5671 103.958 20.9 103.627 21.361 103.469 21.9242 103.512 22.4901Z" fill="#000000" fill-rule="nonzero" fill-opacity="1" transform="matrix(1 0 0 1.00155 0.414569 4.94644e-15)"/><path d="M112.162 23.4177 113.113 23.5381C112.987 24.0447 112.694 24.4942 112.282 24.815 111.836 25.1398 111.291 25.3013 110.74 25.2728 110.038 25.3177 109.352 25.0537 108.861 24.55 108.365 23.9876 108.113 23.2506 108.162 22.5022 108.112 21.7353 108.362 20.9791 108.861 20.3941 109.331 19.8933 109.993 19.6172 110.68 19.6352 111.349 19.6109 111.995 19.8791 112.451 20.37 112.938 20.9463 113.184 21.6886 113.137 22.4419L113.137 22.6949 109.114 22.6949C109.099 23.208 109.28 23.7075 109.62 24.0923 109.914 24.4011 110.325 24.5716 110.752 24.5621 111.059 24.5746 111.361 24.4811 111.607 24.297 111.879 24.0685 112.073 23.7612 112.162 23.4177ZM109.162 21.936 112.174 21.936C112.164 21.567 112.043 21.2097 111.824 20.9121 111.55 20.57 111.13 20.3778 110.692 20.3941 110.295 20.3805 109.911 20.5334 109.632 20.8157 109.334 21.113 109.166 21.5154 109.162 21.936Z" fill="#000000" fill-rule="nonzero" fill-opacity="1" transform="matrix(1 0 0 1.00155 0.414569 4.94644e-15)"/><path d="M114.245 25.1523 114.245 19.7557 115.065 19.7557 115.065 20.5748C115.204 20.2823 115.406 20.0234 115.655 19.8159 115.829 19.6971 116.035 19.634 116.245 19.6352 116.581 19.6439 116.907 19.7483 117.185 19.9363L116.86 20.7796C116.661 20.6551 116.431 20.5884 116.197 20.5868 116.001 20.5841 115.81 20.6478 115.655 20.7675 115.49 20.8898 115.372 21.0636 115.318 21.2614 115.208 21.6081 115.155 21.9701 115.161 22.3335L115.161 25.1523Z" fill="#000000" fill-rule="nonzero" fill-opacity="1" transform="matrix(1 0 0 1.00155 0.414569 4.94644e-15)"/><path d="M68.41 95.8511 109.415 95.8511" stroke="#000000" stroke-width="0.867321" stroke-linecap="butt" stroke-linejoin="miter" stroke-miterlimit="10" stroke-opacity="1" fill="none" fill-rule="nonzero" transform="matrix(1 0 0 1.00155 0.414569 4.94644e-15)"/><path d="M63.8565 95.8511 69.9278 92.8154 68.422 95.8511 69.9278 98.8867 63.8565 95.8511Z" fill="#000000" fill-rule="nonzero" fill-opacity="1" transform="matrix(1 0 0 1.00155 0.414569 4.94644e-15)"/><path d="M63.8565 95.8511 69.9278 92.8154 68.422 95.8511 69.9278 98.8867 63.8565 95.8511Z" stroke="#000000" stroke-width="0.867321" stroke-linecap="butt" stroke-linejoin="miter" stroke-miterlimit="10" stroke-opacity="1" fill="none" fill-rule="nonzero" transform="matrix(1 0 0 1.00155 0.414569 4.94644e-15)"/><path d="M113.968 95.8511 107.897 98.8867 109.415 95.8511 107.897 92.8154 113.968 95.8511Z" fill="#000000" fill-rule="nonzero" fill-opacity="1" transform="matrix(1 0 0 1.00155 0.414569 4.94644e-15)"/><path d="M113.968 95.8511 107.897 98.8867 109.415 95.8511 107.897 92.8154 113.968 95.8511Z" stroke="#000000" stroke-width="0.867321" stroke-linecap="butt" stroke-linejoin="miter" stroke-miterlimit="10" stroke-opacity="1" fill="none" fill-rule="nonzero" transform="matrix(1 0 0 1.00155 0.414569 4.94644e-15)"/><path d="M79.8056 84.1422 99.754 84.1422 99.754 95.4174 79.8056 95.4174Z" fill="#FFFFFF" fill-rule="nonzero" fill-opacity="1" transform="matrix(1 0 0 1.00155 0.414569 4.94644e-15)"/><path d="M80.8416 92.8154 80.8416 87.8645 81.6005 87.8645 81.6005 88.6234C81.7271 88.3564 81.9076 88.1187 82.1305 87.9247 82.2909 87.8167 82.4793 87.758 82.6726 87.7561 82.9781 87.7662 83.2744 87.8622 83.5279 88.0331L83.2508 88.8041C83.0612 88.6906 82.8453 88.6284 82.6244 88.6234 82.4461 88.6259 82.2731 88.6849 82.1305 88.792 81.9839 88.9086 81.8784 89.069 81.8294 89.2498 81.7307 89.5655 81.6819 89.8947 81.6848 90.2255L81.6848 92.8154Z" fill="#000000" fill-rule="nonzero" fill-opacity="1" transform="matrix(1 0 0 1.00155 0.414569 4.94644e-15)"/><path d="M87.4188 91.2254 88.2861 91.3338C88.1805 91.8112 87.9122 92.237 87.5272 92.5384 87.111 92.8269 86.6116 92.9707 86.1058 92.948 85.4638 92.9802 84.8381 92.7395 84.3831 92.2854 83.9218 91.7496 83.6959 91.0504 83.7567 90.346 83.7112 89.6413 83.94 88.9463 84.3952 88.4066 84.8256 87.9505 85.4308 87.7005 86.0576 87.7199 86.6712 87.7016 87.2633 87.9472 87.6838 88.3945 88.1423 88.9366 88.3675 89.6383 88.3102 90.346L88.3102 90.5749 84.6241 90.5749C84.6267 91.0184 84.7892 91.4462 85.0818 91.7795 85.3486 92.0664 85.7262 92.2245 86.1178 92.2131 86.3989 92.2267 86.6759 92.1416 86.9008 91.9722 87.1404 91.7771 87.32 91.5182 87.4188 91.2254ZM84.6602 89.8641 87.4308 89.8641C87.4223 89.5285 87.3085 89.204 87.1056 88.9366 86.8591 88.6158 86.474 88.4322 86.0696 88.4427 85.7091 88.4334 85.3606 88.5728 85.1059 88.8282 84.8348 89.1068 84.6761 89.4756 84.6602 89.8641Z" fill="#000000" fill-rule="nonzero" fill-opacity="1" transform="matrix(1 0 0 1.00155 0.414569 4.94644e-15)"/><path d="M92.5625 92.2011C92.3017 92.4417 91.9997 92.6334 91.6711 92.7673 91.374 92.8757 91.0596 92.9287 90.7435 92.9239 90.307 92.9424 89.8787 92.801 89.5389 92.5263 89.2532 92.2689 89.0946 91.899 89.1052 91.5145 89.0999 91.2839 89.1539 91.0557 89.2618 90.8519 89.3702 90.6622 89.5182 90.4979 89.6955 90.3701 89.8834 90.2442 90.0911 90.1506 90.3098 90.093 90.5518 90.0336 90.7972 89.9894 91.0447 89.9605 91.5561 89.9228 92.0614 89.8258 92.5504 89.6714L92.5504 89.4546C92.5743 89.1906 92.4869 88.9286 92.3095 88.7318 91.7538 88.3893 91.0595 88.3619 90.4785 88.6595 90.258 88.8473 90.1128 89.1081 90.0689 89.3943L89.2498 89.2859C89.3015 88.9765 89.4253 88.6835 89.6112 88.4306 89.8049 88.2003 90.0595 88.0291 90.346 87.9368 90.7058 87.8106 91.0851 87.7494 91.4663 87.7561 91.8173 87.7453 92.1676 87.7943 92.5022 87.9006 92.7239 87.9793 92.9225 88.1118 93.0805 88.2861 93.2087 88.4534 93.2991 88.6466 93.3455 88.8523 93.3638 89.109 93.3638 89.3665 93.3455 89.6232L93.3455 90.7435C93.3155 91.2369 93.3155 91.7318 93.3455 92.2252 93.3834 92.4329 93.4568 92.6326 93.5623 92.8154L92.7552 92.8154C92.6537 92.6243 92.5884 92.416 92.5625 92.2011ZM92.5625 90.3339C92.1174 90.4875 91.657 90.5926 91.1892 90.6471 90.9384 90.674 90.6918 90.7306 90.4544 90.8158 90.1865 90.9338 90.0122 91.1975 90.0087 91.4904 90.0019 91.7044 90.0955 91.9093 90.2617 92.0445 90.4729 92.2119 90.7396 92.2937 91.0085 92.2734 91.3079 92.2789 91.6032 92.204 91.8638 92.0565 92.1091 91.9326 92.3046 91.7286 92.4179 91.4783 92.5276 91.2156 92.577 90.9315 92.5625 90.6471Z" fill="#000000" fill-rule="nonzero" fill-opacity="1" transform="matrix(1 0 0 1.00155 0.414569 4.94644e-15)"/><path d="M97.8507 92.8154 97.8507 92.189C97.5631 92.6681 97.0356 92.9504 96.4775 92.9239 96.088 92.9259 95.7066 92.8127 95.3813 92.5986 95.0489 92.3709 94.7828 92.0592 94.6103 91.6952 94.4258 91.2698 94.3353 90.8095 94.3453 90.346 94.3404 89.8891 94.4221 89.4353 94.5862 89.0089 94.7303 88.6282 94.9919 88.3033 95.3331 88.0813 95.6578 87.8659 96.0396 87.7526 96.4293 87.7561 96.7104 87.7494 96.9886 87.8158 97.2364 87.9488 97.4616 88.0662 97.6556 88.2355 97.8025 88.4427L97.8025 86.0335 98.6337 86.0335 98.6337 92.8636ZM95.1644 90.346C95.1225 90.854 95.2683 91.3597 95.574 91.7674 95.9903 92.2864 96.7485 92.3695 97.2674 91.9532 97.336 91.8982 97.3983 91.836 97.4532 91.7674 97.7383 91.3688 97.8747 90.8829 97.8387 90.3942 97.8814 89.8655 97.741 89.3381 97.4412 88.9005 97.2112 88.6017 96.8545 88.4278 96.4775 88.4306 96.1116 88.4208 95.7646 88.5921 95.5499 88.8884 95.255 89.3142 95.1187 89.83 95.1644 90.346Z" fill="#000000" fill-rule="nonzero" fill-opacity="1" transform="matrix(1 0 0 1.00155 0.414569 4.94644e-15)"/><path d="M233.237 87.1778 288.433 87.1778" stroke="#000000" stroke-width="0.867321" stroke-linecap="butt" stroke-linejoin="miter" stroke-miterlimit="10" stroke-opacity="1" fill="none" fill-rule="nonzero" transform="matrix(1 0 0 1.00155 0.414569 4.94644e-15)"/><path d="M228.684 87.1778 234.755 84.1422 233.237 87.1778 234.755 90.2135 228.684 87.1778Z" fill="#000000" fill-rule="nonzero" fill-opacity="1" transform="matrix(1 0 0 1.00155 0.414569 4.94644e-15)"/><path d="M228.684 87.1778 234.755 84.1422 233.237 87.1778 234.755 90.2135 228.684 87.1778Z" stroke="#000000" stroke-width="0.867321" stroke-linecap="butt" stroke-linejoin="miter" stroke-miterlimit="10" stroke-opacity="1" fill="none" fill-rule="nonzero" transform="matrix(1 0 0 1.00155 0.414569 4.94644e-15)"/><path d="M242.886 75.469 285.397 75.469 285.397 86.7442 242.886 86.7442Z" fill="#FFFFFF" fill-rule="nonzero" fill-opacity="1" transform="matrix(1 0 0 1.00155 0.414569 4.94644e-15)"/><path d="M242.946 82.6606 243.778 82.5401C243.809 82.8315 243.946 83.1013 244.163 83.299 244.423 83.491 244.744 83.5848 245.066 83.564 245.369 83.587 245.671 83.5063 245.922 83.3351 246.092 83.2003 246.193 82.9975 246.199 82.781 246.201 82.5975 246.105 82.427 245.946 82.3353 245.676 82.1993 245.388 82.102 245.091 82.0462 244.656 81.9463 244.228 81.8133 243.814 81.6487 243.339 81.4436 243.049 80.959 243.091 80.4441 243.089 80.2345 243.139 80.0276 243.235 79.8418 243.337 79.6535 243.481 79.4923 243.657 79.372 243.819 79.2593 243.998 79.1738 244.187 79.119 244.423 79.0559 244.665 79.0235 244.91 79.0226 245.258 79.0177 245.605 79.0748 245.934 79.1913 246.19 79.2782 246.416 79.4371 246.584 79.649 246.741 79.8744 246.841 80.1351 246.873 80.4079L246.054 80.5284C246.031 80.2919 245.915 80.0747 245.729 79.9261 245.507 79.7707 245.24 79.6942 244.97 79.7092 244.683 79.687 244.398 79.7543 244.151 79.902 244 80.0017 243.906 80.1672 243.898 80.3477 243.899 80.4576 243.937 80.5638 244.006 80.6488 244.09 80.7479 244.198 80.8227 244.32 80.8657L245.066 81.0825C245.475 81.1892 245.877 81.3179 246.271 81.468 246.492 81.5648 246.683 81.7187 246.825 81.9137 246.963 82.1246 247.03 82.3733 247.018 82.6244 247.022 82.908 246.937 83.1856 246.777 83.4195 246.602 83.6728 246.36 83.8729 246.078 83.9977 245.746 84.1319 245.389 84.1974 245.03 84.1904 244.51 84.2203 243.994 84.0808 243.561 83.7929 243.229 83.4997 243.011 83.0985 242.946 82.6606Z" fill="#000000" fill-rule="nonzero" fill-opacity="1" transform="matrix(1 0 0 1.00155 0.414569 4.94644e-15)"/><path d="M248.054 86.0335 248.054 79.1913 248.825 79.1913 248.825 79.8418C248.981 79.611 249.187 79.4176 249.427 79.2756 249.683 79.1385 249.969 79.072 250.258 79.0828 250.656 79.076 251.046 79.1893 251.379 79.4081 251.704 79.6362 251.954 79.9545 252.101 80.3236 252.454 81.18 252.454 82.1415 252.101 82.9978 251.942 83.3842 251.664 83.7093 251.306 83.9254 250.984 84.136 250.608 84.2488 250.222 84.2506 249.96 84.2517 249.701 84.1941 249.463 84.082 249.257 83.9667 249.074 83.8158 248.921 83.6363L248.921 86.0455ZM248.813 81.6969C248.774 82.1971 248.91 82.6952 249.198 83.1063 249.607 83.6318 250.363 83.7272 250.888 83.3194 250.968 83.2576 251.04 83.1859 251.102 83.1063 251.4 82.6774 251.541 82.1577 251.499 81.6366 251.536 81.1348 251.396 80.6358 251.102 80.2272 250.88 79.9384 250.538 79.7656 250.174 79.7574 249.802 79.7678 249.455 79.9502 249.234 80.2513 248.931 80.6702 248.783 81.1808 248.813 81.6969Z" fill="#000000" fill-rule="nonzero" fill-opacity="1" transform="matrix(1 0 0 1.00155 0.414569 4.94644e-15)"/><path d="M256.751 82.5521 257.619 82.6606C257.513 83.1379 257.245 83.5638 256.86 83.8652 256.443 84.1537 255.944 84.2975 255.438 84.2747 254.796 84.307 254.171 84.0663 253.716 83.6122 253.27 83.0916 253.045 82.4171 253.089 81.733 253.041 81.0281 253.27 80.3322 253.728 79.7936 254.158 79.3375 254.764 79.0875 255.39 79.1069 256.003 79.0886 256.596 79.3343 257.016 79.7815 257.464 80.3101 257.69 80.993 257.643 81.6848L257.643 81.9137 253.957 81.9137C253.96 82.357 254.123 82.7844 254.414 83.1183 254.682 83.4052 255.059 83.5633 255.45 83.552 255.73 83.5573 256.004 83.4728 256.233 83.311 256.475 83.1126 256.655 82.8493 256.751 82.5521ZM253.993 81.1909 256.763 81.1909C256.752 80.8521 256.639 80.5244 256.438 80.2513 256.186 79.9381 255.803 79.76 255.402 79.7695 255.042 79.7602 254.693 79.8996 254.438 80.155 254.167 80.4336 254.008 80.8024 253.993 81.1909Z" fill="#000000" fill-rule="nonzero" fill-opacity="1" transform="matrix(1 0 0 1.00155 0.414569 4.94644e-15)"/><path d="M261.895 82.3353 262.726 82.4317C262.665 82.948 262.417 83.4238 262.027 83.7688 261.652 84.0964 261.165 84.2687 260.666 84.2506 260.049 84.2787 259.452 84.0368 259.028 83.5881 258.587 83.0558 258.367 82.3746 258.414 81.6848 258.402 81.2055 258.492 80.729 258.679 80.2875 258.842 79.9064 259.126 79.5893 259.486 79.384 259.854 79.1801 260.27 79.0762 260.69 79.0828 261.166 79.061 261.635 79.206 262.015 79.4924 262.379 79.7955 262.612 80.2269 262.666 80.697L261.859 80.8175C261.802 80.53 261.654 80.2682 261.437 80.0706 261.24 79.901 260.987 79.8108 260.726 79.8177 260.33 79.8075 259.949 79.9755 259.69 80.2754 259.401 80.6947 259.265 81.2009 259.305 81.7089 259.26 82.223 259.393 82.7369 259.678 83.1665 259.921 83.4667 260.293 83.6324 260.678 83.6122 260.983 83.6207 261.281 83.5132 261.509 83.311 261.748 83.0408 261.884 82.6956 261.895 82.3353Z" fill="#000000" fill-rule="nonzero" fill-opacity="1" transform="matrix(1 0 0 1.00155 0.414569 4.94644e-15)"/><path d="M267.002 84.1422 265.497 79.1913 266.352 79.1913 267.147 82.0462 267.424 83.1183 267.677 82.0944 268.472 79.1913 269.327 79.1913 270.074 82.0703 270.315 83.0099 270.604 82.0583 271.448 79.1913 272.243 79.1913 270.701 84.1422 269.833 84.1422 269.05 81.1789 268.858 80.3356 267.858 84.1422Z" fill="#000000" fill-rule="nonzero" fill-opacity="1" transform="matrix(1 0 0 1.00155 0.414569 4.94644e-15)"/><path d="M272.977 84.1422 272.977 79.1913 273.724 79.1913 273.724 79.9502C273.847 79.6774 274.033 79.438 274.266 79.2515 274.422 79.1424 274.606 79.0836 274.796 79.0828 275.105 79.0865 275.406 79.1785 275.664 79.3479L275.375 80.1309C275.19 80.0163 274.977 79.9539 274.76 79.9502 274.582 79.951 274.408 80.0103 274.266 80.1188 274.116 80.2342 274.006 80.3946 273.953 80.5766 273.854 80.8923 273.806 81.2215 273.809 81.5523L273.809 84.1422Z" fill="#000000" fill-rule="nonzero" fill-opacity="1" transform="matrix(1 0 0 1.00155 0.414569 4.94644e-15)"/><path d="M276.17 78.2999 276.17 77.3362 277.061 77.3362 277.061 78.2999ZM276.17 84.1663 276.17 79.1913 277.061 79.1913 277.061 84.1422Z" fill="#000000" fill-rule="nonzero" fill-opacity="1" transform="matrix(1 0 0 1.00155 0.414569 4.94644e-15)"/><path d="M280.109 83.3954 280.229 84.1302C280.023 84.1754 279.814 84.1996 279.603 84.2025 279.357 84.2165 279.112 84.1667 278.892 84.0579 278.735 83.9784 278.611 83.8461 278.543 83.6845 278.449 83.3642 278.411 83.0298 278.434 82.6967L278.434 79.8418 277.82 79.8418 277.82 79.1913 278.434 79.1913 278.434 77.9866 279.265 77.4807 279.265 79.2033 280.109 79.2033 280.109 79.8538 279.265 79.8538 279.265 82.7569C279.238 82.9082 279.238 83.0634 279.265 83.2147 279.29 83.2848 279.343 83.3416 279.41 83.3713 279.504 83.4016 279.605 83.4016 279.699 83.3713 279.834 83.3922 279.971 83.4003 280.109 83.3954Z" fill="#000000" fill-rule="nonzero" fill-opacity="1" transform="matrix(1 0 0 1.00155 0.414569 4.94644e-15)"/><path d="M284.289 82.5521 285.156 82.6606C285.04 83.137 284.769 83.5611 284.385 83.8652 283.402 84.4919 282.123 84.3886 281.253 83.6122 280.803 83.0935 280.574 82.4188 280.615 81.733 280.57 81.0264 280.804 80.3302 281.265 79.7936 282.173 78.8854 283.645 78.8852 284.552 79.7929 284.554 79.7931 284.554 79.7933 284.554 79.7936 284.997 80.3253 285.221 81.0059 285.18 81.6969 285.185 81.769 285.185 81.8415 285.18 81.9137L281.518 81.9137C281.527 82.356 281.689 82.7817 281.976 83.1183 282.244 83.4026 282.62 83.5602 283.012 83.552 283.296 83.559 283.574 83.4745 283.807 83.311 284.035 83.1079 284.202 82.8451 284.289 82.5521ZM281.53 81.1909 284.289 81.1909C284.275 80.8543 284.167 80.5284 283.975 80.2513 283.721 79.941 283.341 79.7636 282.94 79.7695 282.576 79.7625 282.224 79.9013 281.964 80.155 281.705 80.4377 281.564 80.8079 281.566 81.1909Z" fill="#000000" fill-rule="nonzero" fill-opacity="1" transform="matrix(1 0 0 1.00155 0.414569 4.94644e-15)"/><path d="M233.237 104.524 288.433 104.524" stroke="#000000" stroke-width="0.867321" stroke-linecap="butt" stroke-linejoin="miter" stroke-miterlimit="10" stroke-opacity="1" fill="none" fill-rule="nonzero" transform="matrix(1 0 0 1.00155 0.414569 4.94644e-15)"/><path d="M228.684 104.524 234.755 101.489 233.237 104.524 234.755 107.56 228.684 104.524Z" fill="#000000" fill-rule="nonzero" fill-opacity="1" transform="matrix(1 0 0 1.00155 0.414569 4.94644e-15)"/><path d="M228.684 104.524 234.755 101.489 233.237 104.524 234.755 107.56 228.684 104.524Z" stroke="#000000" stroke-width="0.867321" stroke-linecap="butt" stroke-linejoin="miter" stroke-miterlimit="10" stroke-opacity="1" fill="none" fill-rule="nonzero" transform="matrix(1 0 0 1.00155 0.414569 4.94644e-15)"/><path d="M243.753 92.8154 284.53 92.8154 284.53 104.091 243.753 104.091Z" fill="#FFFFFF" fill-rule="nonzero" fill-opacity="1" transform="matrix(1 0 0 1.00155 0.414569 4.94644e-15)"/><path d="M247.319 100.886C247.052 101.121 246.746 101.309 246.416 101.44 246.119 101.553 245.805 101.61 245.488 101.609 245.05 101.629 244.62 101.483 244.283 101.2 243.998 100.942 243.839 100.572 243.85 100.188 243.841 99.9552 243.899 99.7251 244.018 99.5251 244.12 99.3302 244.269 99.1644 244.452 99.0433 244.634 98.9152 244.839 98.8214 245.054 98.7662 245.3 98.7054 245.55 98.6652 245.801 98.6458 246.307 98.5951 246.807 98.4983 247.295 98.3567L247.295 98.1278C247.325 97.8631 247.237 97.5986 247.054 97.405 246.781 97.2014 246.442 97.1031 246.102 97.128 245.799 97.1055 245.497 97.1771 245.235 97.3327 245.01 97.5185 244.86 97.7796 244.814 98.0676L243.994 97.9591C244.049 97.6503 244.171 97.3577 244.356 97.1039 244.553 96.8716 244.812 96.7003 245.103 96.61 245.463 96.4838 245.842 96.4227 246.223 96.4293 246.575 96.4157 246.926 96.4688 247.259 96.5859 247.484 96.6514 247.685 96.7813 247.837 96.9593 247.97 97.1236 248.061 97.318 248.102 97.5255 248.12 97.7822 248.12 98.0397 248.102 98.2964L248.102 99.4167C248.09 99.9114 248.109 100.406 248.162 100.898 248.189 101.107 248.259 101.308 248.367 101.489L247.488 101.489C247.396 101.3 247.34 101.096 247.319 100.886ZM247.247 99.0072C246.802 99.1623 246.341 99.2673 245.874 99.3203 245.624 99.3532 245.377 99.4097 245.139 99.489 245.006 99.5477 244.893 99.644 244.814 99.7661 244.733 99.8825 244.691 100.022 244.693 100.164 244.686 100.378 244.78 100.583 244.946 100.718 245.157 100.885 245.424 100.967 245.693 100.947 245.993 100.954 246.288 100.879 246.548 100.73 246.794 100.606 246.989 100.402 247.102 100.152 247.213 99.8892 247.262 99.6048 247.247 99.3203Z" fill="#000000" fill-rule="nonzero" fill-opacity="1" transform="matrix(1 0 0 1.00155 0.414569 4.94644e-15)"/><path d="M249.355 101.489 249.355 96.5497 250.114 96.5497 250.114 97.2966C250.24 97.0297 250.421 96.7919 250.644 96.5979 250.804 96.4899 250.993 96.4312 251.186 96.4293 251.492 96.4394 251.788 96.5354 252.041 96.7063L251.752 97.4773C251.568 97.3627 251.355 97.3003 251.138 97.2966 250.959 97.2974 250.786 97.3567 250.644 97.4652 250.497 97.5843 250.388 97.7433 250.331 97.923 250.243 98.2407 250.198 98.5689 250.198 98.8987L250.198 101.489Z" fill="#000000" fill-rule="nonzero" fill-opacity="1" transform="matrix(1 0 0 1.00155 0.414569 4.94644e-15)"/><path d="M255.8 99.6817 256.619 99.7901C256.561 100.305 256.316 100.78 255.932 101.127 255.548 101.449 255.06 101.62 254.559 101.609 253.944 101.632 253.351 101.386 252.933 100.935 252.489 100.403 252.269 99.7212 252.318 99.0312 252.306 98.5519 252.397 98.0754 252.583 97.6339 252.742 97.2503 253.028 96.9321 253.39 96.7304 253.759 96.5265 254.175 96.4227 254.595 96.4293 255.066 96.4133 255.53 96.5577 255.908 96.8388 256.274 97.1414 256.512 97.5722 256.571 98.0435L255.751 98.176C255.701 97.8853 255.557 97.6189 255.342 97.4171 255.139 97.2476 254.883 97.1577 254.619 97.1641 254.226 97.1542 253.849 97.3224 253.595 97.6218 253.294 98.0407 253.153 98.5535 253.198 99.0674 253.155 99.5792 253.292 100.09 253.583 100.513 253.825 100.813 254.197 100.979 254.583 100.959 254.884 100.964 255.177 100.857 255.402 100.657 255.647 100.39 255.788 100.044 255.8 99.6817Z" fill="#000000" fill-rule="nonzero" fill-opacity="1" transform="matrix(1 0 0 1.00155 0.414569 4.94644e-15)"/><path d="M257.341 101.489 257.341 94.6585 258.185 94.6585 258.185 97.0677C258.542 96.6239 259.085 96.3705 259.654 96.3811 259.988 96.3731 260.319 96.4476 260.618 96.5979 260.871 96.7312 261.073 96.9424 261.196 97.2002 261.329 97.5539 261.387 97.9313 261.365 98.3085L261.365 101.44 260.534 101.44 260.534 98.3085C260.561 97.9793 260.461 97.6518 260.257 97.393 260.053 97.1904 259.772 97.0851 259.486 97.1039 259.24 97.1082 259 97.1746 258.787 97.2966 258.576 97.4172 258.411 97.6033 258.317 97.8266 258.212 98.1199 258.168 98.4312 258.185 98.7421L258.185 101.44Z" fill="#000000" fill-rule="nonzero" fill-opacity="1" transform="matrix(1 0 0 1.00155 0.414569 4.94644e-15)"/><path d="M266.219 101.489 264.714 96.5497 265.581 96.5497 266.364 99.4047 266.653 100.465C266.653 100.405 266.75 100.067 266.918 99.4408L267.701 96.5497 268.556 96.5497 269.303 99.4167 269.544 100.356 269.833 99.4047 270.677 96.5497 271.496 96.5497 269.954 101.489 269.074 101.489 268.291 98.5253 268.099 97.6821 267.099 101.489Z" fill="#000000" fill-rule="nonzero" fill-opacity="1" transform="matrix(1 0 0 1.00155 0.414569 4.94644e-15)"/><path d="M272.243 101.489 272.243 96.5497 272.989 96.5497 272.989 97.2966C273.116 97.0259 273.3 96.7872 273.531 96.5979 273.687 96.4888 273.871 96.43 274.062 96.4293 274.371 96.4378 274.672 96.5338 274.929 96.7063L274.64 97.4773C274.455 97.3627 274.242 97.3003 274.025 97.2966 273.847 97.2974 273.674 97.3567 273.531 97.4652 273.381 97.5806 273.271 97.741 273.218 97.923 273.12 98.2387 273.071 98.5679 273.074 98.8987L273.074 101.489Z" fill="#000000" fill-rule="nonzero" fill-opacity="1" transform="matrix(1 0 0 1.00155 0.414569 4.94644e-15)"/><path d="M275.375 95.6222 275.375 94.6585 276.206 94.6585 276.206 95.6222ZM275.375 101.489 275.375 96.5497 276.206 96.5497 276.206 101.489Z" fill="#000000" fill-rule="nonzero" fill-opacity="1" transform="matrix(1 0 0 1.00155 0.414569 4.94644e-15)"/><path d="M279.314 100.742 279.434 101.477C279.229 101.531 279.02 101.559 278.808 101.561 278.562 101.575 278.317 101.525 278.097 101.416 277.939 101.332 277.816 101.196 277.748 101.031 277.654 100.711 277.616 100.376 277.639 100.043L277.639 97.2002 277.061 97.2002 277.061 96.5497 277.675 96.5497 277.675 95.3451 278.507 94.8392 278.507 96.5738 279.35 96.5738 279.35 97.2243 278.507 97.2243 278.507 100.115C278.478 100.267 278.478 100.422 278.507 100.573 278.533 100.645 278.585 100.704 278.651 100.742 278.746 100.766 278.845 100.766 278.94 100.742Z" fill="#000000" fill-rule="nonzero" fill-opacity="1" transform="matrix(1 0 0 1.00155 0.414569 4.94644e-15)"/><path d="M283.53 99.8986 284.397 100.007C284.285 100.485 284.013 100.91 283.626 101.212 282.648 101.856 281.357 101.751 280.494 100.959 280.044 100.44 279.815 99.7652 279.856 99.0794 279.814 98.3732 280.046 97.678 280.506 97.14 281.414 96.2318 282.887 96.2316 283.794 97.1393 283.795 97.1395 283.795 97.1398 283.795 97.14 284.236 97.6729 284.46 98.3526 284.421 99.0433 284.426 99.1195 284.426 99.1959 284.421 99.2722L280.675 99.2722C280.683 99.7147 280.845 100.141 281.133 100.477 281.401 100.761 281.777 100.919 282.169 100.91 282.454 100.927 282.736 100.842 282.964 100.67 283.225 100.475 283.423 100.206 283.53 99.8986ZM280.771 98.5374 283.53 98.5374C283.519 98.204 283.411 97.8812 283.217 97.6098 282.967 97.292 282.584 97.1093 282.181 97.1159 281.814 97.1078 281.461 97.2518 281.205 97.5134 280.933 97.7856 280.777 98.1527 280.771 98.5374Z" fill="#000000" fill-rule="nonzero" fill-opacity="1" transform="matrix(1 0 0 1.00155 0.414569 4.94644e-15)"/><path d="M147.902 31.9825 147.902 69.8314" stroke="#000000" stroke-width="0.867321" stroke-linecap="butt" stroke-linejoin="miter" stroke-miterlimit="10" stroke-opacity="1" fill="none" fill-rule="nonzero" transform="matrix(1 0 0 1.00155 0.414569 4.94644e-15)"/><path d="M147.902 27.429 150.938 33.5003 147.902 31.9825 144.867 33.5003 147.902 27.429Z" fill="#000000" fill-rule="nonzero" fill-opacity="1" transform="matrix(1 0 0 1.00155 0.414569 4.94644e-15)"/><path d="M147.902 27.429 150.938 33.5003 147.902 31.9825 144.867 33.5003 147.902 27.429Z" stroke="#000000" stroke-width="0.867321" stroke-linecap="butt" stroke-linejoin="miter" stroke-miterlimit="10" stroke-opacity="1" fill="none" fill-rule="nonzero" transform="matrix(1 0 0 1.00155 0.414569 4.94644e-15)"/><path d="M132.724 39.9088 164.815 39.9088 164.815 63.3265 132.724 63.3265Z" fill="#FFFFFF" fill-rule="nonzero" fill-opacity="1" transform="matrix(1 0 0 1.00155 0.414569 4.94644e-15)"/><path d="M139.844 50.4733 139.844 43.6311 140.602 43.6311 140.602 44.2695C140.764 44.0384 140.973 43.8453 141.217 43.7034 141.471 43.5775 141.753 43.5154 142.036 43.5227 142.433 43.5158 142.824 43.6292 143.156 43.8479 143.487 44.0727 143.743 44.3916 143.891 44.7634 144.058 45.1762 144.14 45.6189 144.132 46.0644 144.14 46.5356 144.05 47.0035 143.867 47.4377 143.701 47.8198 143.424 48.143 143.072 48.3652 142.745 48.5761 142.365 48.689 141.976 48.6905 141.715 48.6953 141.458 48.633 141.229 48.5098 141.014 48.4016 140.826 48.2498 140.675 48.0641L140.675 50.4733ZM140.602 46.1367C140.568 46.6366 140.702 47.1337 140.988 47.5461 141.4 48.0683 142.158 48.1575 142.679 47.7454 142.754 47.687 142.821 47.6202 142.879 47.5461 143.178 47.1218 143.319 46.6059 143.277 46.0885 143.319 45.5841 143.183 45.081 142.891 44.6671 142.67 44.3782 142.327 44.2054 141.964 44.1973 141.584 44.2066 141.232 44.3941 141.012 44.7032 140.714 45.1194 140.57 45.6259 140.602 46.1367Z" fill="#000000" fill-rule="nonzero" fill-opacity="1" transform="matrix(1 0 0 1.00155 0.414569 4.94644e-15)"/><path d="M145.144 48.582 145.144 43.6311 145.891 43.6311 145.891 44.3779C146.021 44.1096 146.205 43.8715 146.433 43.6793 146.589 43.5737 146.774 43.5191 146.963 43.5227 147.271 43.5263 147.572 43.6183 147.83 43.7877L147.541 44.5707C147.357 44.4561 147.143 44.3937 146.927 44.39 146.75 44.3865 146.576 44.4415 146.433 44.5466 146.282 44.662 146.173 44.8223 146.12 45.0043 146.02 45.3241 145.971 45.6574 145.975 45.9921L145.975 48.582Z" fill="#000000" fill-rule="nonzero" fill-opacity="1" transform="matrix(1 0 0 1.00155 0.414569 4.94644e-15)"/><path d="M151.709 46.9799 152.576 47.0883C152.474 47.5669 152.205 47.9936 151.817 48.2929 150.839 48.9369 149.548 48.8326 148.685 48.04 148.237 47.5249 148.007 46.8548 148.047 46.1728 148.005 45.4686 148.234 44.775 148.685 44.2334 149.119 43.7741 149.729 43.5239 150.36 43.5468 150.972 43.5206 151.563 43.7678 151.974 44.2213 152.425 44.7451 152.653 45.4232 152.612 46.1126 152.612 46.1728 152.612 46.2451 152.612 46.3415L148.926 46.3415C148.932 46.7844 149.094 47.2111 149.384 47.5461 149.653 47.8304 150.029 47.9879 150.42 47.9797 150.701 47.9867 150.975 47.9022 151.203 47.7388 151.442 47.5402 151.617 47.2766 151.709 46.9799ZM148.962 45.6307 151.781 45.6307C151.773 45.2933 151.663 44.9663 151.468 44.6911 151.217 44.3764 150.834 44.1979 150.432 44.2093 150.043 44.1721 149.658 44.3037 149.372 44.5707 149.101 44.8563 148.954 45.2372 148.962 45.6307Z" fill="#000000" fill-rule="nonzero" fill-opacity="1" transform="matrix(1 0 0 1.00155 0.414569 4.94644e-15)"/><path d="M153.48 48.9916 154.299 49.1121C154.304 49.3257 154.406 49.5253 154.576 49.6542 154.828 49.8246 155.128 49.909 155.431 49.8951 155.75 49.9118 156.066 49.8275 156.335 49.6542 156.543 49.4897 156.691 49.261 156.756 49.0037 156.82 48.65 156.839 48.29 156.817 47.9316 156.488 48.3476 155.985 48.5878 155.455 48.582 154.835 48.6114 154.239 48.3318 153.865 47.8352 153.492 47.326 153.297 46.7077 153.311 46.0765 153.307 45.6263 153.393 45.18 153.564 44.7634 153.721 44.393 153.98 44.0751 154.311 43.8479 154.669 43.6153 155.09 43.5015 155.516 43.5227 156.081 43.5151 156.617 43.774 156.961 44.2213L156.961 43.6311 157.732 43.6311 157.732 47.9075C157.768 48.4634 157.69 49.0209 157.503 49.5457 157.339 49.8703 157.078 50.1355 156.756 50.3046 156.338 50.5252 155.867 50.6252 155.395 50.5938 154.89 50.6183 154.392 50.4788 153.974 50.1962 153.607 49.9104 153.42 49.4523 153.48 48.9916ZM154.19 46.0162C154.143 46.521 154.281 47.0256 154.576 47.4377 154.811 47.7274 155.166 47.892 155.54 47.8834 155.917 47.8958 156.278 47.7309 156.515 47.4377 156.803 47.0312 156.939 46.5368 156.901 46.0403 156.936 45.5499 156.795 45.0631 156.503 44.6671 156.26 44.3793 155.905 44.2121 155.528 44.2093 155.157 44.2073 154.806 44.3761 154.576 44.6671 154.288 45.0549 154.151 45.5346 154.19 46.0162Z" fill="#000000" fill-rule="nonzero" fill-opacity="1" transform="matrix(1 0 0 1.00155 0.414569 4.94644e-15)"/><path d="M133.712 60.7245 133.712 55.7736 134.471 55.7736 134.471 56.5204C134.593 56.254 134.775 56.0191 135.001 55.8338 135.158 55.7176 135.348 55.6581 135.543 55.6652 135.848 55.6711 136.144 55.763 136.398 55.9302L136.109 56.7132C135.925 56.5986 135.712 56.5362 135.495 56.5325 135.318 56.529 135.144 56.5841 135.001 56.6891 134.854 56.8071 134.744 56.9665 134.688 57.1468 134.593 57.4673 134.548 57.8005 134.555 58.1346L134.555 60.7245Z" fill="#000000" fill-rule="nonzero" fill-opacity="1" transform="matrix(1 0 0 1.00155 0.414569 4.94644e-15)"/><path d="M140.325 59.1224 141.193 59.2308C141.079 59.7052 140.813 60.1289 140.434 60.4354 140.019 60.7282 139.519 60.8763 139.012 60.8571 138.388 60.8901 137.778 60.6633 137.326 60.2307 136.875 59.7118 136.646 59.0372 136.687 58.3515 136.643 57.6448 136.877 56.9487 137.338 56.412 137.766 55.952 138.373 55.7012 139 55.7254 139.615 55.7007 140.21 55.9473 140.627 56.4 141.07 56.9317 141.294 57.6123 141.253 58.3033L141.253 58.5201 137.555 58.5201C137.572 58.961 137.732 59.3843 138.013 59.7247 138.281 60.009 138.657 60.1666 139.048 60.1584 139.333 60.1654 139.611 60.0809 139.844 59.9175 140.076 59.7028 140.242 59.4273 140.325 59.1224ZM137.567 57.8214 140.325 57.8214C140.323 57.4831 140.213 57.1541 140.012 56.8818 139.762 56.5671 139.379 56.3885 138.976 56.4 138.612 56.393 138.261 56.5318 138 56.7855 137.727 57.0612 137.572 57.4328 137.567 57.8214Z" fill="#000000" fill-rule="nonzero" fill-opacity="1" transform="matrix(1 0 0 1.00155 0.414569 4.94644e-15)"/><path d="M142.217 60.7245 142.217 53.8944 143.06 53.8944 143.06 60.7245Z" fill="#000000" fill-rule="nonzero" fill-opacity="1" transform="matrix(1 0 0 1.00155 0.414569 4.94644e-15)"/><path d="M147.746 59.1224 148.613 59.2308C148.511 59.7094 148.242 60.1361 147.854 60.4354 147.44 60.7282 146.94 60.8763 146.433 60.8571 145.794 60.892 145.17 60.6507 144.722 60.1945 144.267 59.6785 144.037 59.0018 144.084 58.3153 144.042 57.6111 144.27 56.9175 144.722 56.3759 145.156 55.9166 145.765 55.6664 146.397 55.6893 147.007 55.6648 147.599 55.9118 148.011 56.3638 148.459 56.8924 148.684 57.5753 148.637 58.2671L148.637 58.484 144.951 58.484C144.957 58.9269 145.119 59.3536 145.409 59.6886 145.677 59.9729 146.053 60.1304 146.445 60.1222 146.724 60.1275 146.999 60.0431 147.228 59.8813 147.471 59.6844 147.651 59.4206 147.746 59.1224ZM144.999 57.8214 147.758 57.8214C147.749 57.484 147.64 57.157 147.445 56.8818 147.189 56.5667 146.801 56.3885 146.397 56.4 146.036 56.3935 145.69 56.5325 145.433 56.7855 145.159 57.0612 145.004 57.4328 144.999 57.8214Z" fill="#000000" fill-rule="nonzero" fill-opacity="1" transform="matrix(1 0 0 1.00155 0.414569 4.94644e-15)"/><path d="M152.902 60.1102C152.632 60.3445 152.327 60.5355 151.998 60.6764 151.701 60.7848 151.386 60.8378 151.071 60.833 150.634 60.8493 150.207 60.7082 149.866 60.4354 149.578 60.1743 149.42 59.7999 149.432 59.4115 149.412 58.9328 149.639 58.4772 150.035 58.2069 150.22 58.0837 150.422 57.9902 150.637 57.9298 150.884 57.875 151.133 57.8348 151.384 57.8094 151.89 57.7587 152.39 57.6619 152.877 57.5203L152.877 57.3034C152.908 57.0388 152.82 56.7743 152.637 56.5807 152.367 56.3677 152.027 56.2645 151.685 56.2916 151.38 56.266 151.075 56.3423 150.818 56.5084 150.595 56.6913 150.445 56.9476 150.396 57.2312L149.577 57.1227C149.63 56.815 149.757 56.5253 149.95 56.2795 150.142 56.0447 150.397 55.8692 150.685 55.7736 151.046 55.6575 151.425 55.6005 151.805 55.6049 152.156 55.5942 152.506 55.6431 152.841 55.7495 153.063 55.8214 153.263 55.9501 153.42 56.1229 153.551 56.2931 153.641 56.4908 153.685 56.7011 153.703 56.9578 153.703 57.2154 153.685 57.4721L153.685 58.5924C153.672 59.083 153.693 59.574 153.745 60.062 153.776 60.2734 153.846 60.4775 153.95 60.6643L153.07 60.6643C152.986 60.4892 152.929 60.3023 152.902 60.1102ZM152.829 58.243C152.385 58.3982 151.923 58.5032 151.456 58.5562 151.205 58.5831 150.958 58.6397 150.721 58.7249 150.589 58.7791 150.475 58.8714 150.396 58.9899 150.313 59.1101 150.271 59.2536 150.275 59.3995 150.272 59.6128 150.366 59.8163 150.528 59.9536 150.744 60.1118 151.009 60.1886 151.275 60.1704 151.578 60.1799 151.876 60.1093 152.143 59.9656 152.379 59.83 152.571 59.6293 152.697 59.3874 152.797 59.118 152.841 58.8313 152.829 58.5442Z" fill="#000000" fill-rule="nonzero" fill-opacity="1" transform="matrix(1 0 0 1.00155 0.414569 4.94644e-15)"/><path d="M154.636 59.2429 155.467 59.1104C155.496 59.4061 155.634 59.6806 155.853 59.8813 156.112 60.0671 156.426 60.1604 156.744 60.1463 157.053 60.1677 157.359 60.0826 157.612 59.9054 157.784 59.7728 157.886 59.5686 157.889 59.3513 157.889 59.1685 157.792 58.9991 157.636 58.9056 157.365 58.7756 157.077 58.6825 156.78 58.6285 156.343 58.5319 155.915 58.3947 155.503 58.219 155.279 58.121 155.09 57.9572 154.961 57.7491 154.839 57.5505 154.776 57.3203 154.781 57.0866 154.781 56.8733 154.83 56.663 154.925 56.4723 155.033 56.2887 155.176 56.1288 155.347 56.0025 155.508 55.892 155.688 55.8106 155.877 55.7615 156.112 55.693 156.355 55.6605 156.6 55.6652 156.949 55.6543 157.296 55.7115 157.624 55.8338 157.879 55.9168 158.104 56.0716 158.274 56.2795 158.428 56.5108 158.527 56.7746 158.563 57.0505L157.744 57.1589C157.719 56.9268 157.601 56.7144 157.419 56.5686 157.197 56.4132 156.93 56.3367 156.66 56.3518 156.373 56.3235 156.085 56.3913 155.841 56.5445 155.687 56.6414 155.593 56.8087 155.588 56.9902 155.588 57.0966 155.626 57.1995 155.696 57.2794 155.775 57.3857 155.884 57.4656 156.009 57.5082L156.756 57.7251C157.165 57.8318 157.567 57.9604 157.961 58.1105 158.185 58.203 158.377 58.3577 158.515 58.5562 158.652 58.7672 158.72 59.0158 158.708 59.267 158.71 59.5503 158.626 59.8276 158.467 60.062 158.29 60.3153 158.043 60.5121 157.756 60.6282 157.428 60.7676 157.076 60.8373 156.72 60.833 156.2 60.8691 155.682 60.7291 155.251 60.4354 154.906 60.1271 154.687 59.7024 154.636 59.2429Z" fill="#000000" fill-rule="nonzero" fill-opacity="1" transform="matrix(1 0 0 1.00155 0.414569 4.94644e-15)"/><path d="M163.129 59.1224 163.996 59.2308C163.894 59.7094 163.625 60.1361 163.237 60.4354 162.26 61.0782 160.972 60.9792 160.105 60.1945 159.655 59.6757 159.426 59.0011 159.467 58.3153 159.425 57.6111 159.653 56.9175 160.105 56.3759 160.539 55.9166 161.148 55.6664 161.78 55.6893 162.391 55.6631 162.983 55.9103 163.394 56.3638 163.845 56.8913 164.074 57.5739 164.032 58.2671 164.032 58.2671 164.032 58.3876 164.032 58.484L160.334 58.484C160.34 58.9269 160.501 59.3536 160.792 59.6886 161.06 59.9729 161.436 60.1304 161.828 60.1222 162.108 60.1292 162.383 60.0447 162.611 59.8813 162.854 59.6844 163.034 59.4206 163.129 59.1224ZM160.382 57.8214 163.141 57.8214C163.132 57.484 163.023 57.157 162.828 56.8818 162.577 56.5671 162.194 56.3885 161.792 56.4 161.428 56.393 161.076 56.5318 160.816 56.7855 160.542 57.0612 160.387 57.4328 160.382 57.8214Z" fill="#000000" fill-rule="nonzero" fill-opacity="1" transform="matrix(1 0 0 1.00155 0.414569 4.94644e-15)"/><path d="M191.268 26.4533 191.268 64.3022" stroke="#000000" stroke-width="0.867321" stroke-linecap="butt" stroke-linejoin="miter" stroke-miterlimit="10" stroke-opacity="1" fill="none" fill-rule="nonzero" transform="matrix(1 0 0 1.00155 0.414569 4.94644e-15)"/><path d="M191.268 68.8557 188.233 62.7844 191.268 64.3022 194.304 62.7844 191.268 68.8557Z" fill="#000000" fill-rule="nonzero" fill-opacity="1" transform="matrix(1 0 0 1.00155 0.414569 4.94644e-15)"/><path d="M191.268 68.8557 188.233 62.7844 191.268 64.3022 194.304 62.7844 191.268 68.8557Z" stroke="#000000" stroke-width="0.867321" stroke-linecap="butt" stroke-linejoin="miter" stroke-miterlimit="10" stroke-opacity="1" fill="none" fill-rule="nonzero" transform="matrix(1 0 0 1.00155 0.414569 4.94644e-15)"/><path d="M172.621 33.8255 211.651 33.8255 211.651 57.2432 172.621 57.2432Z" fill="#FFFFFF" fill-rule="nonzero" fill-opacity="1" transform="matrix(1 0 0 1.00155 0.414569 4.94644e-15)"/><path d="M173.067 41.0291 173.898 40.8966C173.927 41.1923 174.064 41.4669 174.283 41.6676 174.541 41.8551 174.856 41.9486 175.175 41.9326 175.48 41.9562 175.783 41.8708 176.03 41.6917 176.21 41.5641 176.317 41.358 176.319 41.1375 176.322 40.9541 176.225 40.7835 176.066 40.6918 175.793 40.5638 175.506 40.4668 175.211 40.4027 174.774 40.3106 174.346 40.1775 173.934 40.0052 173.71 39.9073 173.521 39.7434 173.392 39.5354 173.273 39.3352 173.21 39.1061 173.211 38.8729 173.211 38.6595 173.261 38.4492 173.356 38.2585 173.456 38.0734 173.596 37.9128 173.765 37.7887 173.929 37.6758 174.114 37.5942 174.308 37.5478 174.541 37.4772 174.786 37.4447 175.03 37.4514 175.378 37.4438 175.724 37.4968 176.054 37.608 176.308 37.6996 176.532 37.8576 176.705 38.0658 176.854 38.2997 176.953 38.5624 176.994 38.8367L176.175 38.9451C176.147 38.7139 176.03 38.5023 175.849 38.3549 175.628 38.1995 175.36 38.1231 175.091 38.1381 174.8 38.1115 174.509 38.1791 174.259 38.3308 174.114 38.4332 174.024 38.5983 174.018 38.7765 174.02 38.8806 174.053 38.9818 174.115 39.0656 174.2 39.1699 174.312 39.2489 174.44 39.2945L175.187 39.4993C175.595 39.6085 175.998 39.7413 176.391 39.8968 176.611 39.985 176.8 40.1358 176.934 40.3304 177.077 40.5434 177.149 40.7966 177.138 41.0532 177.137 41.3322 177.053 41.6046 176.897 41.8362 176.724 42.0961 176.476 42.2975 176.187 42.4144 175.859 42.5538 175.506 42.6235 175.151 42.6192 174.63 42.6573 174.111 42.5172 173.681 42.2217 173.341 41.9099 173.123 41.4871 173.067 41.0291Z" fill="#000000" fill-rule="nonzero" fill-opacity="1" transform="matrix(1 0 0 1.00155 0.414569 4.94644e-15)"/><path d="M178.174 42.5108 178.174 37.5598 178.933 37.5598 178.933 38.2585C179.273 37.7286 179.87 37.4208 180.499 37.4514 180.78 37.4452 181.059 37.4985 181.318 37.608 181.545 37.6889 181.742 37.8357 181.885 38.0296 182.016 38.2133 182.106 38.4227 182.15 38.644 182.169 38.9167 182.169 39.1904 182.15 39.4631L182.15 42.5108 181.306 42.5108 181.306 39.4993C181.316 39.2387 181.283 38.9784 181.21 38.7283 181.139 38.5586 181.017 38.4154 180.861 38.3187 180.684 38.2229 180.485 38.1732 180.282 38.1742 179.941 38.1642 179.61 38.2849 179.355 38.5115 179.077 38.8613 178.95 39.3085 179.006 39.7522L179.006 42.4626Z" fill="#000000" fill-rule="nonzero" fill-opacity="1" transform="matrix(1 0 0 1.00155 0.414569 4.94644e-15)"/><path d="M186.715 41.8964C186.454 42.1335 186.151 42.3213 185.824 42.4506 185.527 42.5631 185.213 42.6202 184.896 42.6192 184.46 42.6378 184.031 42.4963 183.691 42.2217 183.404 41.9605 183.246 41.5861 183.258 41.1978 183.249 40.9653 183.307 40.7352 183.426 40.5352 183.531 40.3429 183.679 40.1778 183.86 40.0534 184.042 39.9253 184.247 39.8315 184.462 39.7763 184.705 39.7224 184.95 39.6821 185.197 39.6559 185.707 39.6061 186.212 39.5094 186.703 39.3668L186.703 39.1499C186.732 38.8854 186.644 38.6216 186.462 38.4272 186.191 38.2164 185.853 38.1134 185.51 38.1381 185.207 38.1156 184.904 38.1872 184.643 38.3428 184.418 38.5286 184.268 38.7897 184.221 39.0776L183.402 38.9692C183.457 38.6604 183.579 38.3678 183.764 38.114 183.964 37.8854 184.221 37.715 184.511 37.6201 184.871 37.498 185.25 37.4409 185.631 37.4514 185.981 37.4407 186.332 37.4896 186.667 37.596 186.887 37.6708 187.086 37.7991 187.245 37.9694 187.372 38.1381 187.462 38.3308 187.51 38.5356 187.528 38.7963 187.528 39.0579 187.51 39.3186L187.51 40.4268C187.498 40.9216 187.517 41.4164 187.57 41.9085 187.598 42.1207 187.668 42.3255 187.775 42.5108L186.896 42.5108C186.807 42.3155 186.746 42.1087 186.715 41.8964ZM186.655 40.0173C186.21 40.1759 185.75 40.2849 185.282 40.3425 185.03 40.3635 184.783 40.4202 184.547 40.5111 184.412 40.5611 184.297 40.6544 184.221 40.7761 184.141 40.8926 184.099 41.0318 184.101 41.1737 184.097 41.3905 184.19 41.5977 184.354 41.7398 184.57 41.898 184.835 41.9749 185.101 41.9567 185.398 41.962 185.694 41.8915 185.956 41.7519 186.198 41.6236 186.392 41.4209 186.51 41.1737 186.621 40.907 186.67 40.6188 186.655 40.3304Z" fill="#000000" fill-rule="nonzero" fill-opacity="1" transform="matrix(1 0 0 1.00155 0.414569 4.94644e-15)"/><path d="M188.787 44.402 188.787 37.5598 189.546 37.5598 189.546 38.1983C189.707 37.9671 189.917 37.774 190.16 37.6321 190.414 37.5062 190.696 37.4442 190.979 37.4514 191.378 37.4407 191.77 37.5544 192.1 37.7767 192.431 38.0014 192.686 38.3203 192.834 38.6922 193.006 39.1043 193.092 39.5468 193.087 39.9932 193.092 40.4652 192.998 40.9331 192.81 41.3664 192.644 41.7485 192.367 42.0717 192.015 42.294 191.689 42.5049 191.308 42.6178 190.919 42.6192 190.659 42.624 190.401 42.5619 190.172 42.4385 189.961 42.3302 189.777 42.1783 189.63 41.9928L189.63 44.402ZM189.546 40.0534C189.51 40.5572 189.646 41.0584 189.931 41.4748 190.343 41.997 191.101 42.0863 191.624 41.6742 191.697 41.6158 191.765 41.5489 191.823 41.4748 192.121 41.0506 192.262 40.5346 192.22 40.0173 192.262 39.5129 192.126 39.0097 191.835 38.5958 191.613 38.3069 191.271 38.1342 190.907 38.126 190.528 38.1354 190.176 38.3228 189.955 38.6319 189.659 39.0444 189.515 39.5465 189.546 40.0534Z" fill="#000000" fill-rule="nonzero" fill-opacity="1" transform="matrix(1 0 0 1.00155 0.414569 4.94644e-15)"/><path d="M193.762 41.0291 194.581 40.8966C194.614 41.194 194.755 41.4688 194.979 41.6676 195.236 41.856 195.551 41.9496 195.87 41.9326 196.175 41.9562 196.478 41.8708 196.725 41.6917 196.898 41.559 197 41.3548 197.002 41.1375 197.005 40.9572 196.914 40.7883 196.762 40.6918 196.487 40.5658 196.2 40.469 195.906 40.4027 195.465 40.31 195.034 40.177 194.617 40.0052 194.169 39.8096 193.884 39.3621 193.895 38.8729 193.891 38.6577 193.945 38.4456 194.051 38.2585 194.147 38.0707 194.287 37.9094 194.461 37.7887 194.622 37.6781 194.802 37.5966 194.991 37.5478 195.226 37.4791 195.469 37.4467 195.713 37.4514 196.062 37.4418 196.409 37.4949 196.737 37.608 196.995 37.6931 197.22 37.8523 197.388 38.0658 197.547 38.2944 197.647 38.5595 197.677 38.8367L196.858 38.9451C196.835 38.7122 196.717 38.4988 196.533 38.3549 196.311 38.1995 196.044 38.1231 195.774 38.1381 195.487 38.1134 195.2 38.1808 194.955 38.3308 194.804 38.4288 194.714 38.5966 194.714 38.7765 194.709 38.8815 194.743 38.9847 194.81 39.0656 194.896 39.1699 195.008 39.2489 195.135 39.2945L195.87 39.4993C196.28 39.6067 196.682 39.7395 197.075 39.8968 197.299 39.9829 197.492 40.134 197.629 40.3304 197.772 40.5434 197.844 40.7966 197.834 41.0532 197.832 41.3343 197.744 41.6079 197.581 41.8362 197.412 42.0957 197.169 42.2975 196.882 42.4144 196.549 42.5527 196.194 42.6225 195.834 42.6192 195.314 42.6491 194.798 42.5096 194.364 42.2217 194.023 41.9121 193.809 41.4874 193.762 41.0291Z" fill="#000000" fill-rule="nonzero" fill-opacity="1" transform="matrix(1 0 0 1.00155 0.414569 4.94644e-15)"/><path d="M198.87 42.5108 198.87 35.6806 199.701 35.6806 199.701 38.0899C200.066 37.6502 200.611 37.4017 201.182 37.4153 201.511 37.402 201.839 37.4725 202.134 37.6201 202.392 37.7497 202.6 37.9617 202.724 38.2224 202.851 38.5775 202.909 38.9538 202.893 39.3306L202.893 42.4747 202.05 42.4747 202.05 39.3668C202.08 39.0391 201.986 38.7119 201.785 38.4512 201.58 38.25 201.3 38.1449 201.014 38.1621 200.767 38.1632 200.523 38.2342 200.315 38.3669 200.099 38.4756 199.932 38.6601 199.845 38.8849 199.738 39.1779 199.689 39.4888 199.701 39.8004L199.701 42.5108Z" fill="#000000" fill-rule="nonzero" fill-opacity="1" transform="matrix(1 0 0 1.00155 0.414569 4.94644e-15)"/><path d="M203.857 40.0293C203.794 39.2692 204.077 38.5211 204.628 37.9935 205.061 37.6274 205.614 37.4343 206.182 37.4514 206.804 37.4288 207.408 37.6693 207.844 38.114 208.299 38.6164 208.533 39.2803 208.494 39.957 208.52 40.4748 208.42 40.9911 208.205 41.4628 208.016 41.8219 207.728 42.1189 207.374 42.3181 207.004 42.5179 206.59 42.6215 206.17 42.6192 205.54 42.6413 204.929 42.4013 204.483 41.9567 204.031 41.42 203.807 40.7287 203.857 40.0293ZM204.724 40.0293C204.682 40.5373 204.828 41.043 205.134 41.4507 205.39 41.7644 205.777 41.9422 206.182 41.9326 206.582 41.9333 206.961 41.7568 207.218 41.4507 207.525 41.0345 207.67 40.5208 207.627 40.0052 207.663 39.5053 207.517 39.0092 207.218 38.6078 206.713 38.0324 205.838 37.9746 205.262 38.4787 205.217 38.5188 205.173 38.5621 205.134 38.6078 204.85 39.0248 204.728 39.529 204.784 40.0293Z" fill="#000000" fill-rule="nonzero" fill-opacity="1" transform="matrix(1 0 0 1.00155 0.414569 4.94644e-15)"/><path d="M211.313 41.7519 211.434 42.4987C211.224 42.5439 211.01 42.5681 210.795 42.571 210.549 42.5834 210.305 42.5338 210.085 42.4265 209.93 42.3387 209.807 42.2036 209.735 42.041 209.641 41.7208 209.604 41.3863 209.627 41.0532L209.627 38.2103 209.012 38.2103 209.012 37.5598 209.603 37.5598 209.603 36.3552 210.446 35.8493 210.446 37.5839 211.289 37.5839 211.289 38.2344 210.446 38.2344 210.446 41.1255C210.425 41.2774 210.425 41.4313 210.446 41.5832 210.477 41.652 210.528 41.7106 210.59 41.7519 210.686 41.7736 210.784 41.7736 210.88 41.7519Z" fill="#000000" fill-rule="nonzero" fill-opacity="1" transform="matrix(1 0 0 1.00155 0.414569 4.94644e-15)"/><path d="M189.63 52.8343 190.449 52.9427C190.392 53.4574 190.147 53.9329 189.763 54.2799 189.381 54.6062 188.892 54.7781 188.389 54.7617 187.776 54.7895 187.182 54.5474 186.763 54.0992 186.325 53.5656 186.104 52.8853 186.149 52.1959 186.138 51.7127 186.228 51.2326 186.414 50.7865 186.57 50.4043 186.856 50.089 187.221 49.8951 187.588 49.6874 188.004 49.5832 188.426 49.5939 188.898 49.5719 189.363 49.7169 189.739 50.0035 190.11 50.302 190.348 50.7349 190.401 51.2081L189.582 51.3286C189.516 51.0393 189.354 50.7806 189.124 50.5938 188.922 50.4243 188.665 50.3344 188.401 50.3408 188.005 50.3155 187.622 50.4867 187.378 50.7985 187.078 51.2136 186.937 51.7221 186.98 52.232 186.938 52.7439 187.074 53.2545 187.366 53.6776 187.605 53.9822 187.977 54.1527 188.365 54.1353 188.666 54.1409 188.959 54.0334 189.184 53.8342 189.45 53.566 189.607 53.2107 189.63 52.8343Z" fill="#000000" fill-rule="nonzero" fill-opacity="1" transform="matrix(1 0 0 1.00155 0.414569 4.94644e-15)"/><path d="M193.003 53.8944 193.124 54.6413C192.914 54.6864 192.7 54.7106 192.485 54.7135 192.243 54.7277 192.002 54.6779 191.786 54.569 191.629 54.4863 191.502 54.3554 191.425 54.1955 191.337 53.8701 191.305 53.532 191.329 53.1957L191.329 50.3528 190.714 50.3528 190.714 49.7023 191.329 49.7023 191.329 48.4977 192.16 47.9918 192.16 49.7264 193.003 49.7264 193.003 50.3769 192.16 50.3769 192.16 53.268C192.132 53.4233 192.132 53.5825 192.16 53.7378 192.186 53.8025 192.233 53.8572 192.292 53.8944 192.383 53.9363 192.482 53.957 192.581 53.9546Z" fill="#000000" fill-rule="nonzero" fill-opacity="1" transform="matrix(1 0 0 1.00155 0.414569 4.94644e-15)"/><path d="M193.81 54.6533 193.81 49.7023 194.569 49.7023 194.569 50.4492C194.696 50.1855 194.876 49.9515 195.099 49.7626 195.257 49.6496 195.447 49.5904 195.641 49.5939 195.946 49.5998 196.242 49.6917 196.496 49.8589L196.207 50.6419C196.023 50.5274 195.81 50.465 195.593 50.4612 195.435 50.4608 195.28 50.5068 195.147 50.5938 195.003 50.7151 194.896 50.8733 194.834 51.0515 194.745 51.373 194.7 51.7055 194.702 52.0393L194.702 54.6292Z" fill="#000000" fill-rule="nonzero" fill-opacity="1" transform="matrix(1 0 0 1.00155 0.414569 4.94644e-15)"/><path d="M196.978 54.6533 196.978 47.8231 197.822 47.8231 197.822 54.6533Z" fill="#000000" fill-rule="nonzero" fill-opacity="1" transform="matrix(1 0 0 1.00155 0.414569 4.94644e-15)"/><path d="M171.115 127.4 171.115 165.249" stroke="#000000" stroke-width="0.867321" stroke-linecap="butt" stroke-linejoin="miter" stroke-miterlimit="10" stroke-opacity="1" fill="none" fill-rule="nonzero" transform="matrix(1 0 0 1.00155 0.414569 4.94644e-15)"/><path d="M171.115 122.846 174.151 128.918 171.115 127.4 168.08 128.918 171.115 122.846Z" fill="#000000" fill-rule="nonzero" fill-opacity="1" transform="matrix(1 0 0 1.00155 0.414569 4.94644e-15)"/><path d="M171.115 122.846 174.151 128.918 171.115 127.4 168.08 128.918 171.115 122.846Z" stroke="#000000" stroke-width="0.867321" stroke-linecap="butt" stroke-linejoin="miter" stroke-miterlimit="10" stroke-opacity="1" fill="none" fill-rule="nonzero" transform="matrix(1 0 0 1.00155 0.414569 4.94644e-15)"/><path d="M155.275 141.397 187.366 141.397 187.366 152.673 155.275 152.673Z" fill="#FFFFFF" fill-rule="nonzero" fill-opacity="1" transform="matrix(1 0 0 1.00155 0.414569 4.94644e-15)"/><path d="M156.034 150.071 156.034 145.12 156.78 145.12 156.78 145.867C156.906 145.599 157.091 145.364 157.322 145.18 157.475 145.066 157.662 145.007 157.852 145.011 158.161 145.015 158.462 145.106 158.72 145.276L158.431 146.059C158.246 145.945 158.033 145.882 157.816 145.879 157.639 145.875 157.466 145.93 157.322 146.035 157.172 146.156 157.062 146.32 157.009 146.505 156.909 146.821 156.86 147.15 156.865 147.481L156.865 150.071Z" fill="#000000" fill-rule="nonzero" fill-opacity="1" transform="matrix(1 0 0 1.00155 0.414569 4.94644e-15)"/><path d="M162.623 148.481 163.49 148.577C163.388 149.055 163.119 149.483 162.731 149.782 162.324 150.079 161.827 150.229 161.322 150.203 160.68 150.237 160.053 149.996 159.599 149.541 159.149 149.021 158.92 148.347 158.961 147.661 158.919 146.957 159.147 146.264 159.599 145.722 160.033 145.263 160.642 145.013 161.274 145.035 161.884 145.014 162.473 145.261 162.888 145.71 163.34 146.238 163.568 146.919 163.526 147.613 163.526 147.613 163.526 147.734 163.526 147.83L159.84 147.83C159.846 148.273 160.008 148.7 160.298 149.035 160.566 149.319 160.942 149.477 161.334 149.468 161.615 149.476 161.889 149.391 162.117 149.227 162.353 149.031 162.529 148.772 162.623 148.481ZM159.876 147.119 162.623 147.119C162.612 146.782 162.504 146.456 162.31 146.18 162.059 145.865 161.676 145.686 161.274 145.698 160.91 145.691 160.558 145.829 160.298 146.083 160.022 146.359 159.862 146.729 159.852 147.119Z" fill="#000000" fill-rule="nonzero" fill-opacity="1" transform="matrix(1 0 0 1.00155 0.414569 4.94644e-15)"/><path d="M167.73 150.071 167.73 149.444C167.439 149.925 166.906 150.208 166.345 150.179 165.96 150.18 165.581 150.067 165.261 149.854 164.922 149.629 164.655 149.311 164.49 148.938 164.304 148.518 164.214 148.061 164.225 147.601 164.215 147.14 164.297 146.681 164.466 146.252 164.614 145.874 164.874 145.55 165.213 145.325 165.54 145.116 165.921 145.008 166.309 145.011 166.585 145.005 166.858 145.068 167.104 145.192 167.328 145.317 167.524 145.485 167.682 145.686L167.682 143.277 168.513 143.277 168.513 150.107ZM165.08 147.661C165.043 148.167 165.184 148.67 165.478 149.083 165.705 149.378 166.056 149.552 166.429 149.553 166.79 149.55 167.13 149.386 167.357 149.107 167.647 148.711 167.783 148.223 167.742 147.734 167.791 147.206 167.654 146.679 167.357 146.24 167.129 145.936 166.773 145.758 166.393 145.758 166.027 145.759 165.681 145.928 165.454 146.216 165.165 146.618 165.016 147.106 165.032 147.601Z" fill="#000000" fill-rule="nonzero" fill-opacity="1" transform="matrix(1 0 0 1.00155 0.414569 4.94644e-15)"/><path d="M169.85 144.204 169.85 143.241 170.682 143.241 170.682 144.204ZM169.85 150.071 169.85 145.12 170.682 145.12 170.682 150.071Z" fill="#000000" fill-rule="nonzero" fill-opacity="1" transform="matrix(1 0 0 1.00155 0.414569 4.94644e-15)"/><path d="M171.934 150.071 171.934 145.12 172.693 145.12 172.693 145.867C172.82 145.603 173.001 145.369 173.223 145.18 173.381 145.067 173.572 145.008 173.765 145.011 174.074 145.017 174.374 145.109 174.633 145.276L174.344 146.059C174.159 145.945 173.946 145.882 173.729 145.879 173.552 145.874 173.378 145.928 173.235 146.035 173.081 146.152 172.97 146.317 172.922 146.505 172.822 146.821 172.773 147.15 172.778 147.481L172.778 150.071Z" fill="#000000" fill-rule="nonzero" fill-opacity="1" transform="matrix(1 0 0 1.00155 0.414569 4.94644e-15)"/><path d="M178.512 148.481 179.379 148.577C179.277 149.055 179.008 149.483 178.62 149.782 177.643 150.425 176.355 150.325 175.488 149.541 175.033 149.025 174.803 148.348 174.85 147.661 174.807 146.957 175.036 146.264 175.488 145.722 175.922 145.263 176.531 145.013 177.162 145.035 177.772 145.017 178.361 145.263 178.777 145.71 179.225 146.239 179.45 146.922 179.403 147.613L179.403 147.83 175.717 147.83C175.723 148.273 175.884 148.7 176.175 149.035 176.443 149.319 176.819 149.477 177.211 149.468 177.49 149.473 177.765 149.389 177.994 149.227 178.235 149.034 178.414 148.775 178.512 148.481ZM175.765 147.119 178.524 147.119C178.513 146.782 178.404 146.456 178.21 146.18 177.955 145.864 177.567 145.686 177.162 145.698 176.802 145.692 176.455 145.83 176.199 146.083 175.927 146.36 175.772 146.732 175.765 147.119Z" fill="#000000" fill-rule="nonzero" fill-opacity="1" transform="matrix(1 0 0 1.00155 0.414569 4.94644e-15)"/><path d="M183.667 148.252 184.486 148.36C184.424 148.873 184.181 149.347 183.8 149.697 183.418 150.024 182.929 150.196 182.427 150.179 181.813 150.207 181.22 149.965 180.8 149.517 180.351 148.989 180.126 148.305 180.174 147.613 180.169 147.135 180.26 146.659 180.439 146.216 180.596 145.83 180.881 145.511 181.246 145.312 181.615 145.109 182.03 145.005 182.451 145.011 182.927 144.987 183.396 145.133 183.776 145.421 184.14 145.724 184.372 146.156 184.426 146.626L183.619 146.746C183.561 146.462 183.418 146.201 183.21 145.999 183.007 145.83 182.751 145.741 182.487 145.746 182.094 145.736 181.717 145.904 181.463 146.204 180.941 147.093 180.941 148.194 181.463 149.083 181.924 149.624 182.735 149.692 183.282 149.24 183.522 148.966 183.659 148.616 183.667 148.252Z" fill="#000000" fill-rule="nonzero" fill-opacity="1" transform="matrix(1 0 0 1.00155 0.414569 4.94644e-15)"/><path d="M187.04 149.372 187.161 150.107C186.951 150.153 186.737 150.177 186.522 150.179 186.277 150.191 186.032 150.142 185.812 150.035 185.657 149.951 185.536 149.82 185.462 149.661 185.369 149.341 185.332 149.006 185.354 148.673L185.354 145.758 184.739 145.758 184.739 145.108 185.354 145.108 185.354 143.903 186.197 143.409 186.197 145.132 187.04 145.132 187.04 145.758 186.197 145.758 186.197 148.649C186.178 148.805 186.178 148.964 186.197 149.119 186.232 149.182 186.281 149.236 186.342 149.276 186.436 149.303 186.537 149.303 186.631 149.276Z" fill="#000000" fill-rule="nonzero" fill-opacity="1" transform="matrix(1 0 0 1.00155 0.414569 4.94644e-15)"/></g></g></svg>