<svg xmlns="http://www.w3.org/2000/svg" xmlns:xlink="http://www.w3.org/1999/xlink" width="1222" height="410" viewBox="0 0 1222 410)"><g transform="translate(-983.40,-407.28)"><g transform="translate(1938.58,604.72)" id="shape1"><path stroke="#191919" d="M0,0L-0.1,-149.6" fill="none"/><path stroke-linecap="round" stroke-width="1" fill="#191919" stroke="#191919" d="M-3.1,-149.6L-0.1,-154.6L2.9,-149.6L-3.1,-149.6Z"/><rect xmlns="http://www.w3.org/2000/svg" x="-26.23448168563719" y="-134.37594085098291" width="52.4921875" height="12.5" fill="rgb(255, 255, 255)" transform=""/><text xmlns="http://www.w3.org/2000/svg" xml:space="preserve"><tspan x="-26.23448168563719" y="-125.37594085098291" textLength="52.4921875" style="fill:rgb(25, 25, 25);font-family:&quot;Microsoft YaHei&quot;;font-size:7pt;font-weight:normal;background-color:rgb(255, 255, 255);">非对齐 Load</tspan></text></g><g transform="translate(1080.53,530.96)" id="shape2"><path fill="#ffe8cd" d="M18.2,36.4L42.2,36.4L42.2,36.4C52.3,36.4,60.4,28.2,60.4,18.2C60.4,8.1,52.3,0,42.2,0L18.2,0L18.2,0C8.1,0,0,8.1,0,18.2C0,28.2,8.1,36.4,18.2,36.4Z" stroke="#323232"/><text xmlns="http://www.w3.org/2000/svg" xml:space="preserve"><tspan x="16.0877625" y="20.821999999999406" textLength="28.2890625" style="fill:rgb(25, 25, 25);font-family:&quot;Microsoft YaHei&quot;;font-size:8pt;font-weight:normal;">s_idle</tspan></text></g><g transform="translate(1274.41,530.96)" id="shape3"><path fill="#ffe8cd" d="M18.2,36.4L114.9,36.4L114.9,36.4C124.9,36.4,133.1,28.2,133.1,18.2C133.1,8.1,124.9,0,114.9,0L18.2,0L18.2,0C8.1,0,0,8.1,0,18.2C0,28.2,8.1,36.4,18.2,36.4Z" stroke="#323232"/><text xmlns="http://www.w3.org/2000/svg" xml:space="preserve"><tspan x="18.277825" y="20.821999999999406" textLength="96.5859375" style="fill:rgb(25, 25, 25);font-family:&quot;Microsoft YaHei&quot;;font-size:8pt;font-weight:normal;">s_flush_sbuffer_req</tspan></text></g><g transform="translate(1489.98,530.96)" id="shape4"><path fill="#ffe8cd" d="M18.2,36.4L148,36.4L148,36.4C158.1,36.4,166.2,28.2,166.2,18.2C166.2,8.1,158.1,0,148,0L18.2,0L18.2,0C8.1,0,0,8.1,0,18.2C0,28.2,8.1,36.4,18.2,36.4Z" stroke="#323232"/><text xmlns="http://www.w3.org/2000/svg" xml:space="preserve"><tspan x="19.43095000000001" y="20.821999999999406" textLength="127.4296875" style="fill:rgb(25, 25, 25);font-family:&quot;Microsoft YaHei&quot;;font-size:8pt;font-weight:normal;">s_wait_flush_sbuffer_resp</tspan></text></g><g transform="translate(1725.04,530.96)" id="shape5"><path fill="#ffe8cd" d="M18.8,37.7L94.4,37.7L94.4,37.7C104.9,37.7,113.3,29.3,113.3,18.8C113.3,8.4,104.9,0,94.4,0L18.8,0L18.8,0C8.4,0,0,8.4,0,18.8C0,29.3,8.4,37.7,18.8,37.7Z" stroke="#323232"/><text xmlns="http://www.w3.org/2000/svg" xml:space="preserve"><tspan x="34.22415" y="21.499199999999405" textLength="44.9375" style="fill:rgb(25, 25, 25);font-family:&quot;Microsoft YaHei&quot;;font-size:8pt;font-weight:normal;">s_tlb_req</tspan></text></g><g transform="translate(1889.45,530.96)" id="shape6"><path fill="#ffe8cd" d="M18.8,37.7L81.2,37.7L81.2,37.7C91.6,37.7,100.1,29.3,100.1,18.8C100.1,8.4,91.6,0,81.2,0L18.8,0L18.8,0C8.4,0,0,8.4,0,18.8C0,29.3,8.4,37.7,18.8,37.7Z" stroke="#323232"/><text xmlns="http://www.w3.org/2000/svg" xml:space="preserve"><tspan x="14.649012499999998" y="21.499199999999405" textLength="70.859375" style="fill:rgb(25, 25, 25);font-family:&quot;Microsoft YaHei&quot;;font-size:8pt;font-weight:normal;">s_wait_tlb_req</tspan></text></g><g transform="translate(2048.50,530.96)" id="shape7"><path fill="#ffe8cd" d="M18.8,37.7L73.3,37.7L73.3,37.7C83.8,37.7,92.2,29.3,92.2,18.8C92.2,8.4,83.8,0,73.3,0L18.8,0L18.8,0C8.4,0,0,8.4,0,18.8C0,29.3,8.4,37.7,18.8,37.7Z" stroke="#323232"/><text xmlns="http://www.w3.org/2000/svg" xml:space="preserve"><tspan x="32.876075" y="21.499199999999405" textLength="26.53125" style="fill:rgb(25, 25, 25);font-family:&quot;Microsoft YaHei&quot;;font-size:8pt;font-weight:normal;">s_pm</tspan></text></g><g transform="translate(1274.41,643.87)" id="shape8"><path fill="#ffe8cd" d="M18.2,36.4L107.3,36.4L107.3,36.4C117.4,36.4,125.5,28.2,125.5,18.2C125.5,8.1,117.4,0,107.3,0L18.2,0L18.2,0C8.1,0,0,8.1,0,18.2C0,28.2,8.1,36.4,18.2,36.4Z" stroke="#323232"/><text xmlns="http://www.w3.org/2000/svg" xml:space="preserve"><tspan x="44.1937375" y="20.821999999999406" textLength="37.1953125" style="fill:rgb(25, 25, 25);font-family:&quot;Microsoft YaHei&quot;;font-size:8pt;font-weight:normal;">s_finish</tspan></text></g><g transform="translate(1679.68,604.55)" id="shape9"><path fill="#ffe8cd" d="M18.8,37.7L139.8,37.7L139.8,37.7C150.2,37.7,158.7,29.3,158.7,18.8C158.7,8.4,150.2,0,139.8,0L18.8,0L18.8,0C8.4,0,0,8.4,0,18.8C0,29.3,8.4,37.7,18.8,37.7Z" stroke="#323232"/><text xmlns="http://www.w3.org/2000/svg" xml:space="preserve"><tspan x="17.714049999999986" y="21.499199999999405" textLength="123.3125" style="fill:rgb(25, 25, 25);font-family:&quot;Microsoft YaHei&quot;;font-size:8pt;font-weight:normal;">s_latch_and_merge_data</tspan></text></g><g transform="translate(1887.56,604.72)" id="shape10"><path fill="#ffe8cd" d="M18.8,37.7L83.1,37.7L83.1,37.7C93.5,37.7,102,29.3,102,18.8C102,8.4,93.5,0,83.1,0L18.8,0L18.8,0C8.4,0,0,8.4,0,18.8C0,29.3,8.4,37.7,18.8,37.7Z" stroke="#323232"/><text xmlns="http://www.w3.org/2000/svg" xml:space="preserve"><tspan x="18.2969875" y="21.499199999999405" textLength="65.453125" style="fill:rgb(25, 25, 25);font-family:&quot;Microsoft YaHei&quot;;font-size:8pt;font-weight:normal;">s_cache_resp</tspan></text></g><g transform="translate(2048.50,604.72)" id="shape11"><path fill="#ffe8cd" d="M18.8,37.7L73.3,37.7L73.3,37.7C83.8,37.7,92.2,29.3,92.2,18.8C92.2,8.4,83.8,0,73.3,0L18.8,0L18.8,0C8.4,0,0,8.4,0,18.8C0,29.3,8.4,37.7,18.8,37.7Z" stroke="#323232"/><text xmlns="http://www.w3.org/2000/svg" xml:space="preserve"><tspan x="15.876075" y="21.499199999999405" textLength="60.53125" style="fill:rgb(25, 25, 25);font-family:&quot;Microsoft YaHei&quot;;font-size:8pt;font-weight:normal;">s_cache_req</tspan></text></g><g transform="translate(2048.50,680.31)" id="shape12"><path fill="#ffe8cd" d="M17.9,35.9L74.2,35.9L74.2,35.9C84.2,35.9,92.2,27.9,92.2,17.9C92.2,8,84.2,0,74.2,0L17.9,0L17.9,0C8,0,0,8,0,17.9C0,27.9,8,35.9,17.9,35.9Z" stroke="#323232"/><text xmlns="http://www.w3.org/2000/svg" xml:space="preserve"><tspan x="15.391750000000002" y="20.587749999999406" textLength="61.5" style="fill:rgb(25, 25, 25);font-family:&quot;Microsoft YaHei&quot;;font-size:8pt;font-weight:normal;">s_send_data</tspan></text></g><g transform="translate(1343.50,530.96)" id="shape13"><path stroke="#191919" d="M0,0L0,-29L412.3,-29L412.3,-6.1" fill="none"/><path stroke-linecap="round" stroke-width="1" fill="#191919" stroke="#191919" d="M415.3,-6.1L412.3,-1.1L409.3,-6.1L415.3,-6.1Z"/><rect xmlns="http://www.w3.org/2000/svg" x="317.915036738912" y="-27.456499999999906" width="50.0546875" height="12.5" fill="rgb(255, 255, 255)" transform=""/><text xmlns="http://www.w3.org/2000/svg" xml:space="preserve"><tspan x="317.915036738912" y="-18.456499999999906" textLength="50.0546875" style="fill:rgb(25, 25, 25);font-family:&quot;Microsoft YaHei&quot;;font-size:7pt;font-weight:normal;background-color:rgb(255, 255, 255);">sbuffer为空</tspan></text></g><g transform="translate(1407.56,549.18)" id="shape14"><path stroke="#191919" d="M0,0L75.4,0" fill="none"/><path stroke-linecap="round" stroke-width="1" fill="#191919" stroke="#191919" d="M75.4,-3L80.4,0L75.4,3L75.4,-3Z"/><rect xmlns="http://www.w3.org/2000/svg" x="20.767199999999406" y="-13.203099999998813" width="31.3828125" height="12.5" fill="rgb(255, 255, 255)"/><rect xmlns="http://www.w3.org/2000/svg" x="27.118762499999406" y="-1.4999749999988126" width="18.671875" height="12.5" fill="rgb(255, 255, 255)" transform=""/><text xmlns="http://www.w3.org/2000/svg" xml:space="preserve"><tspan x="20.767199999999406" y="-4.203099999998813" textLength="31.3828125" style="fill:rgb(25, 25, 25);font-family:&quot;Microsoft YaHei&quot;;font-size:7pt;font-weight:normal;background-color:rgb(255, 255, 255);">sbuffer</tspan><tspan x="27.118762499999406" y="7.500025000001187" textLength="18.671875" style="fill:rgb(25, 25, 25);font-family:&quot;Microsoft YaHei&quot;;font-size:7pt;font-weight:normal;background-color:rgb(255, 255, 255);">不空</tspan></text></g><g transform="translate(1656.28,549.18)" id="shape15"><path stroke="#191919" d="M0,0L62.7,0.6" fill="none"/><path stroke-linecap="round" stroke-width="1" fill="#191919" stroke="#191919" d="M62.7,-2.4L67.7,0.6L62.7,3.6L62.7,-2.4Z"/><rect xmlns="http://www.w3.org/2000/svg" x="17.393599999998813" y="-12.861439999998812" width="34.625" height="12.5" fill="rgb(255, 255, 255)"/><rect xmlns="http://www.w3.org/2000/svg" x="30.034224999998813" y="-1.1583149999988116" width="9.3359375" height="12.5" fill="rgb(255, 255, 255)" transform=""/><text xmlns="http://www.w3.org/2000/svg" xml:space="preserve"><tspan x="17.393599999998813" y="-3.8614399999988116" textLength="34.625" style="fill:rgb(25, 25, 25);font-family:&quot;Microsoft YaHei&quot;;font-size:7pt;font-weight:normal;background-color:rgb(255, 255, 255);">sbufffer</tspan><tspan x="30.034224999998813" y="7.841685000001188" textLength="9.3359375" style="fill:rgb(25, 25, 25);font-family:&quot;Microsoft YaHei&quot;;font-size:7pt;font-weight:normal;background-color:rgb(255, 255, 255);">空</tspan></text></g><g transform="translate(1838.43,549.85)" id="shape16"><path stroke="#191919" d="M0,0L45,-0.1" fill="none"/><path stroke-linecap="round" stroke-width="1" fill="#191919" stroke="#191919" d="M45,-3.1L50,-0.1L45,2.9L45,-3.1Z"/><rect xmlns="http://www.w3.org/2000/svg" x="5.419799999998812" y="-13.203105942058812" width="38.859375" height="12.5" fill="rgb(255, 255, 255)"/><rect xmlns="http://www.w3.org/2000/svg" x="11.872924999998812" y="-1.4999809420588122" width="25.9453125" height="12.5" fill="rgb(255, 255, 255)" transform=""/><text xmlns="http://www.w3.org/2000/svg" xml:space="preserve"><tspan x="5.419799999998812" y="-4.203105942058812" textLength="38.859375" style="fill:rgb(25, 25, 25);font-family:&quot;Microsoft YaHei&quot;;font-size:7pt;font-weight:normal;background-color:rgb(255, 255, 255);">segment</tspan><tspan x="11.872924999998812" y="7.500019057941188" textLength="25.9453125" style="fill:rgb(25, 25, 25);font-family:&quot;Microsoft YaHei&quot;;font-size:7pt;font-weight:normal;background-color:rgb(255, 255, 255);">active</tspan></text></g><g transform="translate(1989.61,549.85)" id="shape17"><path stroke="#191919" d="M0,0L51.9,-0.1" fill="none"/><path stroke-linecap="round" stroke-width="1" fill="#191919" stroke="#191919" d="M51.9,-3.1L56.9,-0.1L51.9,2.9L51.9,-3.1Z"/><rect xmlns="http://www.w3.org/2000/svg" x="22.73049375" y="-13.203106476998812" width="16" height="12.5" fill="rgb(255, 255, 255)"/><rect xmlns="http://www.w3.org/2000/svg" x="12.07424375" y="-1.499981476998812" width="37.34375" height="12.5" fill="rgb(255, 255, 255)" transform=""/><text xmlns="http://www.w3.org/2000/svg" xml:space="preserve"><tspan x="22.73049375" y="-4.203106476998812" textLength="16" style="fill:rgb(25, 25, 25);font-family:&quot;Microsoft YaHei&quot;;font-size:7pt;font-weight:normal;background-color:rgb(255, 255, 255);">TLB</tspan><tspan x="12.07424375" y="7.500018523001188" textLength="37.34375" style="fill:rgb(25, 25, 25);font-family:&quot;Microsoft YaHei&quot;;font-size:7pt;font-weight:normal;background-color:rgb(255, 255, 255);">返回响应</tspan></text></g><g transform="translate(2140.79,549.85)" id="shape18"><path stroke="#191919" d="M0,0L33.4,0L33.4,73.7L6,73.7" fill="none"/><path stroke-linecap="round" stroke-width="1" fill="#191919" stroke="#191919" d="M6,76.7L1,73.7L6,70.7L6,76.7Z"/><rect xmlns="http://www.w3.org/2000/svg" x="24.86484375" y="30.970199429981093" width="17.0703125" height="12.5" fill="rgb(255, 255, 255)" transform=""/><text xmlns="http://www.w3.org/2000/svg" xml:space="preserve"><tspan x="24.86484375" y="39.97019942998109" textLength="17.0703125" style="fill:rgb(25, 25, 25);font-family:&quot;Microsoft YaHei&quot;;font-size:7pt;font-weight:normal;background-color:rgb(255, 255, 255);">VLd</tspan></text></g><g transform="translate(2142.99,551.81)" id="shape19"><path stroke="#191919" d="M0,0L0,-2L48.5,-2L48.5,146.4L3.7,146.4" fill="none"/><path stroke-linecap="round" stroke-width="1" fill="#191919" stroke="#191919" d="M3.7,149.4L-1.3,146.4L3.7,143.4L3.7,149.4Z"/><rect xmlns="http://www.w3.org/2000/svg" x="40.11984375" y="89.0332024163499" width="16.828125" height="14.5" fill="rgb(255, 255, 255)" transform=""/><text xmlns="http://www.w3.org/2000/svg" xml:space="preserve"><tspan x="40.11984375" y="100.0332024163499" textLength="16.828125" style="fill:rgb(25, 25, 25);font-family:&quot;Microsoft YaHei&quot;;font-size:8pt;font-weight:normal;background-color:rgb(255, 255, 255);">VSt</tspan></text></g><g transform="translate(2140.79,549.85)" id="shape20"><path stroke="#191919" d="M0,0L13.4,0L13.4,112.2L-734.8,112.2" fill="none"/><path stroke-linecap="round" stroke-width="1" fill="#191919" stroke="#191919" d="M-734.8,115.2L-739.8,112.2L-734.8,109.2L-734.8,115.2Z"/><rect xmlns="http://www.w3.org/2000/svg" x="-473.756946693734" y="113.74000000000011" width="37.34375" height="12.5" fill="rgb(255, 255, 255)" transform=""/><text xmlns="http://www.w3.org/2000/svg" xml:space="preserve"><tspan x="-473.756946693734" y="122.74000000000011" textLength="37.34375" style="fill:rgb(25, 25, 25);font-family:&quot;Microsoft YaHei&quot;;font-size:7pt;font-weight:normal;background-color:rgb(255, 255, 255);">出现异常</tspan></text></g><g transform="translate(2094.65,716.29)" id="shape21"><path stroke="#191919" d="M0,0L0,16.2L-731.5,16.2L-731.5,-30" fill="none"/><path stroke-linecap="round" stroke-width="1" fill="#191919" stroke="#191919" d="M-734.5,-30L-731.5,-35L-728.5,-30L-734.5,-30Z"/><rect xmlns="http://www.w3.org/2000/svg" x="-396.6104229580437" y="8.876750000001095" width="76.203125" height="12.5" fill="rgb(255, 255, 255)" transform=""/><text xmlns="http://www.w3.org/2000/svg" xml:space="preserve"><tspan x="-396.6104229580437" y="17.876750000001095" textLength="76.203125" style="fill:rgb(25, 25, 25);font-family:&quot;Microsoft YaHei&quot;;font-size:7pt;font-weight:normal;background-color:rgb(255, 255, 255);">完成segment指令</tspan></text></g><g transform="translate(2048.67,700.78)" id="shape22"><path stroke="#191919" d="M0,0L-382,0L-382,-138.2L-324.7,-138.2" fill="none"/><path stroke-linecap="round" stroke-width="1" fill="#191919" stroke="#191919" d="M-324.7,-141.2L-319.7,-138.2L-324.7,-135.2L-324.7,-141.2Z"/><rect xmlns="http://www.w3.org/2000/svg" x="-234.44972339095773" y="-7.351549999998906" width="84.0234375" height="12.5" fill="rgb(255, 255, 255)" transform=""/><text xmlns="http://www.w3.org/2000/svg" xml:space="preserve"><tspan x="-234.44972339095773" y="1.6484500000010938" textLength="84.0234375" style="fill:rgb(25, 25, 25);font-family:&quot;Microsoft YaHei&quot;;font-size:7pt;font-weight:normal;background-color:rgb(255, 255, 255);">还存在未访问的元素</tspan></text></g><g transform="translate(2048.50,623.62)" id="shape23"><path stroke="#191919" d="M0,0L-52,0" fill="none"/><path stroke-linecap="round" stroke-width="1" fill="#191919" stroke="#191919" d="M-52,3L-57,0L-52,-3L-52,3Z"/><rect xmlns="http://www.w3.org/2000/svg" x="-35.47504375" y="-13.203099999998813" width="18.671875" height="12.5" fill="rgb(255, 255, 255)"/><rect xmlns="http://www.w3.org/2000/svg" x="-44.79535625" y="-1.4999749999988126" width="37.34375" height="12.5" fill="rgb(255, 255, 255)" transform=""/><text xmlns="http://www.w3.org/2000/svg" xml:space="preserve"><tspan x="-35.47504375" y="-4.203099999998813" textLength="18.671875" style="fill:rgb(25, 25, 25);font-family:&quot;Microsoft YaHei&quot;;font-size:7pt;font-weight:normal;background-color:rgb(255, 255, 255);">成功</tspan><tspan x="-44.79535625" y="7.500025000001187" textLength="37.34375" style="fill:rgb(25, 25, 25);font-family:&quot;Microsoft YaHei&quot;;font-size:7pt;font-weight:normal;background-color:rgb(255, 255, 255);">发送请求</tspan></text></g><g transform="translate(1887.56,623.62)" id="shape24"><path stroke="#191919" d="M0,0L-42.6,0" fill="none"/><path stroke-linecap="round" stroke-width="1" fill="#191919" stroke="#191919" d="M-42.6,3L-47.6,0L-42.6,-3L-42.6,3Z"/><text xmlns="http://www.w3.org/2000/svg" xml:space="preserve"><tspan x="-36.508696930803" y="-2.84375" textLength="27.0390625" style="fill:rgb(25, 25, 25);font-family:&quot;Microsoft YaHei&quot;;font-size:6pt;font-weight:normal;">dcache</tspan><tspan x="-30.993071930802998" y="7.25" textLength="16" style="fill:rgb(25, 25, 25);font-family:&quot;Microsoft YaHei&quot;;font-size:6pt;font-weight:normal;">响应</tspan></text></g><g transform="translate(1822.13,604.72)" id="shape25"><path stroke="#191919" d="M0,0L0,-19.9L272.5,-19.9L272.5,-6.1" fill="none"/><path stroke-linecap="round" stroke-width="1" fill="#191919" stroke="#191919" d="M275.5,-6.1L272.5,-1.1L269.5,-6.1L275.5,-6.1Z"/><rect xmlns="http://www.w3.org/2000/svg" x="92.088568648437" y="-27.249149999998906" width="54.1796875" height="12.5" fill="rgb(255, 255, 255)" transform=""/><text xmlns="http://www.w3.org/2000/svg" xml:space="preserve"><tspan x="92.088568648437" y="-18.249149999998906" textLength="54.1796875" style="fill:rgb(25, 25, 25);font-family:&quot;Microsoft YaHei&quot;;font-size:7pt;font-weight:normal;background-color:rgb(255, 255, 255);">dcache miss</tspan></text></g><g transform="translate(1679.68,623.45)" id="shape26"><path stroke="#191919" d="M0,0L-342.5,0L-342.5,14.4" fill="none"/><path stroke-linecap="round" stroke-width="1" fill="#191919" stroke="#191919" d="M-339.5,14.4L-342.5,19.4L-345.5,14.4L-339.5,14.4Z"/><rect xmlns="http://www.w3.org/2000/svg" x="-239.11566223402275" y="-7.351549999998906" width="76.203125" height="12.5" fill="rgb(255, 255, 255)" transform=""/><text xmlns="http://www.w3.org/2000/svg" xml:space="preserve"><tspan x="-239.11566223402275" y="1.6484500000010938" textLength="76.203125" style="fill:rgb(25, 25, 25);font-family:&quot;Microsoft YaHei&quot;;font-size:7pt;font-weight:normal;background-color:rgb(255, 255, 255);">完成segment指令</tspan></text></g><g transform="translate(1798.36,604.55)" id="shape27"><path stroke="#191919" d="M0,0L0,-29.6" fill="none"/><path stroke-linecap="round" stroke-width="1" fill="#191919" stroke="#191919" d="M-3,-29.6L0,-34.6L3,-29.6L-3,-29.6Z"/><rect xmlns="http://www.w3.org/2000/svg" x="-41.98829999999675" y="-28.373409137541906" width="84.0234375" height="12.5" fill="rgb(255, 255, 255)" transform=""/><text xmlns="http://www.w3.org/2000/svg" xml:space="preserve"><tspan x="-41.98829999999675" y="-19.373409137541906" textLength="84.0234375" style="fill:rgb(25, 25, 25);font-family:&quot;Microsoft YaHei&quot;;font-size:7pt;font-weight:normal;background-color:rgb(255, 255, 255);">还存在未访存的元素</tspan></text></g><g transform="translate(1141.00,549.18)" id="shape28"><path stroke="#191919" d="M0,0L126.4,0" fill="none"/><path stroke-linecap="round" stroke-width="1" fill="#191919" stroke="#191919" d="M126.4,-3L131.4,0L126.4,3L126.4,-3Z"/></g><g transform="translate(1274.41,662.09)" id="shape29"><path stroke="#191919" d="M0,0L-151.3,0L-151.3,-88.1" fill="none"/><path stroke-linecap="round" stroke-width="1" fill="#191919" stroke="#191919" d="M-154.3,-88.1L-151.3,-93.1L-148.3,-88.1L-154.3,-88.1Z"/><rect xmlns="http://www.w3.org/2000/svg" x="-148.78672240933798" y="-68.7911952837219" width="73.6640625" height="12.5" fill="rgb(255, 255, 255)" transform=""/><text xmlns="http://www.w3.org/2000/svg" xml:space="preserve"><tspan x="-148.78672240933798" y="-59.791195283721905" textLength="73.6640625" style="fill:rgb(25, 25, 25);font-family:&quot;Microsoft YaHei&quot;;font-size:7pt;font-weight:normal;background-color:rgb(255, 255, 255);">所有uop写回后端</tspan></text></g><g transform="translate(1855.43,412.78)" id="shape30"><path fill="#ffe8cd" d="M18.2,36.4L148,36.4L148,36.4C158.1,36.4,166.2,28.2,166.2,18.2C166.2,8.1,158.1,0,148,0L18.2,0L18.2,0C8.1,0,0,8.1,0,18.2C0,28.2,8.1,36.4,18.2,36.4Z" stroke="#323232"/><text xmlns="http://www.w3.org/2000/svg" xml:space="preserve"><tspan x="24.391687500000003" y="20.821999999999406" textLength="117.515625" style="fill:rgb(25, 25, 25);font-family:微软雅黑;font-size:8pt;font-weight:normal;">s_misalign_merge_data</tspan></text></g><g transform="translate(1600.63,775.48)" id="shape31"><path fill="#ffe8cd" d="M18.2,36.4L148,36.4L148,36.4C158.1,36.4,166.2,28.2,166.2,18.2C166.2,8.1,158.1,0,148,0L18.2,0L18.2,0C8.1,0,0,8.1,0,18.2C0,28.2,8.1,36.4,18.2,36.4Z" stroke="#323232"/><text xmlns="http://www.w3.org/2000/svg" xml:space="preserve"><tspan x="39.665125" y="20.821999999999406" textLength="86.9609375" style="fill:rgb(25, 25, 25);font-family:微软雅黑;font-size:8pt;font-weight:normal;">s_wait_to_sbuffer</tspan></text></g><g transform="translate(1134.15,775.48)" id="shape32"><path fill="#ffe8cd" d="M18.2,36.4L148,36.4L148,36.4C158.1,36.4,166.2,28.2,166.2,18.2C166.2,8.1,158.1,0,148,0L18.2,0L18.2,0C8.1,0,0,8.1,0,18.2C0,28.2,8.1,36.4,18.2,36.4Z" stroke="#323232"/><text xmlns="http://www.w3.org/2000/svg" xml:space="preserve"><tspan x="56.321375" y="20.821999999999406" textLength="53.65625" style="fill:rgb(25, 25, 25);font-family:微软雅黑;font-size:8pt;font-weight:normal;">s_fof_fix_vl</tspan></text></g><g transform="translate(2094.65,716.29)" id="shape33"><path stroke="#191919" d="M0,0L0,76L-321.8,76" fill="none"/><path stroke-linecap="round" stroke-width="1" fill="#191919" stroke="#191919" d="M-321.8,79L-326.8,76L-321.8,73L-321.8,79Z"/><rect xmlns="http://www.w3.org/2000/svg" x="-227.66449999999895" y="68.64845000000109" width="162.0859375" height="12.5" fill="rgb(255, 255, 255)" transform=""/><text xmlns="http://www.w3.org/2000/svg" xml:space="preserve"><tspan x="-227.66449999999895" y="77.64845000000109" textLength="162.0859375" style="fill:rgb(25, 25, 25);font-family:&quot;Microsoft YaHei&quot;;font-size:7pt;font-weight:normal;background-color:rgb(255, 255, 255);">等待数据从流水线寄存器中写入sbuffer</tspan></text></g><g transform="translate(1600.63,793.70)" id="shape34"><path stroke="#191919" d="M0,0L-286,0L-286,-106.8" fill="none"/><path stroke-linecap="round" stroke-width="1" fill="#191919" stroke="#191919" d="M-289,-106.8L-286,-111.8L-283,-106.8L-289,-106.8Z"/><rect xmlns="http://www.w3.org/2000/svg" x="-204.42753125" y="-7.351549999998907" width="127.5078125" height="12.5" fill="rgb(255, 255, 255)" transform=""/><text xmlns="http://www.w3.org/2000/svg" xml:space="preserve"><tspan x="-204.42753125" y="1.6484500000010929" textLength="127.5078125" style="fill:rgb(25, 25, 25);font-family:&quot;Microsoft YaHei&quot;;font-size:7pt;font-weight:normal;background-color:rgb(255, 255, 255);">最后一个数据已经写入 sbuffer</tspan></text></g><g transform="translate(1274.41,662.09)" id="shape35"><path stroke="#191919" d="M0,0L-57.2,0L-57.2,107.3" fill="none"/><path stroke-linecap="round" stroke-width="1" fill="#191919" stroke="#191919" d="M-54.2,107.3L-57.2,112.3L-60.2,107.3L-54.2,107.3Z"/><rect xmlns="http://www.w3.org/2000/svg" x="-138.20655624999898" y="52.87941402174109" width="162.3125" height="12.5" fill="rgb(255, 255, 255)" transform=""/><text xmlns="http://www.w3.org/2000/svg" xml:space="preserve"><tspan x="-138.20655624999898" y="61.87941402174109" textLength="162.3125" style="fill:rgb(25, 25, 25);font-family:&quot;Microsoft YaHei&quot;;font-size:7pt;font-weight:normal;background-color:rgb(255, 255, 255);">是 fof 指令，且其他 uop 已经全部写回</tspan></text></g><g transform="translate(1134.15,793.70)" id="shape36"><path stroke="#191919" d="M0,0L-35.4,0L-35.4,-219.8" fill="none"/><path stroke-linecap="round" stroke-width="1" fill="#191919" stroke="#191919" d="M-38.4,-219.8L-35.4,-224.8L-32.4,-219.8L-38.4,-219.8Z"/><rect xmlns="http://www.w3.org/2000/svg" x="-145.752386500001" y="-182.8966289929409" width="108.015625" height="12.5" fill="rgb(255, 255, 255)" transform=""/><text xmlns="http://www.w3.org/2000/svg" xml:space="preserve"><tspan x="-145.752386500001" y="-173.8966289929409" textLength="108.015625" style="fill:rgb(25, 25, 25);font-family:&quot;Microsoft YaHei&quot;;font-size:7pt;font-weight:normal;background-color:rgb(255, 255, 255);">写回修改 vl 寄存器的 uop</tspan></text></g><g transform="translate(1855.43,431.00)" id="shape37"><path stroke="#191919" d="M0,0L-52.3,0L-52.3,93.9" fill="none"/><path stroke-linecap="round" stroke-width="1" fill="#191919" stroke="#191919" d="M-49.3,93.9L-52.3,98.9L-55.3,93.9L-49.3,93.9Z"/><rect xmlns="http://www.w3.org/2000/svg" x="-115.78735710000001" y="46.18635804660209" width="127.1796875" height="12.5" fill="rgb(255, 255, 255)" transform=""/><text xmlns="http://www.w3.org/2000/svg" xml:space="preserve"><tspan x="-115.78735710000001" y="55.18635804660209" textLength="127.1796875" style="fill:rgb(25, 25, 25);font-family:&quot;Microsoft YaHei&quot;;font-size:7pt;font-weight:normal;background-color:rgb(255, 255, 255);">非对齐且是第一次拆分的 Load</tspan></text></g><g transform="translate(1855.43,431.00)" id="shape38"><path stroke="#191919" d="M0,0L-140.3,0L-140.3,167.5" fill="none"/><path stroke-linecap="round" stroke-width="1" fill="#191919" stroke="#191919" d="M-137.3,167.5L-140.3,172.5L-143.3,167.5L-137.3,167.5Z"/><rect xmlns="http://www.w3.org/2000/svg" x="-214.547005200001" y="19.83746307896009" width="148.6171875" height="12.5" fill="rgb(255, 255, 255)" transform=""/><text xmlns="http://www.w3.org/2000/svg" xml:space="preserve"><tspan x="-214.547005200001" y="28.83746307896009" textLength="148.6171875" style="fill:rgb(25, 25, 25);font-family:&quot;Microsoft YaHei&quot;;font-size:7pt;font-weight:normal;background-color:rgb(255, 255, 255);">非对齐拆分的两次 Load 都执行完毕</tspan></text></g><g transform="translate(2094.65,530.96)" id="shape39"><path stroke="#191919" d="M0,0L0,-29L-313,-29L-313,-6" fill="none"/><path stroke-linecap="round" stroke-width="1" fill="#191919" stroke="#191919" d="M-310,-6L-313,-1L-316,-6L-310,-6Z"/><rect xmlns="http://www.w3.org/2000/svg" x="-131.76499999999683" y="-36.307949999998904" width="122.03125" height="12.5" fill="rgb(255, 255, 255)" transform=""/><text xmlns="http://www.w3.org/2000/svg" xml:space="preserve"><tspan x="-131.76499999999683" y="-27.307949999998904" textLength="122.03125" style="fill:rgb(25, 25, 25);font-family:&quot;Microsoft YaHei&quot;;font-size:7pt;font-weight:normal;background-color:rgb(255, 255, 255);">是非对齐 Store 的第一次检查</tspan></text></g></g></svg>